<?xml version="1.0" standalone="no"?>
<!DOCTYPE svg PUBLIC "-//W3C//DTD SVG 1.1//EN" "http://www.w3.org/Graphics/SVG/1.1/DTD/svg11.dtd" >
<svg xmlns="http://www.w3.org/2000/svg">
<metadata>
Created by FontPrep 20130207 at Tue Mar 10 13:13:22 2015
 By Joseba Alonso
Digitized data copyright (c) 2010-2011, Google Corporation.
</metadata>
<defs>
<font id="32756bd590186a9f248741d5548b466e" horiz-adv-x='1024' >
  <font-face 
    font-family="OpenSans-SemiboldItalic"
    font-weight="600"
    font-style="italic"
    font-stretch="normal"
    units-per-em="2048"
    panose-1="2 11 7 6 3 8 4 2 2 4"
    ascent="1638"
    descent="-410"
    x-height="1106"
    cap-height="1462"
    bbox="-993 -575.015 2585 2146"
    underline-thickness="102"
    underline-position="-103"
    slope="-12"
    unicode-range="U+0020-FFFD"
  />
<missing-glyph horiz-adv-x="1229" 
d="M297 104h633v1254h-633v-1254zM193 1462h841v-1462h-841v1462z" />
    <glyph glyph-name="ff" unicode="ff" horiz-adv-x="1376" 
d="M-76 -492q-90 0 -149 23v190q64 -20 114 -20q133 0 177 205l217 1022h-179l21 106l194 76l21 92q44 198 134.5 281.5t256.5 83.5q115 0 211 -43l-61 -176q-73 28 -139 28t-107.5 -43t-63.5 -141l-18 -86h438l23 96q44 197 133 281t256 84q117 0 213 -43l-62 -176
q-74 28 -140 28t-106.5 -43t-62.5 -141l-18 -86h229l-39 -178h-227l-223 -1053q-43 -192 -133.5 -279.5t-235.5 -87.5q-95 0 -149 23v190q60 -20 114 -20q136 0 176 205l215 1022h-438l-223 -1053q-40 -189 -131 -278t-238 -89z" />
    <glyph glyph-name="uniFB01" unicode="fi" horiz-adv-x="1257" 
d="M-76 -492q-90 0 -149 23v190q64 -20 114 -20q134 0 177 205l217 1022h-179l21 106l194 76l21 92q44 198 134 282t257 83q115 0 211 -43l-61 -176q-73 28 -139 28t-108 -43t-63 -141l-18 -86h229l-37 -178h-229l-223 -1053q-40 -189 -131 -278t-238 -89zM975 0h-236
l236 1106h235zM1145 1270q-123 0 -123 114q0 62 39 104t101 42q128 0 128 -107q0 -71 -40 -112t-105 -41z" />
    <glyph glyph-name="uniFB02" unicode="fl" horiz-adv-x="1257" 
d="M-76 -492q-90 0 -149 23v190q64 -20 114 -20q134 0 177 205l217 1022h-179l21 106l194 76l21 92q44 198 134 282t257 83q115 0 211 -43l-61 -176q-73 28 -139 28t-108 -43t-63 -141l-18 -86h229l-37 -178h-229l-223 -1053q-40 -189 -131 -278t-238 -89zM973 0h-234
l330 1556h235z" />
    <glyph glyph-name="uniFB03" unicode="ffi" horiz-adv-x="1931" 
d="M1819 1270q-121 0 -121 114q0 62 39 104t101 42q126 0 126 -107q0 -71 -39.5 -112t-105.5 -41zM1649 0h-234l236 1106h233zM-76 -492q-90 0 -149 23v190q64 -20 114 -20q133 0 177 205l217 1022h-179l21 106l194 76l21 92q44 198 134.5 281.5t256.5 83.5q115 0 211 -43
l-61 -176q-73 28 -139 28t-107.5 -43t-63.5 -141l-18 -86h438l23 96q44 197 133 281t256 84q117 0 213 -43l-62 -176q-74 28 -140 28t-106.5 -43t-62.5 -141l-18 -86h229l-39 -178h-227l-223 -1053q-43 -192 -133.5 -279.5t-235.5 -87.5q-95 0 -149 23v190q60 -20 114 -20
q136 0 176 205l215 1022h-438l-223 -1053q-40 -189 -131 -278t-238 -89z" />
    <glyph glyph-name="uniFB04" unicode="ffl" horiz-adv-x="1931" 
d="M1649 0h-236l332 1556h233zM-76 -492q-90 0 -149 23v190q64 -20 114 -20q133 0 177 205l217 1022h-179l21 106l194 76l21 92q44 198 134.5 281.5t256.5 83.5q115 0 211 -43l-61 -176q-73 28 -139 28t-107.5 -43t-63.5 -141l-18 -86h438l23 96q44 197 133 281t256 84
q117 0 213 -43l-62 -176q-74 28 -140 28t-106.5 -43t-62.5 -141l-18 -86h229l-39 -178h-227l-223 -1053q-43 -192 -133.5 -279.5t-235.5 -87.5q-95 0 -149 23v190q60 -20 114 -20q136 0 176 205l215 1022h-438l-223 -1053q-40 -189 -131 -278t-238 -89z" />
    <glyph glyph-name=".notdef" horiz-adv-x="1229" 
d="M297 104h633v1254h-633v-1254zM193 1462h841v-1462h-841v1462z" />
    <glyph glyph-name=".null" horiz-adv-x="0" 
 />
    <glyph glyph-name="nonmarkingreturn" horiz-adv-x="1044" 
 />
    <glyph glyph-name="space" unicode=" " horiz-adv-x="532" 
 />
    <glyph glyph-name="exclam" unicode="!" horiz-adv-x="557" 
d="M171 -27q-138 0 -138 135q0 68 45.5 118t116.5 50q139 0 139 -126q0 -79 -47 -128t-116 -49zM336 444h-176l168 1018h272z" />
    <glyph glyph-name="quotedbl" unicode="&#x22;" horiz-adv-x="858" 
d="M893 1462l-152 -528h-153l74 528h231zM516 1462l-151 -528h-152l72 528h231z" />
    <glyph glyph-name="numbersign" unicode="#" horiz-adv-x="1323" 
d="M526 586h250l82 286h-250zM1036 872l-84 -286h271l-15 -168h-303l-121 -418h-180l123 418h-248l-121 -418h-174l117 418h-250l17 168h280l84 286h-264l16 168h295l121 422h178l-121 -422h252l121 422h174l-121 -422h252l-14 -168h-285z" />
    <glyph glyph-name="dollar" unicode="$" 
d="M451 1016q0 -98 110 -139l68 319q-178 -22 -178 -180zM758 471q0 101 -115 145l-72 -331q86 11 136.5 60t50.5 126zM227 1006q0 167 118.5 267.5t324.5 117.5l37 163h135l-35 -165q161 -16 289 -82l-86 -185q-134 66 -244 74l-80 -371q128 -51 214.5 -116t86.5 -226
t-119.5 -266t-337.5 -125l-45 -211h-135l45 211q-197 13 -334 80v209q78 -42 179.5 -70t193.5 -30l84 387q-156 56 -223.5 138.5t-67.5 199.5z" />
    <glyph glyph-name="percent" unicode="%" horiz-adv-x="1688" 
d="M1606 595q0 -152 -55.5 -306.5t-146.5 -231.5t-211 -77t-186.5 77t-66.5 235t79.5 381.5t323.5 223.5q127 0 195 -75t68 -227zM1329 731q-52 0 -95.5 -57.5t-72 -171t-28.5 -221.5q0 -134 81 -134q52 0 96 58.5t73.5 174.5t29.5 220q0 131 -84 131zM1511 1462
l-1085 -1462h-195l1086 1462h194zM545 1483q260 -1 260 -305q0 -152 -55.5 -305.5t-146.5 -230.5t-211 -77t-185.5 78.5t-65.5 236.5t80 380.5t324 222.5zM530 1315q-55 0 -99 -61t-70.5 -173t-26.5 -215q0 -135 80 -135q110 0 154 175.5t44 277.5q0 131 -82 131z" />
    <glyph glyph-name="ampersand" unicode="&#x26;" horiz-adv-x="1411" 
d="M66 336q0 161 85.5 268t286.5 205q-88 151 -88 283q0 180 113 286.5t285 106.5t264 -81t92 -214t-89.5 -234t-293.5 -192l235 -326q109 112 181 295h233q-113 -270 -297 -454l205 -279h-277l-94 131q-200 -151 -440 -151q-190 0 -295.5 97.5t-105.5 258.5zM501 176
q151 0 298 109l-264 381q-133 -74 -181.5 -141.5t-48.5 -153.5t56 -140.5t140 -54.5zM881 1161q0 137 -146 137q-74 0 -121 -54t-47 -152t62 -191q147 75 199.5 133.5t52.5 126.5z" />
    <glyph glyph-name="quotesingle" unicode="'" horiz-adv-x="483" 
d="M516 1462l-151 -528h-152l72 528h231z" />
    <glyph glyph-name="parenleft" unicode="(" horiz-adv-x="639" 
d="M78 278q0 341 124.5 630.5t379.5 553.5h209q-498 -548 -498 -1190q0 -329 115 -596h-183q-147 261 -147 602z" />
    <glyph glyph-name="parenright" unicode=")" horiz-adv-x="639" 
d="M559 858q0 -340 -123 -627.5t-381 -554.5h-209q498 548 498 1190q0 327 -115 596h183q147 -264 147 -604z" />
    <glyph glyph-name="asterisk" unicode="*" horiz-adv-x="1122" 
d="M868 1524l-116 -367l403 23l-12 -205l-367 45l170 -361l-205 -61l-102 371l-227 -312l-162 144l293 266l-350 100l71 195l354 -178l37 383z" />
    <glyph glyph-name="plus" unicode="+" 
d="M496 631h-379v180h379v381h180v-381h377v-180h-377v-375h-180v375z" />
    <glyph glyph-name="comma" unicode="," horiz-adv-x="530" 
d="M334 238l8 -23q-125 -260 -266 -479h-178q105 238 200 502h236z" />
    <glyph glyph-name="hyphen" unicode="-" horiz-adv-x="649" 
d="M47 446l45 203h502l-45 -203h-502z" />
    <glyph glyph-name="period" unicode="." horiz-adv-x="551" 
d="M162 -29q-129 1 -129 139q0 68 47 117t117 49q137 0 137 -124q0 -78 -47.5 -129.5t-124.5 -51.5z" />
    <glyph glyph-name="slash" unicode="/" horiz-adv-x="788" 
d="M952 1462l-811 -1462h-233l811 1462h233z" />
    <glyph glyph-name="zero" unicode="0" 
d="M700 1288q-97 0 -180 -112t-136.5 -313t-53.5 -369t39 -243t134 -75t177.5 113.5t132 316.5t49.5 414q0 268 -162 268zM472 -20q-380 0 -380 515q0 260 83 502t223 365t324 123t281 -118.5t97 -354.5q0 -306 -79 -546.5t-219 -363t-330 -122.5z" />
    <glyph glyph-name="one" unicode="1" 
d="M637 0h-238l189 870q28 150 82 324q-57 -55 -135 -102l-187 -117l-106 170l508 317h198z" />
    <glyph glyph-name="two" unicode="2" 
d="M692 1483q181 0 288 -93t107 -251q0 -108 -39 -201t-123 -190.5t-284 -268.5l-311 -264v-8h622l-41 -207h-929l36 180l471 422q176 159 238.5 231t90.5 133.5t28 139.5t-49.5 127t-129.5 49t-149 -30t-170 -109l-115 160q223 180 459 180z" />
    <glyph glyph-name="three" unicode="3" 
d="M659 1286q-145 0 -309 -110l-104 161q120 81 225.5 113.5t226.5 32.5q183 0 286 -88.5t103 -244.5t-99 -261.5t-269 -136.5v-7q127 -24 196.5 -106t69.5 -210t-68 -231.5t-196.5 -160.5t-328.5 -57t-361 79v215q175 -102 356 -102q182 0 270 71.5t88 196.5
q0 219 -278 219h-133l37 183h106q164 0 267.5 74.5t103.5 199.5q0 79 -49.5 124.5t-139.5 45.5z" />
    <glyph glyph-name="four" unicode="4" 
d="M659 514l68 309q31 136 100 377h-8q-51 -86 -135 -186l-422 -500h397zM1047 317h-201l-68 -317h-229l69 317h-622l37 197l803 952h254l-201 -952h201z" />
    <glyph glyph-name="five" unicode="5" 
d="M610 907q181 0 288.5 -103.5t107.5 -275.5t-70 -293.5t-204 -188t-336 -66.5t-343 79v217q167 -100 341 -100t271 83t97 230q0 105 -62 168.5t-172 63.5t-241 -35l-88 68l200 708h713l-45 -209h-506l-106 -364q93 18 155 18z" />
    <glyph glyph-name="six" unicode="6" 
d="M525 174q86 0 148 48.5t96 134.5t34 188q0 200 -178 200q-95 0 -192.5 -82t-92.5 -245q0 -110 49.5 -177t135.5 -67zM111 436q0 216 60.5 416.5t218.5 415.5t540 215q117 0 203 -25l-43 -194q-72 22 -181 22q-405 0 -534 -522h6q125 170 326 170q156 0 243.5 -99
t87.5 -267t-68.5 -306.5t-185.5 -210t-270 -71.5q-194 0 -298.5 120t-104.5 336z" />
    <glyph glyph-name="seven" unicode="7" 
d="M125 0l754 1257h-674l43 205h932l-33 -168l-758 -1294h-264z" />
    <glyph glyph-name="eight" unicode="8" 
d="M647 866q240 90 240 255q0 88 -48.5 133.5t-134.5 45.5t-143 -56t-57 -144t39 -141.5t104 -92.5zM311 374q0 -98 59 -154t166 -56t176.5 64t69.5 161t-48.5 163.5t-139.5 119.5q-149 -54 -216 -127t-67 -171zM274 1088q0 178 127 287.5t318 109.5t295 -89t104 -239
q0 -265 -327 -393q120 -78 172.5 -165t52.5 -205t-61.5 -213.5t-175.5 -148t-271 -52.5q-203 0 -317.5 100t-114.5 268q0 297 368 432q-170 130 -170 308z" />
    <glyph glyph-name="nine" unicode="9" 
d="M387 928q1 -210 195 -211q102 0 183 94t81 221t-48 191.5t-132 64.5t-147.5 -47t-97.5 -130t-34 -183zM1079 1028q0 -216 -58 -425t-198 -416t-491 -207q-133 0 -240 32v207q121 -43 236 -43q188 0 306 123t177 389h-6q-113 -160 -291 -160t-269 102t-91 273t67 304
t186.5 204.5t274.5 71.5q192 0 294.5 -119.5t102.5 -335.5z" />
    <glyph glyph-name="colon" unicode=":" horiz-adv-x="551" 
d="M162 -29q-129 1 -129 139q0 68 47 117t117 49q137 0 137 -124q0 -78 -47.5 -129.5t-124.5 -51.5zM332 825q-127 1 -127 139q0 68 47 117t117 49q137 0 137 -124q0 -79 -48.5 -130t-125.5 -51z" />
    <glyph glyph-name="semicolon" unicode=";" horiz-adv-x="551" 
d="M332 825q-127 1 -127 139q0 68 47 117t117 49q137 0 137 -124q0 -79 -48.5 -130t-125.5 -51zM334 238l8 -23q-125 -260 -266 -479h-176q95 214 198 502h236z" />
    <glyph glyph-name="less" unicode="&#x3c;" 
d="M1051 221l-936 430v121l936 488v-195l-697 -344l697 -303v-197z" />
    <glyph glyph-name="equal" unicode="=" 
d="M117 430v180h936v-180h-936zM117 831v179h936v-179h-936z" />
    <glyph glyph-name="greater" unicode="&#x3e;" 
d="M115 418l694 303l-694 344v195l936 -488v-121l-936 -430v197z" />
    <glyph glyph-name="question" unicode="?" horiz-adv-x="907" 
d="M289 -27q-127 1 -127 137q0 68 47 117t117 49q137 0 137 -124q0 -79 -49 -129t-125 -50zM731 1139q0 59 -42.5 103t-121.5 44t-152 -27.5t-151 -64.5l-78 176q207 113 394 113t285 -85.5t98 -242.5q0 -120 -63.5 -217.5t-231.5 -216.5q-104 -74 -150 -133t-61 -144h-197
q18 133 71.5 220.5t168.5 171.5t154.5 123.5t58 80t18.5 99.5z" />
    <glyph glyph-name="at" unicode="@" horiz-adv-x="1743" 
d="M972 913q-69 0 -141.5 -53.5t-113.5 -144t-41 -193.5q0 -157 112 -157q161 0 242 292l64 240q-53 16 -122 16zM1706 850q0 -180 -59.5 -326.5t-166.5 -229.5t-222 -83q-205 0 -232 166h-6q-101 -166 -277 -166q-123 0 -189.5 78.5t-66.5 224.5t67.5 274t188 202.5
t263.5 74.5q91 0 151 -13t152 -44l-101 -392q-30 -114 -30 -159q0 -92 79 -92q72 0 134 66.5t97.5 174.5t35.5 230q0 228 -129 347.5t-353 119.5t-395 -99.5t-266.5 -281.5t-95.5 -424t140.5 -383.5t391.5 -141.5q200 0 430 86v-155q-219 -90 -441 -90t-379.5 83.5
t-242 239.5t-84.5 365q0 270 122.5 489t343 344t493.5 125q200 0 346 -74.5t223.5 -215t77.5 -320.5z" />
    <glyph glyph-name="A" unicode="A" horiz-adv-x="1210" 
d="M811 614q-51 530 -51 643q-55 -139 -142 -307l-172 -336h365zM827 406h-485l-209 -406h-254l783 1464h274l166 -1464h-234z" />
    <glyph glyph-name="B" unicode="B" horiz-adv-x="1247" 
d="M571 201q147 0 230.5 68t83.5 180t-60 163.5t-176 51.5h-200l-101 -463h223zM688 858q139 0 215 60.5t76 171.5q0 172 -223 172h-181l-86 -404h199zM778 1462q222 0 335.5 -84t113.5 -239t-86.5 -252t-239.5 -127v-8q108 -28 167.5 -103.5t59.5 -183.5q0 -217 -150 -341
t-417 -124h-491l309 1462h399z" />
    <glyph glyph-name="C" unicode="C" horiz-adv-x="1225" 
d="M919 1278q-149 0 -270 -89t-193.5 -259.5t-72.5 -362.5q0 -383 326 -383q141 0 329 68v-205q-180 -67 -374 -67q-248 0 -388.5 148.5t-140.5 412.5t105.5 487t281.5 339t398 116t393 -92l-94 -195q-151 82 -300 82z" />
    <glyph glyph-name="D" unicode="D" horiz-adv-x="1374" 
d="M483 201q177 0 309 86t202.5 242t70.5 348t-88 288.5t-256 96.5h-146l-227 -1061h135zM1311 897q0 -275 -100 -477t-291 -311t-449 -109h-401l309 1462h369q271 0 417 -145t146 -420z" />
    <glyph glyph-name="E" unicode="E" horiz-adv-x="1077" 
d="M846 0h-776l309 1462h776l-43 -205h-539l-84 -395h502l-41 -203h-504l-96 -456h539z" />
    <glyph glyph-name="F" unicode="F" horiz-adv-x="1026" 
d="M307 0h-237l309 1462h774l-43 -205h-537l-96 -454h502l-45 -203h-500z" />
    <glyph glyph-name="G" unicode="G" horiz-adv-x="1399" 
d="M135 538q0 266 102.5 484.5t290 339.5t421.5 121t423 -90l-90 -203q-174 86 -333 86t-288 -90.5t-203.5 -258t-74.5 -361.5t89 -288t253 -94q109 0 215 33l80 371h-277l43 205h512l-157 -736q-216 -77 -467 -77t-395 146t-144 412z" />
    <glyph glyph-name="H" unicode="H" horiz-adv-x="1411" 
d="M1110 0h-238l140 659h-566l-139 -659h-237l309 1462h237l-127 -598h566l127 598h237z" />
    <glyph glyph-name="I" unicode="I" horiz-adv-x="608" 
d="M70 0l311 1462h235l-311 -1462h-235z" />
    <glyph glyph-name="J" unicode="J" horiz-adv-x="612" 
d="M-152 -408q-104 0 -170 25l5 201q84 -21 153 -21q201 0 254 250l299 1415h238l-305 -1446q-46 -217 -161.5 -320.5t-312.5 -103.5z" />
    <glyph glyph-name="K" unicode="K" horiz-adv-x="1198" 
d="M1087 0h-262l-252 655l-149 -100l-117 -555h-237l309 1462h237l-151 -706l141 166l492 540h284l-616 -669z" />
    <glyph glyph-name="L" unicode="L" horiz-adv-x="1016" 
d="M70 0l309 1462h237l-266 -1257h539l-43 -205h-776z" />
    <glyph glyph-name="M" unicode="M" horiz-adv-x="1757" 
d="M647 0l-115 1214h-6q-9 -118 -55 -340l-184 -874h-219l309 1462h323l109 -1149h6l606 1149h344l-305 -1462h-227l182 872q39 186 86 342h-6l-643 -1214h-205z" />
    <glyph glyph-name="N" unicode="N" horiz-adv-x="1491" 
d="M1192 0h-260l-410 1163h-6l-10 -69q-24 -149 -35.5 -212.5t-183.5 -881.5h-219l309 1462h268l399 -1149h7q6 54 31 192.5t40 203.5l160 753h219z" />
    <glyph glyph-name="O" unicode="O" horiz-adv-x="1485" 
d="M875 1280q-141 0 -253 -96t-175.5 -266t-63.5 -358t81.5 -282t223.5 -94t252.5 95.5t172 265t61.5 357.5t-79 283t-220 95zM1421 915q0 -272 -95 -490t-261.5 -331.5t-406.5 -113.5t-381.5 149t-141.5 415t98.5 486.5t269.5 337.5t405 117t373.5 -149t139.5 -421z" />
    <glyph glyph-name="P" unicode="P" horiz-adv-x="1174" 
d="M713 1462q461 0 461 -401q0 -248 -169.5 -381t-472.5 -133h-110l-115 -547h-237l309 1462h334zM559 748q178 0 275.5 79.5t97.5 225.5q0 109 -58.5 159t-179.5 50h-119l-110 -514h94z" />
    <glyph glyph-name="Q" unicode="Q" horiz-adv-x="1485" 
d="M875 1280q-141 0 -253 -96t-175.5 -266t-63.5 -358t81.5 -282t223.5 -94t252.5 94t172 263t61.5 359t-79 285t-220 95zM1421 922q0 -322 -130 -563t-355 -332l264 -375h-289l-202 328h-31q-259 0 -401 149t-142 415t98.5 486.5t269.5 337.5t405 117t373.5 -149
t139.5 -414z" />
    <glyph glyph-name="R" unicode="R" horiz-adv-x="1206" 
d="M596 782q170 0 254 75t84 193t-59 164t-183 46h-119l-100 -478h123zM717 1462q461 0 461 -385q0 -165 -86.5 -278.5t-257.5 -165.5l249 -633h-260l-207 584h-186l-123 -584h-237l309 1462h338z" />
    <glyph glyph-name="S" unicode="S" horiz-adv-x="1057" 
d="M930 428q0 -210 -144.5 -329t-376.5 -119t-370 75v224q173 -97 330 -97t236 58.5t79 162.5q0 69 -41 122.5t-159 128.5t-194.5 159t-76.5 224t61.5 239t174 153t253.5 54q205 0 381 -92l-86 -191q-161 78 -283 78t-187.5 -58.5t-65.5 -149.5t46.5 -136.5t175.5 -126.5
t188 -171.5t59 -207.5z" />
    <glyph glyph-name="T" unicode="T" horiz-adv-x="1053" 
d="M528 0h-237l264 1257h-379l45 205h998l-43 -205h-381z" />
    <glyph glyph-name="U" unicode="U" horiz-adv-x="1399" 
d="M152 391q0 83 20 170l193 901h237l-192 -905q-21 -88 -21 -174t59.5 -142.5t192.5 -56.5t218 80.5t124 261.5l199 936h237l-202 -956q-110 -526 -594 -526q-234 0 -352.5 106t-118.5 305z" />
    <glyph glyph-name="V" unicode="V" horiz-adv-x="1165" 
d="M506 248q70 178 137 309l455 905h254l-764 -1462h-258l-144 1462h232l74 -905q9 -103 11 -233l-1 -76h4z" />
    <glyph glyph-name="W" unicode="W" horiz-adv-x="1788" 
d="M1317 0h-258l-37 842l-6 185l4 106h-6q-47 -144 -117 -291l-385 -842h-256l-53 1462h229l19 -850q0 -136 -13 -346h6q83 221 142 355l387 841h225l31 -839l3 -169l-3 -188h8q61 191 131 350l358 846h246z" />
    <glyph glyph-name="X" unicode="X" horiz-adv-x="1151" 
d="M1040 0h-256l-192 592l-438 -592h-265l586 770l-250 692h246l178 -540l402 540h266l-551 -710z" />
    <glyph glyph-name="Y" unicode="Y" horiz-adv-x="1092" 
d="M582 793l432 669h266l-623 -913l-114 -549h-238l119 553l-238 909h242z" />
    <glyph glyph-name="Z" unicode="Z" horiz-adv-x="1092" 
d="M901 0h-940l33 168l850 1087h-598l43 207h897l-35 -172l-852 -1085h645z" />
    <glyph glyph-name="bracketleft" unicode="[" horiz-adv-x="631" 
d="M403 -324h-430l381 1786h430l-39 -176h-221l-303 -1433h221z" />
    <glyph glyph-name="backslash" unicode="\" horiz-adv-x="788" 
d="M428 1462l219 -1462h-209l-217 1462h207z" />
    <glyph glyph-name="bracketright" unicode="]" horiz-adv-x="631" 
d="M-106 -147h219l305 1433h-221l39 176h430l-381 -1786h-428z" />
    <glyph glyph-name="asciicircum" unicode="^" horiz-adv-x="1069" 
d="M37 537l608 933h127l272 -933h-184l-188 690l-434 -690h-201z" />
    <glyph glyph-name="underscore" unicode="_" horiz-adv-x="813" 
d="M629 -324h-817l30 140h817z" />
    <glyph glyph-name="grave" unicode="`" horiz-adv-x="1135" 
d="M918 1241h-144q-65 63 -132 151.5t-101 155.5v21h245q47 -154 132 -303v-25z" />
    <glyph glyph-name="a" unicode="a" horiz-adv-x="1186" 
d="M332 373q0 -203 158 -203q77 0 156 77.5t130 207.5t51 284q0 88 -47.5 141.5t-127.5 53.5t-155 -77t-120 -209.5t-45 -274.5zM623 1126q196 0 276 -178h10l62 158h180l-236 -1106h-182l21 176h-6q-158 -196 -349 -196q-141 0 -223 101.5t-82 294.5t69.5 369t191.5 278.5
t268 102.5z" />
    <glyph glyph-name="b" unicode="b" horiz-adv-x="1200" 
d="M369 395q0 -225 131.5 -225t205.5 78.5t117 210t43 274.5q0 201 -155 201q-81 0 -162 -80t-130.5 -210.5t-49.5 -248.5zM578 -20q-197 0 -279 176h-10l-64 -156h-178l330 1556h235l-71 -333q-31 -149 -78 -297h8q90 113 165 156.5t161 43.5q145 0 226 -103.5t81 -295.5
t-69.5 -369.5t-190.5 -277.5t-266 -100z" />
    <glyph glyph-name="c" unicode="c" horiz-adv-x="954" 
d="M550 170q106 0 261 76v-195q-141 -71 -321 -71t-288 106t-108 308t73.5 371.5t207 265t299.5 95.5t299 -61l-70 -184q-122 53 -221 53q-150 0 -250 -153.5t-100 -379.5q0 -111 56 -171t162 -60z" />
    <glyph glyph-name="d" unicode="d" horiz-adv-x="1198" 
d="M489 170q82 0 162.5 82t129 214t48.5 245q0 223 -176 223q-85 0 -159 -77t-118 -211t-44 -273q0 -203 157 -203zM623 1126q179 0 268 -178h8q13 146 37 250l76 358h233l-330 -1556h-184l19 176h-7q-88 -106 -170 -151t-174 -45q-143 0 -224 101t-81 297t71.5 374
t191.5 276t266 98z" />
    <glyph glyph-name="e" unicode="e" horiz-adv-x="1075" 
d="M332 401q0 -237 236 -237q123 0 300 84v-187q-177 -81 -365 -81t-298.5 111t-110.5 309t77.5 369t210 264t294.5 93t252 -72.5t90 -205.5q0 -182 -166.5 -284.5t-474.5 -102.5h-43l-2 -31v-29zM664 946q-96 0 -180.5 -86t-121.5 -227h29q188 0 294 53.5t106 151.5
q0 51 -32 79.5t-95 28.5z" />
    <glyph glyph-name="f" unicode="f" horiz-adv-x="702" 
d="M-76 -492q-90 0 -149 23v190q64 -20 114 -20q134 0 177 205l217 1022h-179l21 106l194 76l21 92q44 198 134.5 281.5t256.5 83.5q115 0 211 -43l-61 -176q-73 28 -139 28t-107.5 -43t-63.5 -141l-18 -86h229l-37 -178h-229l-223 -1053q-40 -189 -131 -278t-238 -89z" />
    <glyph glyph-name="g" unicode="g" horiz-adv-x="1067" 
d="M594 969q-65 0 -141 -59.5t-76 -229.5q0 -71 35.5 -109.5t101.5 -38.5t113 39t73.5 107t26.5 149q0 142 -133 142zM92 -178q0 -148 225 -148q163 0 255 54t92 155q0 51 -45 80t-158 41l-137 14q-112 -18 -172 -71t-60 -125zM948 799q0 -193 -119 -306.5t-319 -113.5
q-52 0 -92 8q-111 -40 -111 -104q0 -38 31.5 -52t91.5 -22l127 -16q176 -22 252 -87.5t76 -187.5q0 -196 -151 -303t-429 -107q-203 0 -314.5 75t-111.5 206q0 103 69.5 178t223.5 127q-76 44 -76 120t46.5 126.5t146.5 97.5q-135 80 -135 264t122.5 304t323.5 120
q80 0 160 -20h383l-31 -137l-192 -33q28 -58 28 -137z" />
    <glyph glyph-name="h" unicode="h" horiz-adv-x="1208" 
d="M817 1126q136 0 208.5 -77.5t72.5 -221.5q0 -76 -23 -174l-139 -653h-234l142 672q18 90 18 127q0 135 -129 135q-112 0 -209.5 -125t-142.5 -342l-98 -467h-236l330 1556h235l-57 -262q-27 -126 -73 -293l-19 -75h8q158 200 346 200z" />
    <glyph glyph-name="i" unicode="i" horiz-adv-x="563" 
d="M283 0h-236l236 1106h235zM453 1270q-123 0 -123 114q0 62 39 104t101 42q128 0 128 -107q0 -71 -40 -112t-105 -41z" />
    <glyph glyph-name="j" unicode="j" horiz-adv-x="563" 
d="M453 1270q-121 0 -121 108q0 68 38 110t100 42q128 0 128 -107q0 -71 -40 -112t-105 -41zM-113 -492q-90 0 -149 23v190q64 -20 117 -20q131 0 170 186l260 1219h233l-266 -1247q-38 -181 -127.5 -266t-237.5 -85z" />
    <glyph glyph-name="k" unicode="k" horiz-adv-x="1081" 
d="M887 1106h272l-483 -485l291 -621h-262l-209 471l-136 -96l-77 -375h-236l330 1556h235q-135 -627 -159.5 -729.5t-59.5 -226.5h4z" />
    <glyph glyph-name="l" unicode="l" horiz-adv-x="563" 
d="M281 0h-234l330 1556h235z" />
    <glyph glyph-name="m" unicode="m" horiz-adv-x="1819" 
d="M1069 891q152 235 384 235q118 0 187.5 -76.5t69.5 -215.5q0 -64 -22 -181l-140 -653h-235l143 672q19 95 19 133q0 129 -121 129q-108 0 -201.5 -124t-136.5 -329l-101 -481h-235l143 672q17 82 17 127q0 135 -117 135q-110 0 -203.5 -127t-138.5 -338l-98 -469h-236
l236 1106h184l-21 -205h9q148 225 360 225t246 -235h8z" />
    <glyph glyph-name="n" unicode="n" horiz-adv-x="1208" 
d="M817 1126q134 0 207.5 -76t73.5 -216q0 -69 -23 -181l-137 -653h-236l142 672q18 90 18 131q0 131 -129 131q-72 0 -142 -57t-126 -164.5t-84 -243.5l-98 -469h-236l236 1106h184l-21 -205h9q158 225 362 225z" />
    <glyph glyph-name="o" unicode="o" horiz-adv-x="1174" 
d="M1079 691q0 -201 -73 -366.5t-200.5 -254t-306.5 -88.5t-292 114.5t-113 312.5t71.5 364t200.5 258.5t311 92.5t292 -116t110 -317zM842 682q0 248 -189 248q-93 0 -166.5 -71.5t-114 -194t-40.5 -247.5q0 -243 196 -243q90 0 162 68t112 190.5t40 249.5z" />
    <glyph glyph-name="p" unicode="p" horiz-adv-x="1200" 
d="M369 395q0 -225 131.5 -225t205.5 78.5t117 210t43 274.5q0 201 -155 201q-81 0 -161 -79.5t-130.5 -210.5t-50.5 -249zM578 -20q-181 0 -269 176h-10q-7 -97 -25 -185l-96 -463h-233l338 1598h184l-21 -188h9q157 208 344 208q143 0 224 -103t81 -297t-70 -371
t-190.5 -276t-265.5 -99z" />
    <glyph glyph-name="q" unicode="q" horiz-adv-x="1198" 
d="M492 170q80 0 159 81t127.5 213t48.5 248q0 222 -172 222q-86 0 -160 -77.5t-118.5 -209.5t-44.5 -274q0 -203 160 -203zM625 1126q183 0 274 -178h10l64 158h178l-340 -1598h-233l75 349q12 56 43.5 180t38.5 141h-8q-84 -108 -164 -153t-170 -45q-139 0 -219 102.5
t-80 297.5t73 374t192.5 275.5t265.5 96.5z" />
    <glyph glyph-name="r" unicode="r" horiz-adv-x="836" 
d="M782 1126q78 0 123 -12l-51 -219q-54 14 -102 14q-126 0 -225 -113t-138 -296l-106 -500h-236l236 1106h184l-21 -205h9q156 225 327 225z" />
    <glyph glyph-name="s" unicode="s" horiz-adv-x="922" 
d="M782 340q0 -173 -118 -266.5t-318 -93.5t-332 67v203q153 -90 312 -90q97 0 157 40t60 100t-34.5 96.5t-150.5 100.5t-167.5 133.5t-51.5 164.5q0 155 107 243t296 88t339 -84l-76 -176q-140 76 -266 76q-73 0 -118.5 -33t-45.5 -85t32.5 -87t136.5 -92t171 -121t67 -184
z" />
    <glyph glyph-name="t" unicode="t" horiz-adv-x="752" 
d="M354 261q0 -91 110 -91q60 0 142 31v-178q-89 -43 -215 -43q-274 0 -274 247q0 57 16 131l121 570h-162l21 110l190 82l129 232h146l-52 -246h279l-39 -178h-277l-122 -572q-13 -55 -13 -95z" />
    <glyph glyph-name="u" unicode="u" horiz-adv-x="1208" 
d="M111 274q0 63 12 124.5t24 123.5l123 584h236l-129 -610q-31 -141 -31 -193q0 -133 127 -133q72 0 182.5 88.5t171.5 378.5l99 469h233l-233 -1106h-185l21 205h-8q-159 -225 -363 -225q-134 0 -207 76t-73 218z" />
    <glyph glyph-name="v" unicode="v" horiz-adv-x="997" 
d="M401 211h7q66 173 135 297l311 598h250l-598 -1106h-275l-131 1106h232l55 -598q14 -159 14 -297z" />
    <glyph glyph-name="w" unicode="w" horiz-adv-x="1540" 
d="M827 897q-57 -141 -397 -897h-262l-47 1106h221l13 -646q-2 -87 -11 -245h6q66 176 109 272l278 619h254l19 -604l1 -53l-3 -234h6q67 196 105.5 286.5t266.5 604.5h244l-518 -1106h-268l-19 627l-1 70z" />
    <glyph glyph-name="x" unicode="x" horiz-adv-x="1032" 
d="M489 387l-305 -387h-270l475 569l-231 537h245l144 -373l287 373h274l-461 -549l248 -557h-246z" />
    <glyph glyph-name="y" unicode="y" horiz-adv-x="1004" 
d="M418 219h6q86 215 135 313l293 574h254l-688 -1280q-90 -165 -196 -241.5t-249 -76.5q-76 0 -143 19v188q75 -16 137 -16t122 43.5t124 155.5l51 92l-164 1116h232l63 -531q23 -158 23 -356z" />
    <glyph glyph-name="z" unicode="z" horiz-adv-x="920" 
d="M719 0h-758l29 147l635 781h-439l39 178h705l-37 -170l-623 -758h486z" />
    <glyph glyph-name="braceleft" unicode="{" horiz-adv-x="721" 
d="M457 -324q-316 0 -316 236q0 61 17 133l45 201q14 65 14 98q0 141 -209 141l39 187q120 0 191.5 42.5t93.5 143.5l59 275q28 134 73 201.5t120 97.5t198 30h60l-41 -184q-96 0 -139.5 -34t-61.5 -116l-70 -309q-24 -108 -87 -170.5t-179 -79.5v-6q160 -45 160 -215
q0 -38 -16 -121l-43 -194q-11 -49 -11 -87q0 -86 142 -85v-185h-39z" />
    <glyph glyph-name="bar" unicode="|" 
d="M498 1552h178v-2033h-178v2033z" />
    <glyph glyph-name="braceright" unicode="}" horiz-adv-x="721" 
d="M270 1462q318 0 318 -235q0 -61 -17 -133l-45 -203q-14 -65 -14 -98q0 -142 209 -142l-39 -186q-121 0 -192 -42t-93 -142l-63 -306q-34 -165 -123.5 -232t-269.5 -67h-29v183q106 2 152.5 36.5t64.5 114.5l70 309q24 109 87 170t179 78v6q-158 48 -158 215q0 55 17 121
l43 197q10 44 10 74q0 58 -43 78t-121 20l35 184h22z" />
    <glyph glyph-name="asciitilde" unicode="~" 
d="M344 692q-110 0 -233 -121v191q100 108 249 108q117 0 226 -46t153.5 -59t94.5 -13t112.5 31t120.5 89v-190q-103 -111 -250 -111q-108 1 -250 61q-143 60 -223 60z" />
    <glyph glyph-name="nonbreakingspace" unicode="&#xa0;" horiz-adv-x="532" 
 />
    <glyph glyph-name="exclamdown" unicode="&#xa1;" horiz-adv-x="557" 
d="M397 1118q125 0 125 -138q0 -67 -47 -117t-117 -50q-138 0 -137 123q0 82 49 132t127 50zM221 645h174l-166 -1018h-274z" />
    <glyph glyph-name="cent" unicode="&#xa2;" 
d="M432 614q0 -247 219 -247q107 0 260 75v-194q-133 -69 -293 -74l-40 -194h-156l45 213q-272 70 -272 409q0 174 63.5 335t178 260.5t261.5 121.5l35 164h156l-37 -164q124 -12 221 -57l-69 -185q-125 53 -223 53t-179 -71.5t-125.5 -194.5t-44.5 -250z" />
    <glyph glyph-name="sterling" unicode="&#xa3;" 
d="M858 1483q186 0 350 -86l-88 -183q-143 74 -258 74q-185 0 -227 -205l-57 -278h333l-34 -172h-336l-33 -152q-42 -194 -199 -274h690l-45 -207h-972l38 193q200 45 250 276l35 164h-196l36 172h197l61 299q38 185 153.5 282t301.5 97z" />
    <glyph glyph-name="currency" unicode="&#xa4;" 
d="M377 723q0 -91 62.5 -154t154.5 -63t156.5 62t64.5 155t-64.5 156t-156.5 63t-154.5 -64t-62.5 -155zM209 722q0 111 61 206l-129 129l119 119l127 -127q103 61 209 61t205 -63l127 129l121 -117l-129 -129q61 -99 61 -210t-61 -206l127 -125l-119 -119l-127 127
q-95 -59 -211 -59t-203 59l-127 -125l-117 119l127 125q-61 95 -61 206z" />
    <glyph glyph-name="yen" unicode="&#xa5;" 
d="M594 793l432 669h248l-518 -760h217l-35 -155h-274l-31 -148h274l-33 -155h-272l-53 -244h-221l51 244h-273l33 155h273l30 148h-272l35 155h211l-199 760h232z" />
    <glyph glyph-name="brokenbar" unicode="&#xa6;" 
d="M498 315h178v-796h-178v796zM498 1552h178v-794h-178v794z" />
    <glyph glyph-name="section" unicode="&#xa7;" horiz-adv-x="995" 
d="M358 794q0 -62 46.5 -105.5t173.5 -100.5q62 36 99.5 90.5t37.5 114.5t-49.5 104.5t-155.5 89.5q-69 -26 -110.5 -78.5t-41.5 -114.5zM807 319q0 -157 -122.5 -245t-320.5 -88t-325 67v187q152 -93 319 -93q116 0 174 40.5t58 111.5q0 43 -39 79.5t-155 90.5
q-234 109 -234 296t219 306q-109 74 -109 205q0 130 111 212.5t293 82.5t336 -78l-68 -158q-154 72 -257 72t-151.5 -34.5t-48.5 -86.5t36.5 -85t156.5 -86q238 -106 238 -294t-213 -309q102 -76 102 -193z" />
    <glyph glyph-name="dieresis" unicode="&#xa8;" horiz-adv-x="1135" 
d="M942 1516q105 0 105 -95q0 -65 -35.5 -102t-87.5 -37q-114 0 -115 98q0 60 35 98t98 38zM559 1516q105 0 105 -95q0 -65 -36 -102t-88 -37q-114 0 -114 98q0 60 35 98t98 38z" />
    <glyph glyph-name="copyright" unicode="&#xa9;" horiz-adv-x="1704" 
d="M254 730q0 -168 83 -312t229 -230t318 -86t318.5 87t227.5 231t81 310t-82 311.5t-227.5 232t-315.5 86.5t-317 -84.5t-231 -231t-84 -314.5zM131 732q0 199 100 374t275.5 276t375.5 101t374.5 -99t276 -275.5t101.5 -376.5t-98.5 -374t-273 -276t-380.5 -102
t-381 103.5t-272.5 276.5t-97.5 372zM930 426q103 0 221 51v-158q-117 -51 -240 -51q-197 0 -303 123.5t-106 337.5t113.5 338.5t312.5 124.5q138 0 266 -66l-68 -147q-106 55 -208 55t-164 -76t-62 -231q0 -301 238 -301z" />
    <glyph glyph-name="ordfeminine" unicode="&#xaa;" horiz-adv-x="729" 
d="M412 897q50 0 97.5 48t77 127.5t29.5 158.5q0 119 -102 119q-82 0 -138.5 -97.5t-56.5 -226.5t93 -129zM508 1479q103 0 156 -103h6l39 90h118l-147 -684h-123l10 105h-4q-50 -62 -98 -89.5t-124 -27.5t-128.5 66t-52.5 187t47 231.5t122.5 167.5t178.5 57z" />
    <glyph glyph-name="guillemotleft" unicode="&#xab;" horiz-adv-x="1055" 
d="M520 555l385 434l137 -112l-280 -351l147 -350l-180 -76l-209 430v25zM80 575l395 420l135 -118l-288 -332l153 -369l-178 -76l-217 453v22z" />
    <glyph glyph-name="logicalnot" unicode="&#xac;" 
d="M1053 811v-555h-179v375h-757v180h936z" />
    <glyph glyph-name="uni00AD" unicode="&#xad;" horiz-adv-x="649" 
d="M47 446l45 203h502l-45 -203h-502z" />
    <glyph glyph-name="registered" unicode="&#xae;" horiz-adv-x="1704" 
d="M786 760h72q84 0 129 36t45 104t-45.5 96t-128.5 28h-72v-264zM1214 907q0 -168 -176 -243l211 -373h-200l-172 325h-91v-325h-178v878h269q337 0 337 -262zM254 730q0 -168 83 -312t229 -230t318 -86t318.5 87t227.5 231t81 310t-82 311.5t-227.5 232t-315.5 86.5
t-317 -84.5t-231 -231t-84 -314.5zM131 732q0 199 100 374t275.5 276t375.5 101t374.5 -99t276 -275.5t101.5 -376.5t-98.5 -374t-273 -276t-380.5 -102t-381 103.5t-272.5 276.5t-97.5 372z" />
    <glyph glyph-name="overscore" unicode="&#xaf;" horiz-adv-x="903" 
d="M1020 1556h-909l39 166h911z" />
    <glyph glyph-name="degree" unicode="&#xb0;" horiz-adv-x="877" 
d="M340 1156q0 -72 52 -124.5t125 -52.5t125 52t52 124t-51 124t-125 52t-126 -51.5t-52 -123.5zM188 1153q0 136 97 233t233 97t232 -97.5t96 -233.5t-96 -230.5t-232 -94.5q-88 0 -165 44t-121 119t-44 163z" />
    <glyph glyph-name="plusminus" unicode="&#xb1;" 
d="M117 0v180h936v-180h-936zM496 657h-379v181h379v381h180v-381h377v-181h-377v-374h-180v374z" />
    <glyph glyph-name="twosuperior" unicode="&#xb2;" horiz-adv-x="745" 
d="M532 1481q115 0 183.5 -60t68.5 -142t-23.5 -137.5t-74 -110.5t-168.5 -146l-174 -142h371l-33 -157h-604l28 135l269 223q111 95 166 155t55 119q0 111 -104 111q-91 0 -191 -80l-80 123q137 109 311 109z" />
    <glyph glyph-name="threesuperior" unicode="&#xb3;" horiz-adv-x="745" 
d="M784 1272q0 -181 -213 -234v-4q78 -18 115 -67t37 -115q0 -129 -99.5 -206t-253.5 -77t-266 56v159q126 -71 232 -71q205 0 205 143q0 113 -146 113h-108l28 133h93q89 0 142.5 34t53.5 99q0 100 -117 100q-92 0 -188 -65l-68 121q127 90 271 90t213 -55.5t69 -153.5z
" />
    <glyph glyph-name="acute" unicode="&#xb4;" horiz-adv-x="1135" 
d="M997 1569v-19q-54 -66 -158 -161.5t-175 -147.5h-156v25q97 108 225 303h264z" />
    <glyph glyph-name="mu" unicode="&#xb5;" horiz-adv-x="1221" 
d="M358 297q0 -55 33 -91t96 -36q113 0 209.5 125.5t141.5 337.5l102 473h231l-235 -1106h-184l22 190h-10q-142 -210 -318 -210q-108 0 -155 81h-8q-9 -73 -39 -235l-66 -318h-233l338 1598h235l-141 -670q-19 -84 -19 -139z" />
    <glyph glyph-name="paragraph" unicode="&#xb6;" horiz-adv-x="1341" 
d="M1204 -260h-139v1638h-188v-1638h-140v819q-62 -18 -145 -18q-216 0 -318 124.5t-102 380.5t109 383t342 127h581v-1816z" />
    <glyph glyph-name="periodcentered" unicode="&#xb7;" horiz-adv-x="551" 
d="M279 569q-129 1 -129 139q0 68 47 116q47 50 117 50q137 0 137 -124q1 -78 -47 -130t-125 -51z" />
    <glyph glyph-name="cedilla" unicode="&#xb8;" horiz-adv-x="420" 
d="M236 -257q0 -113 -82 -174t-224 -61q-64 0 -118 15v135q47 -14 96 -14q137 0 137 96q0 74 -139 92l98 168h146l-50 -96q136 -48 136 -161z" />
    <glyph glyph-name="onesuperior" unicode="&#xb9;" horiz-adv-x="745" 
d="M532 1462h162l-186 -876h-191l99 461q17 79 57 217q-51 -49 -203 -146l-77 129z" />
    <glyph glyph-name="ordmasculine" unicode="&#xba;" horiz-adv-x="721" 
d="M510 1346q-81 0 -132.5 -87.5t-51.5 -222.5t112 -135q77 0 127.5 87.5t50.5 222.5t-106 135zM776 1208q0 -128 -42 -227t-121 -155t-195 -56t-185 73t-69 199t44 226t125 155.5t197 55.5t181 -71.5t65 -199.5z" />
    <glyph glyph-name="guillemotright" unicode="&#xbb;" horiz-adv-x="1055" 
d="M535 530l-385 -432l-140 113l281 348l-146 352l179 76l211 -432v-25zM975 510l-397 -418l-134 119l287 330l-153 370l180 76l217 -455v-22z" />
    <glyph glyph-name="onequarter" unicode="&#xbc;" horiz-adv-x="1661" 
d="M1429 1462l-1083 -1462h-197l1085 1462h195zM490 1462h162l-186 -876h-191l99 461q17 79 57 217q-51 -49 -203 -146l-77 129zM1172 320l52 221l34 129q-32 -51 -98 -131l-187 -219h199zM1448 177h-122l-39 -176h-183l39 176h-368l26 137l477 569h197l-121 -563h123z" />
    <glyph glyph-name="onehalf" unicode="&#xbd;" horiz-adv-x="1661" 
d="M1401 1462l-1083 -1462h-197l1085 1462h195zM461 1462h162l-186 -876h-191l99 461q17 79 57 217q-51 -49 -203 -146l-77 129zM1566 694q0 -82 -24 -138t-74 -110q-50 -55 -168 -146l-174 -142h371l-33 -157h-604l28 135l269 223q111 95 149 136q72 79 72 138
q0 111 -104 111q-91 0 -191 -80l-80 123q137 109 311 109q116 0 184 -60t68 -142z" />
    <glyph glyph-name="threequarters" unicode="&#xbe;" horiz-adv-x="1683" 
d="M1571 1462l-1083 -1462h-197l1085 1462h195zM1278 320l52 221l34 129q-32 -51 -98 -131l-187 -219h199zM1554 177h-122l-39 -176h-183l39 176h-368l26 137l477 569h197l-121 -563h123zM788 1272q0 -181 -213 -234v-4q78 -18 115 -67t37 -115q1 -129 -99 -206t-254 -77
t-266 56v159q126 -71 232 -71q205 0 205 143q0 113 -146 113h-108l28 133h93q88 0 142 34t54 99q0 100 -117 100q-92 0 -188 -65l-68 121q127 90 271 90q144 1 213 -55t69 -154z" />
    <glyph glyph-name="questiondown" unicode="&#xbf;" horiz-adv-x="907" 
d="M637 1114q129 0 129 -137q0 -69 -48 -118.5t-117 -49.5q-136 0 -136 125q0 78 46.5 129t125.5 51zM197 -52q0 -60 42.5 -103.5t120.5 -43.5t151.5 27.5t152.5 65.5l75 -177q-205 -112 -394 -112t-284.5 85.5t-95.5 223.5t64 237t231 216q93 64 141 122.5t70 153.5h197
q-25 -146 -79.5 -231t-166.5 -166t-150 -120t-56.5 -78.5t-18.5 -99.5z" />
    <glyph glyph-name="Agrave" unicode="&#xc0;" horiz-adv-x="1210" 
d="M811 614q-51 530 -51 643q-55 -139 -142 -307l-172 -336h365zM827 406h-485l-209 -406h-254l783 1464h274l166 -1464h-234zM915 1579h-144q-65 63 -132 151t-101 156v21h245q47 -154 132 -303v-25z" />
    <glyph glyph-name="Aacute" unicode="&#xc1;" horiz-adv-x="1210" 
d="M811 614q-51 530 -51 643q-55 -139 -142 -307l-172 -336h365zM827 406h-485l-209 -406h-254l783 1464h274l166 -1464h-234zM1196 1907v-19q-54 -66 -158 -162t-175 -147h-156v25q97 108 225 303h264z" />
    <glyph glyph-name="Acircumflex" unicode="&#xc2;" horiz-adv-x="1210" 
d="M811 614q-51 530 -51 643q-55 -139 -142 -307l-172 -336h365zM827 406h-485l-209 -406h-254l783 1464h274l166 -1464h-234zM1157 1579h-152q-76 63 -161 178q-131 -110 -236 -178h-164v25q231 215 291 303h248q38 -99 174 -303v-25z" />
    <glyph glyph-name="Atilde" unicode="&#xc3;" horiz-adv-x="1210" 
d="M811 614q-51 530 -51 643q-55 -139 -142 -307l-172 -336h365zM827 406h-485l-209 -406h-254l783 1464h274l166 -1464h-234zM684 1688q-70 0 -106 -111h-137q57 285 256 285q67 0 157 -56q34 -20 64 -38t64 -17t60 27q25 26 48 86h137q-66 -285 -260 -285q-64 1 -154 55
q-33 20 -65 37t-64 17z" />
    <glyph glyph-name="Adieresis" unicode="&#xc4;" horiz-adv-x="1210" 
d="M811 614q-51 530 -51 643q-55 -139 -142 -307l-172 -336h365zM827 406h-485l-209 -406h-254l783 1464h274l166 -1464h-234zM1034 1854q105 0 105 -95q1 -65 -35 -102t-88 -37q-114 0 -115 98q0 60 35 98t98 38zM651 1854q105 0 105 -95q0 -65 -36 -102t-88 -37
q-114 0 -114 98q0 60 35 98t98 38z" />
    <glyph glyph-name="Aring" unicode="&#xc5;" horiz-adv-x="1210" 
d="M811 614q-51 530 -51 643q-55 -139 -142 -307l-172 -336h365zM568 1573q0 103 65 165t169 61t170 -61q67 -60 67 -174t-94 -177l157 -1387h-234l-41 406h-485l-209 -406h-254l753 1408q-64 62 -64 165zM697 1573q0 -104 104 -104q47 -1 77 27t30 78t-30 78t-76 28
t-76 -28t-29 -79z" />
    <glyph glyph-name="AE" unicode="&#xc6;" horiz-adv-x="1753" 
d="M872 614l138 643h-82l-400 -643h344zM1520 0h-777l86 406h-432l-256 -406h-262l930 1462h1020l-43 -205h-539l-84 -395h504l-43 -200h-502l-98 -459h539z" />
    <glyph glyph-name="Ccedilla" unicode="&#xc7;" horiz-adv-x="1225" 
d="M919 1278q-149 0 -270 -89t-193 -259t-73 -363q0 -383 326 -383q141 0 329 68v-205q-166 -62 -343 -67l-40 -76q136 -47 136 -161q0 -113 -82 -174t-224 -61q-64 0 -118 15v135q47 -14 96 -14q137 0 137 96q0 74 -139 92l91 156q-170 26 -276 140q-140 148 -141 413
q-1 264 105 487t282 339t398 116t393 -92l-94 -195q-151 82 -300 82z" />
    <glyph glyph-name="Egrave" unicode="&#xc8;" horiz-adv-x="1077" 
d="M846 0h-776l309 1462h776l-43 -205h-539l-84 -395h502l-41 -203h-504l-96 -456h539zM903 1579h-144q-65 63 -132 151t-101 156v21h245q47 -154 132 -303v-25z" />
    <glyph glyph-name="Eacute" unicode="&#xc9;" horiz-adv-x="1077" 
d="M846 0h-776l309 1462h776l-43 -205h-539l-84 -395h502l-41 -203h-504l-96 -456h539zM1122 1907v-19q-54 -66 -158 -162t-175 -147h-156v25q97 108 225 303h264z" />
    <glyph glyph-name="Ecircumflex" unicode="&#xca;" horiz-adv-x="1077" 
d="M846 0h-776l309 1462h776l-43 -205h-539l-84 -395h502l-41 -203h-504l-96 -456h539zM1130 1579h-152q-76 63 -161 178q-131 -110 -236 -178h-164v25q231 215 291 303h248q38 -99 174 -303v-25z" />
    <glyph glyph-name="Edieresis" unicode="&#xcb;" horiz-adv-x="1077" 
d="M846 0h-776l309 1462h776l-43 -205h-539l-84 -395h502l-41 -203h-504l-96 -456h539zM995 1854q105 0 105 -95q0 -65 -36 -102t-88 -37q-114 0 -114 98q0 60 35 98t98 38zM612 1854q105 0 105 -95q1 -65 -35 -102t-88 -37q-114 0 -115 98q0 60 35 98t98 38z" />
    <glyph glyph-name="Igrave" unicode="&#xcc;" horiz-adv-x="608" 
d="M70 0l311 1462h235l-311 -1462h-235zM630 1579h-144q-65 63 -132 151t-101 156v21h245q47 -154 132 -303v-25z" />
    <glyph glyph-name="Iacute" unicode="&#xcd;" horiz-adv-x="608" 
d="M70 0l311 1462h235l-311 -1462h-235zM904 1907v-19q-54 -66 -158 -162t-175 -147h-156v25q97 108 225 303h264z" />
    <glyph glyph-name="Icircumflex" unicode="&#xce;" horiz-adv-x="608" 
d="M70 0l311 1462h235l-311 -1462h-235zM873 1579h-152q-76 63 -161 178q-131 -110 -236 -178h-164v25q231 215 291 303h248q38 -99 174 -303v-25z" />
    <glyph glyph-name="Idieresis" unicode="&#xcf;" horiz-adv-x="608" 
d="M70 0l311 1462h235l-311 -1462h-235zM759 1854q105 0 105 -95q0 -65 -36 -102t-88 -37q-114 0 -114 98q0 60 35 98t98 38zM376 1854q105 0 105 -95q1 -65 -35 -102t-88 -37q-114 0 -115 98q0 60 35 98t98 38z" />
    <glyph glyph-name="Eth" unicode="&#xd0;" horiz-adv-x="1374" 
d="M483 201q177 0 309 86t202.5 242t70.5 348t-88 288.5t-256 96.5h-146l-94 -439h285l-45 -200h-283l-90 -422h135zM1311 897q0 -275 -100 -477t-291 -311t-449 -109h-401l129 623h-146l45 200h144l137 639h369q271 0 417 -145t146 -420z" />
    <glyph glyph-name="Ntilde" unicode="&#xd1;" horiz-adv-x="1491" 
d="M1192 0h-260l-410 1163h-6l-10 -69q-24 -148 -36 -212t-183 -882h-219l309 1462h268l399 -1149h7q6 55 31 193t40 203l160 753h219zM825 1688q-70 0 -106 -111h-137q57 285 256 285q68 0 158 -56q34 -20 63 -38q31 -18 65 -17t59 27t48 86h137q-66 -285 -260 -285
q-64 1 -154 55q-34 20 -66 37t-63 17z" />
    <glyph glyph-name="Ograve" unicode="&#xd2;" horiz-adv-x="1485" 
d="M875 1280q-141 0 -253 -96t-176 -266t-63 -358q-1 -188 81 -282t224 -94t252 96t172 264q62 170 62 358t-79 283t-220 95zM1421 915q0 -272 -95 -490q-96 -217 -262 -331t-406 -114t-381 150q-142 150 -142 414q1 266 99 486t269 338q171 117 405 117t374 -149t139 -421z
M1029 1579h-144q-65 63 -132 151t-101 156v21h245q47 -154 132 -303v-25z" />
    <glyph glyph-name="Oacute" unicode="&#xd3;" horiz-adv-x="1485" 
d="M875 1280q-141 0 -253 -96t-176 -266t-63 -358q-1 -188 81 -282t224 -94t252 96t172 264q62 170 62 358t-79 283t-220 95zM1421 915q0 -272 -95 -490q-96 -217 -262 -331t-406 -114t-381 150q-142 150 -142 414q1 266 99 486t269 338q171 117 405 117t374 -149t139 -421z
M1276 1907v-19q-54 -66 -158 -162t-175 -147h-156v25q97 108 225 303h264z" />
    <glyph glyph-name="Ocircumflex" unicode="&#xd4;" horiz-adv-x="1485" 
d="M875 1280q-141 0 -253 -96t-176 -266t-63 -358q-1 -188 81 -282t224 -94t252 96t172 264q62 170 62 358t-79 283t-220 95zM1421 915q0 -272 -95 -490q-96 -217 -262 -331t-406 -114t-381 150q-142 150 -142 414q1 266 99 486t269 338q171 117 405 117t374 -149t139 -421z
M1268 1579h-152q-76 63 -161 178q-131 -110 -236 -178h-164v25q231 215 291 303h248q38 -99 174 -303v-25z" />
    <glyph glyph-name="Otilde" unicode="&#xd5;" horiz-adv-x="1485" 
d="M875 1280q-141 0 -253 -96t-176 -266t-63 -358q-1 -188 81 -282t224 -94t252 96t172 264q62 170 62 358t-79 283t-220 95zM1421 915q0 -272 -95 -490q-96 -217 -262 -331t-406 -114t-381 150q-142 150 -142 414q1 266 99 486t269 338q171 117 405 117t374 -149t139 -421z
M786 1688q-70 0 -106 -111h-137q57 285 256 285q67 0 157 -56q34 -20 64 -38t64 -17t60 27q25 26 48 86h137q-66 -285 -260 -285q-64 1 -154 55q-33 20 -65 37t-64 17z" />
    <glyph glyph-name="Odieresis" unicode="&#xd6;" horiz-adv-x="1485" 
d="M875 1280q-141 0 -253 -96t-176 -266t-63 -358q-1 -188 81 -282t224 -94t252 96t172 264q62 170 62 358t-79 283t-220 95zM1421 915q0 -272 -95 -490q-96 -217 -262 -331t-406 -114t-381 150q-142 150 -142 414q1 266 99 486t269 338q171 117 405 117t374 -149t139 -421z
M1139 1854q105 0 105 -95q0 -65 -36 -102t-88 -37q-114 0 -114 98q0 60 35 98t98 38zM756 1854q105 0 105 -95q1 -65 -35 -102t-88 -37q-114 0 -115 98q0 60 35 98t98 38z" />
    <glyph glyph-name="multiply" unicode="&#xd7;" 
d="M457 723l-310 311l125 125l312 -309l313 309l127 -123l-315 -313l311 -313l-123 -123l-313 309l-312 -307l-122 123z" />
    <glyph glyph-name="Oslash" unicode="&#xd8;" horiz-adv-x="1485" 
d="M1180 920q0 88 -19 143l-661 -825q75 -56 204 -56t240.5 95.5t173.5 264.5t62 378zM860 1282q-129 0 -241 -93t-177 -265t-65 -379q0 -88 24 -164l668 836q-80 65 -209 65zM1421 922q0 -279 -95 -497t-261.5 -331.5t-372.5 -113.5t-332 83l-118 -149l-133 104l129 160
q-103 138 -103 385t98.5 467.5t269.5 337.5t374 117t331 -94l119 149l133 -104l-133 -166q94 -130 94 -348z" />
    <glyph glyph-name="Ugrave" unicode="&#xd9;" horiz-adv-x="1399" 
d="M152 391q0 83 20 170l193 901h237l-192 -905q-21 -88 -21 -174q-1 -87 59 -143t193 -56t218 80t124 262l199 936h237l-202 -956q-110 -526 -594 -526q-235 0 -353 106t-118 305zM996 1579h-144q-65 63 -132 151t-101 156v21h245q47 -154 132 -303v-25z" />
    <glyph glyph-name="Uacute" unicode="&#xda;" horiz-adv-x="1399" 
d="M152 391q0 83 20 170l193 901h237l-192 -905q-21 -88 -21 -174q-1 -87 59 -143t193 -56t218 80t124 262l199 936h237l-202 -956q-110 -526 -594 -526q-235 0 -353 106t-118 305zM1280 1907v-19q-54 -66 -158 -162t-175 -147h-156v25q97 108 225 303h264z" />
    <glyph glyph-name="Ucircumflex" unicode="&#xdb;" horiz-adv-x="1399" 
d="M152 391q0 83 20 170l193 901h237l-192 -905q-21 -88 -21 -174q-1 -87 59 -143t193 -56t218 80t124 262l199 936h237l-202 -956q-110 -526 -594 -526q-235 0 -353 106t-118 305zM1249 1579h-152q-76 63 -161 178q-131 -110 -236 -178h-164v25q231 215 291 303h248
q38 -99 174 -303v-25z" />
    <glyph glyph-name="Udieresis" unicode="&#xdc;" horiz-adv-x="1399" 
d="M152 391q0 83 20 170l193 901h237l-192 -905q-21 -88 -21 -174q-1 -87 59 -143t193 -56t218 80t124 262l199 936h237l-202 -956q-110 -526 -594 -526q-235 0 -353 106t-118 305zM1118 1854q105 0 105 -95q1 -65 -35 -102t-88 -37q-114 0 -115 98q0 60 35 98t98 38z
M735 1854q105 0 105 -95q0 -65 -36 -102t-88 -37q-114 0 -114 98q0 60 35 98t98 38z" />
    <glyph glyph-name="Yacute" unicode="&#xdd;" horiz-adv-x="1092" 
d="M582 793l432 669h266l-623 -913l-114 -549h-238l119 553l-238 909h242zM1099 1907v-19q-54 -66 -158 -162t-175 -147h-156v25q97 108 225 303h264z" />
    <glyph glyph-name="Thorn" unicode="&#xde;" horiz-adv-x="1174" 
d="M510 506q176 0 274.5 78.5t98.5 226.5q0 109 -59.5 158t-180.5 49h-121l-108 -512h96zM1124 817q0 -243 -166.5 -377.5t-476.5 -134.5h-108l-66 -305h-237l309 1462h237l-51 -243h97q227 0 344.5 -101t117.5 -301z" />
    <glyph glyph-name="germandbls" unicode="&#xdf;" horiz-adv-x="1266" 
d="M-117 -492q-69 0 -141 23v193q62 -21 120 -21q123 0 163 191l262 1234q48 231 173 333t331 102t310.5 -80t104.5 -215q0 -169 -179 -299q-118 -87 -148.5 -119t-30.5 -72t90 -110t145.5 -136t55.5 -180q0 -172 -116 -272t-306 -100t-291 65v201q126 -86 242 -86t174.5 44
t58.5 124q0 48 -23.5 85t-108.5 104t-124 124.5t-39 129.5q0 141 180 260q98 66 138.5 112.5t40.5 104.5t-47 94t-132 36q-210 0 -262 -239l-264 -1260q-42 -197 -134.5 -284t-242.5 -87z" />
    <glyph glyph-name="agrave" unicode="&#xe0;" horiz-adv-x="1186" 
d="M332 373q0 -203 158 -203q77 0 156 78t130 207q51 130 51 284q0 87 -47 141q-48 54 -128 54t-155 -77t-120 -209t-45 -275zM623 1126q196 0 276 -178h10l62 158h180l-236 -1106h-182l21 176h-6q-158 -196 -349 -196q-141 0 -223 102t-82 294q0 193 70 369q70 177 191 279
q122 102 268 102zM847 1241h-144q-65 63 -132 151t-101 156v21h245q47 -154 132 -303v-25z" />
    <glyph glyph-name="aacute" unicode="&#xe1;" horiz-adv-x="1186" 
d="M332 373q0 -203 158 -203q77 0 156 78t130 207q51 130 51 284q0 87 -47 141q-48 54 -128 54t-155 -77t-120 -209t-45 -275zM623 1126q196 0 276 -178h10l62 158h180l-236 -1106h-182l21 176h-6q-158 -196 -349 -196q-141 0 -223 102t-82 294q0 193 70 369q70 177 191 279
q122 102 268 102zM1087 1569v-19q-54 -66 -158 -162t-175 -147h-156v25q97 108 225 303h264z" />
    <glyph glyph-name="acircumflex" unicode="&#xe2;" horiz-adv-x="1186" 
d="M332 373q0 -203 158 -203q77 0 156 78t130 207q51 130 51 284q0 87 -47 141q-48 54 -128 54t-155 -77t-120 -209t-45 -275zM623 1126q196 0 276 -178h10l62 158h180l-236 -1106h-182l21 176h-6q-158 -196 -349 -196q-141 0 -223 102t-82 294q0 193 70 369q70 177 191 279
q122 102 268 102zM1064 1241h-152q-76 63 -161 178q-131 -110 -236 -178h-164v25q231 215 291 303h248q38 -99 174 -303v-25z" />
    <glyph glyph-name="atilde" unicode="&#xe3;" horiz-adv-x="1186" 
d="M332 373q0 -203 158 -203q77 0 156 78t130 207q51 130 51 284q0 87 -47 141q-48 54 -128 54t-155 -77t-120 -209t-45 -275zM623 1126q196 0 276 -178h10l62 158h180l-236 -1106h-182l21 176h-6q-158 -196 -349 -196q-141 0 -223 102t-82 294q0 193 70 369q70 177 191 279
q122 102 268 102zM587 1350q-70 0 -106 -111h-137q57 285 256 285q68 0 158 -56q34 -20 63 -38q31 -18 65 -17t59 27t48 86h137q-66 -285 -260 -285q-64 1 -154 55q-34 20 -66 37t-63 17z" />
    <glyph glyph-name="adieresis" unicode="&#xe4;" horiz-adv-x="1186" 
d="M332 373q0 -203 158 -203q77 0 156 78t130 207q51 130 51 284q0 87 -47 141q-48 54 -128 54t-155 -77t-120 -209t-45 -275zM623 1126q196 0 276 -178h10l62 158h180l-236 -1106h-182l21 176h-6q-158 -196 -349 -196q-141 0 -223 102t-82 294q0 193 70 369q70 177 191 279
q122 102 268 102zM941 1516q105 0 105 -95q0 -65 -36 -102t-88 -37q-114 0 -114 98q0 60 35 98t98 38zM558 1516q105 0 105 -95q1 -65 -35 -102t-88 -37q-114 0 -115 98q0 60 35 98t98 38z" />
    <glyph glyph-name="aring" unicode="&#xe5;" horiz-adv-x="1186" 
d="M332 373q0 -203 158 -203q77 0 156 78t130 207q51 130 51 284q0 87 -47 141q-48 54 -128 54t-155 -77t-120 -209t-45 -275zM623 1126q196 0 276 -178h10l62 158h180l-236 -1106h-182l21 176h-6q-158 -196 -349 -196q-141 0 -223 102t-82 294q0 193 70 369q70 177 191 279
q122 102 268 102zM646 1464q0 -104 104 -104q47 0 77 28t30 76q0 50 -30 78t-76 29q-45 -1 -75 -29t-30 -78zM988 1466q0 -104 -66 -166t-172 -61q-106 0 -170 61t-63 164q0 102 65 164q64 62 168 62t171 -60t67 -164z" />
    <glyph glyph-name="ae" unicode="&#xe6;" horiz-adv-x="1726" 
d="M1333 946q-103 0 -188.5 -86t-122.5 -227h31q187 0 293 53.5t106 149.5q0 58 -34 84t-85 26zM332 373q0 -203 146 -203q72 0 149.5 80.5t125.5 215t48 246.5q0 222 -152 222q-85 0 -159.5 -80t-116 -211t-41.5 -270zM989 401q0 -237 241 -237q120 0 300 84v-189
q-175 -79 -344 -79q-222 0 -305 137l-23 -117h-151l20 176h-8q-85 -106 -165.5 -151t-174.5 -45q-134 0 -209.5 103t-75.5 294t69 368t188.5 279t260.5 102q174 0 260 -178h9l63 158h148l-25 -117q111 137 311 137q140 0 220.5 -76.5t80.5 -201.5q0 -182 -166.5 -284.5
t-474.5 -102.5h-45z" />
    <glyph glyph-name="ccedilla" unicode="&#xe7;" horiz-adv-x="954" 
d="M621 -257q0 -113 -82 -174t-224 -61q-64 0 -118 15v135q47 -14 96 -14q137 0 137 96q0 74 -139 92l93 160q-111 24 -182 94q-108 106 -108 308t74 372t206 264q134 96 300 96t299 -61l-70 -184q-122 53 -221 53q-150 0 -250 -154t-100 -379q0 -111 56 -171t162 -60
t261 76v-195q-132 -67 -286 -71l-40 -76q136 -48 136 -161z" />
    <glyph glyph-name="egrave" unicode="&#xe8;" horiz-adv-x="1075" 
d="M332 401q0 -237 236 -237q123 0 300 84v-187q-177 -81 -365 -81q-189 0 -299 111t-110 309t78 370q78 170 210 263t294 93t252 -72t90 -206q0 -182 -166 -284t-475 -103h-43l-2 -31v-29zM664 946q-96 0 -180 -86t-122 -227h29q188 -1 294 53t106 152q0 52 -32 80t-95 28z
M813 1241h-144q-65 63 -132 151t-101 156v21h245q47 -154 132 -303v-25z" />
    <glyph glyph-name="eacute" unicode="&#xe9;" horiz-adv-x="1075" 
d="M332 401q0 -237 236 -237q123 0 300 84v-187q-177 -81 -365 -81q-189 0 -299 111t-110 309t78 370q78 170 210 263t294 93t252 -72t90 -206q0 -182 -166 -284t-475 -103h-43l-2 -31v-29zM664 946q-96 0 -180 -86t-122 -227h29q188 -1 294 53t106 152q0 52 -32 80t-95 28z
M1046 1569v-19q-54 -66 -158 -162t-175 -147h-156v25q97 108 225 303h264z" />
    <glyph glyph-name="ecircumflex" unicode="&#xea;" horiz-adv-x="1075" 
d="M332 401q0 -237 236 -237q123 0 300 84v-187q-177 -81 -365 -81q-189 0 -299 111t-110 309t78 370q78 170 210 263t294 93t252 -72t90 -206q0 -182 -166 -284t-475 -103h-43l-2 -31v-29zM664 946q-96 0 -180 -86t-122 -227h29q188 -1 294 53t106 152q0 52 -32 80t-95 28z
M1033 1241h-152q-76 63 -161 178q-131 -110 -236 -178h-164v25q231 215 291 303h248q38 -99 174 -303v-25z" />
    <glyph glyph-name="edieresis" unicode="&#xeb;" horiz-adv-x="1075" 
d="M332 401q0 -237 236 -237q123 0 300 84v-187q-177 -81 -365 -81q-189 0 -299 111t-110 309t78 370q78 170 210 263t294 93t252 -72t90 -206q0 -182 -166 -284t-475 -103h-43l-2 -31v-29zM664 946q-96 0 -180 -86t-122 -227h29q188 -1 294 53t106 152q0 52 -32 80t-95 28z
M904 1516q105 0 105 -95q1 -65 -35 -102t-88 -37q-114 0 -115 98q0 60 35 98t98 38zM521 1516q105 0 105 -95q0 -65 -36 -102t-88 -37q-114 0 -114 98q0 60 35 98t98 38z" />
    <glyph glyph-name="igrave" unicode="&#xec;" horiz-adv-x="563" 
d="M283 0h-236l236 1106h235zM536 1241h-144q-65 63 -132 151t-101 156v21h245q47 -154 132 -303v-25z" />
    <glyph glyph-name="iacute" unicode="&#xed;" horiz-adv-x="563" 
d="M283 0h-236l236 1106h235zM797 1569v-19q-54 -66 -158 -162t-175 -147h-156v25q97 108 225 303h264z" />
    <glyph glyph-name="icircumflex" unicode="&#xee;" horiz-adv-x="563" 
d="M283 0h-236l236 1106h235zM777 1241h-152q-76 63 -161 178q-131 -110 -236 -178h-164v25q231 215 291 303h248q38 -99 174 -303v-25z" />
    <glyph glyph-name="idieresis" unicode="&#xef;" horiz-adv-x="563" 
d="M283 0h-236l236 1106h235zM658 1516q105 0 105 -95q1 -65 -35 -102t-88 -37q-114 0 -115 98q0 60 35 98t98 38zM275 1516q105 0 105 -95q0 -65 -36 -102t-88 -37q-114 0 -114 98q0 60 35 98t98 38z" />
    <glyph glyph-name="eth" unicode="&#xf0;" horiz-adv-x="1174" 
d="M508 162q92 0 161.5 59.5t108.5 159t39 201.5t-51.5 159.5t-143.5 57.5t-161.5 -56t-106.5 -153.5t-37 -207.5t49.5 -165t141.5 -55zM596 981q195 0 281 -147h6q-10 243 -133 383l-250 -142l-72 129l219 121q-44 41 -135 96l106 152q129 -72 209 -146l250 138l70 -127
l-217 -121q155 -205 155 -512q0 -255 -110 -540t-479 -285q-197 0 -306.5 107t-109.5 285t65.5 315.5t184.5 215.5t266 78z" />
    <glyph glyph-name="ntilde" unicode="&#xf1;" horiz-adv-x="1208" 
d="M817 1126q133 0 207 -76t74 -216q0 -69 -23 -181l-137 -653h-236l142 672q18 90 18 131q0 131 -129 131q-72 0 -142 -57t-126 -165t-84 -243l-98 -469h-236l236 1106h184l-21 -205h9q158 225 362 225zM606 1350q-70 0 -106 -111h-137q57 285 256 285q67 0 157 -56
q34 -20 64 -38t64 -17t60 27q25 26 48 86h137q-66 -285 -260 -285q-64 1 -154 55q-33 20 -65 37t-64 17z" />
    <glyph glyph-name="ograve" unicode="&#xf2;" horiz-adv-x="1174" 
d="M1079 691q0 -201 -73 -367q-72 -166 -200 -254t-307 -88t-292 114t-113 313q0 198 72 364q72 167 200 259q129 92 311 92t292 -116t110 -317zM842 682q0 248 -189 248q-93 0 -167 -72t-114 -194t-40 -247q0 -243 196 -243q90 0 162 68t112 190t40 250zM821 1241h-144
q-65 63 -132 151t-101 156v21h245q47 -154 132 -303v-25z" />
    <glyph glyph-name="oacute" unicode="&#xf3;" horiz-adv-x="1174" 
d="M1079 691q0 -201 -73 -367q-72 -166 -200 -254t-307 -88t-292 114t-113 313q0 198 72 364q72 167 200 259q129 92 311 92t292 -116t110 -317zM842 682q0 248 -189 248q-93 0 -167 -72t-114 -194t-40 -247q0 -243 196 -243q90 0 162 68t112 190t40 250zM1069 1569v-19
q-54 -66 -158 -162t-175 -147h-156v25q97 108 225 303h264z" />
    <glyph glyph-name="ocircumflex" unicode="&#xf4;" horiz-adv-x="1174" 
d="M1079 691q0 -201 -73 -367q-72 -166 -200 -254t-307 -88t-292 114t-113 313q0 198 72 364q72 167 200 259q129 92 311 92t292 -116t110 -317zM842 682q0 248 -189 248q-93 0 -167 -72t-114 -194t-40 -247q0 -243 196 -243q90 0 162 68t112 190t40 250zM1054 1241h-152
q-76 63 -161 178q-131 -110 -236 -178h-164v25q231 215 291 303h248q38 -99 174 -303v-25z" />
    <glyph glyph-name="otilde" unicode="&#xf5;" horiz-adv-x="1174" 
d="M1079 691q0 -201 -73 -367q-72 -166 -200 -254t-307 -88t-292 114t-113 313q0 198 72 364q72 167 200 259q129 92 311 92t292 -116t110 -317zM842 682q0 248 -189 248q-93 0 -167 -72t-114 -194t-40 -247q0 -243 196 -243q90 0 162 68t112 190t40 250zM571 1350
q-70 0 -106 -111h-137q57 285 256 285q68 0 158 -56q34 -20 63 -38q31 -18 65 -17t59 27t48 86h137q-66 -285 -260 -285q-64 1 -154 55q-34 20 -66 37t-63 17z" />
    <glyph glyph-name="odieresis" unicode="&#xf6;" horiz-adv-x="1174" 
d="M1079 691q0 -201 -73 -367q-72 -166 -200 -254t-307 -88t-292 114t-113 313q0 198 72 364q72 167 200 259q129 92 311 92t292 -116t110 -317zM842 682q0 248 -189 248q-93 0 -167 -72t-114 -194t-40 -247q0 -243 196 -243q90 0 162 68t112 190t40 250zM925 1516
q105 0 105 -95q0 -65 -36 -102t-88 -37q-114 0 -114 98q0 60 35 98t98 38zM542 1516q105 0 105 -95q1 -65 -35 -102t-88 -37q-114 0 -115 98q0 60 35 98t98 38z" />
    <glyph glyph-name="divide" unicode="&#xf7;" 
d="M459 1071q0 135 93.5 135t126 -36t32.5 -100t-34.5 -100t-92.5 -36t-91.5 35.5t-33.5 101.5zM459 373q0 135 93.5 135t126 -36t32.5 -100t-34.5 -100t-92.5 -36t-91.5 35.5t-33.5 101.5zM117 631v180h936v-180h-936z" />
    <glyph glyph-name="oslash" unicode="&#xf8;" horiz-adv-x="1174" 
d="M533 168q84 0 158 66.5t116.5 184t42.5 257.5q0 45 -6 67l-436 -542q41 -33 125 -33zM653 936q-141 0 -235 -145.5t-94 -364.5q0 -39 8 -74l442 549q-45 35 -121 35zM1077 675q0 -183 -74 -351t-200.5 -255t-276.5 -87t-247 59l-105 -131l-123 96l115 141
q-70 105 -70 283t70.5 343t200 258t281.5 93t255 -61l86 108l125 -96l-100 -117q63 -100 63 -283z" />
    <glyph glyph-name="ugrave" unicode="&#xf9;" horiz-adv-x="1208" 
d="M111 274q0 62 12 124l24 124l123 584h236l-129 -610q-31 -141 -31 -193q0 -133 127 -133q72 0 143 57q150 120 211 410l99 469h233l-233 -1106h-185l21 205h-8q-159 -225 -363 -225q-134 0 -207 76t-73 218zM823 1241h-144q-65 63 -132 151t-101 156v21h245
q47 -154 132 -303v-25z" />
    <glyph glyph-name="uacute" unicode="&#xfa;" horiz-adv-x="1208" 
d="M111 274q0 62 12 124l24 124l123 584h236l-129 -610q-31 -141 -31 -193q0 -133 127 -133q72 0 143 57q150 120 211 410l99 469h233l-233 -1106h-185l21 205h-8q-159 -225 -363 -225q-134 0 -207 76t-73 218zM1112 1569v-19q-54 -66 -158 -162t-175 -147h-156v25
q97 108 225 303h264z" />
    <glyph glyph-name="ucircumflex" unicode="&#xfb;" horiz-adv-x="1208" 
d="M111 274q0 62 12 124l24 124l123 584h236l-129 -610q-31 -141 -31 -193q0 -133 127 -133q72 0 143 57q150 120 211 410l99 469h233l-233 -1106h-185l21 205h-8q-159 -225 -363 -225q-134 0 -207 76t-73 218zM1083 1241h-152q-76 63 -161 178q-131 -110 -236 -178h-164v25
q231 215 291 303h248q38 -99 174 -303v-25z" />
    <glyph glyph-name="udieresis" unicode="&#xfc;" horiz-adv-x="1208" 
d="M111 274q0 62 12 124l24 124l123 584h236l-129 -610q-31 -141 -31 -193q0 -133 127 -133q72 0 143 57q150 120 211 410l99 469h233l-233 -1106h-185l21 205h-8q-159 -225 -363 -225q-134 0 -207 76t-73 218zM948 1516q105 0 105 -95q1 -65 -35 -102t-88 -37
q-114 0 -115 98q0 60 35 98t98 38zM565 1516q105 0 105 -95q0 -65 -36 -102t-88 -37q-114 0 -114 98q0 60 35 98t98 38z" />
    <glyph glyph-name="yacute" unicode="&#xfd;" horiz-adv-x="1004" 
d="M418 219h6q86 215 135 313l293 574h254l-688 -1280q-90 -166 -196 -242t-249 -76q-76 0 -143 19v188q75 -16 137 -16q62 -1 122 43t124 156l51 92l-164 1116h232l63 -531q23 -158 23 -356zM990 1569v-19q-54 -66 -158 -162t-175 -147h-156v25q97 108 225 303h264z" />
    <glyph glyph-name="thorn" unicode="&#xfe;" horiz-adv-x="1200" 
d="M369 391q0 -221 132 -221t205.5 77t116.5 209t43 277q0 201 -159 201q-84 0 -163 -81t-127 -213.5t-48 -248.5zM586 -20q-190 0 -279 176h-8q-7 -91 -25 -185l-96 -463h-233l432 2048h235q-48 -223 -73 -339t-76 -291h8q155 200 328 200q144 0 224.5 -102t80.5 -296
t-68 -372t-184.5 -277t-265.5 -99z" />
    <glyph glyph-name="ydieresis" unicode="&#xff;" horiz-adv-x="1004" 
d="M418 219h6q86 215 135 313l293 574h254l-688 -1280q-90 -166 -196 -242t-249 -76q-76 0 -143 19v188q75 -16 137 -16q62 -1 122 43t124 156l51 92l-164 1116h232l63 -531q23 -158 23 -356zM839 1516q105 0 105 -95q0 -65 -36 -102t-88 -37q-114 0 -114 98q0 60 35 98
t98 38zM456 1516q105 0 105 -95q1 -65 -35 -102t-88 -37q-114 0 -115 98q0 60 35 98t98 38z" />
    <glyph glyph-name="Amacron" unicode="&#x100;" horiz-adv-x="1210" 
d="M811 614q-51 530 -51 643q-55 -139 -142 -307l-172 -336h365zM827 406h-485l-209 -406h-254l783 1464h274l166 -1464h-234zM555 1755h582l-37 -176h-582z" />
    <glyph glyph-name="amacron" unicode="&#x101;" horiz-adv-x="1186" 
d="M332 373q0 -203 158 -203q77 0 156 78t130 207q51 130 51 284q0 87 -47 141q-48 54 -128 54t-155 -77t-120 -209t-45 -275zM623 1126q196 0 276 -178h10l62 158h180l-236 -1106h-182l21 176h-6q-158 -196 -349 -196q-141 0 -223 102t-82 294q0 193 70 369q70 177 191 279
q122 102 268 102zM467 1417h582l-37 -176h-582z" />
    <glyph glyph-name="Abreve" unicode="&#x102;" horiz-adv-x="1210" 
d="M811 614q-51 530 -51 643q-55 -139 -142 -307l-172 -336h365zM827 406h-485l-209 -406h-254l783 1464h274l166 -1464h-234zM1170 1882q-62 -303 -352 -303q-142 0 -218 66t-75 182q0 36 4 55h135q0 -63 36 -94t124 -31q168 0 198 125h148z" />
    <glyph glyph-name="abreve" unicode="&#x103;" horiz-adv-x="1186" 
d="M332 373q0 -203 158 -203q77 0 156 78t130 207q51 130 51 284q0 87 -47 141q-48 54 -128 54t-155 -77t-120 -209t-45 -275zM623 1126q196 0 276 -178h10l62 158h180l-236 -1106h-182l21 176h-6q-158 -196 -349 -196q-141 0 -223 102t-82 294q0 193 70 369q70 177 191 279
q122 102 268 102zM1091 1544q-61 -303 -351 -303q-142 0 -218 66t-76 182q0 36 4 55h135q1 -63 37 -94t123 -31q168 0 198 125h148z" />
    <glyph glyph-name="Aogonek" unicode="&#x104;" horiz-adv-x="1210" 
d="M811 614q-51 530 -51 643q-55 -139 -142 -307l-172 -336h365zM840 -254q0 -65 63 -65q38 0 92 14v-141q-65 -21 -147 -21t-136 47q-55 48 -55 130q-1 82 47 149t168 141h-4l-41 406h-485l-209 -406h-254l783 1464h274l166 -1464h-72q-110 -88 -150 -146t-40 -108z" />
    <glyph glyph-name="aogonek" unicode="&#x105;" horiz-adv-x="1186" 
d="M332 373q0 -203 158 -203q77 0 156 78t130 207q51 130 51 284q0 87 -47 141q-48 54 -128 54t-155 -77t-120 -209t-45 -275zM699 -254q0 -65 63 -65q38 0 92 14v-141q-64 -21 -146 -21t-137 47q-55 48 -55 130t48 149t167 141h2l21 176h-6q-158 -196 -349 -196
q-141 0 -223 102t-82 294q0 193 70 369q70 177 191 279q122 102 268 102q196 0 276 -178h10l62 158h180l-236 -1106h-26q-111 -88 -151 -146t-39 -108z" />
    <glyph glyph-name="Cacute" unicode="&#x106;" horiz-adv-x="1225" 
d="M919 1278q-149 0 -270 -89t-193 -259t-73 -363q0 -383 326 -383q141 0 329 68v-205q-180 -67 -374 -67q-248 0 -388 148t-141 413q-1 264 105 487t282 339t398 116t393 -92l-94 -195q-151 82 -300 82zM1280 1907v-19q-54 -66 -158 -162t-175 -147h-156v25q97 108 225 303
h264z" />
    <glyph glyph-name="cacute" unicode="&#x107;" horiz-adv-x="954" 
d="M550 170q106 0 261 76v-195q-141 -71 -321 -71t-288 106t-108 308t74 372t206 264q134 96 300 96t299 -61l-70 -184q-122 53 -221 53q-150 0 -250 -154t-100 -379q0 -111 56 -171t162 -60zM1044 1569v-19q-54 -66 -158 -162t-175 -147h-156v25q97 108 225 303h264z" />
    <glyph glyph-name="Ccircumflex" unicode="&#x108;" horiz-adv-x="1225" 
d="M919 1278q-149 0 -270 -89t-193 -259t-73 -363q0 -383 326 -383q141 0 329 68v-205q-180 -67 -374 -67q-248 0 -388 148t-141 413q-1 264 105 487t282 339t398 116t393 -92l-94 -195q-151 82 -300 82zM1260 1579h-152q-76 63 -161 178q-131 -110 -236 -178h-164v25
q231 215 291 303h248q38 -99 174 -303v-25z" />
    <glyph glyph-name="ccircumflex" unicode="&#x109;" horiz-adv-x="954" 
d="M550 170q106 0 261 76v-195q-141 -71 -321 -71t-288 106t-108 308t74 372t206 264q134 96 300 96t299 -61l-70 -184q-122 53 -221 53q-150 0 -250 -154t-100 -379q0 -111 56 -171t162 -60zM1013 1241h-152q-76 63 -161 178q-131 -110 -236 -178h-164v25q231 215 291 303
h248q38 -99 174 -303v-25z" />
    <glyph glyph-name="Cdot" unicode="&#x10a;" horiz-adv-x="1225" 
d="M919 1278q-149 0 -270 -89t-193 -259t-73 -363q0 -383 326 -383q141 0 329 68v-205q-180 -67 -374 -67q-248 0 -388 148t-141 413q-1 264 105 487t282 339t398 116t393 -92l-94 -195q-151 82 -300 82zM919 1608q-122 0 -122 114q0 62 39 104t101 42q128 0 128 -107
q-1 -71 -41 -112t-105 -41z" />
    <glyph glyph-name="cdot" unicode="&#x10b;" horiz-adv-x="954" 
d="M550 170q106 0 261 76v-195q-141 -71 -321 -71t-288 106t-108 308t74 372t206 264q134 96 300 96t299 -61l-70 -184q-122 53 -221 53q-150 0 -250 -154t-100 -379q0 -111 56 -171t162 -60zM688 1270q-122 0 -122 114q0 62 39 104t101 42q128 0 128 -107q0 -71 -40 -112
t-106 -41z" />
    <glyph glyph-name="Ccaron" unicode="&#x10c;" horiz-adv-x="1225" 
d="M919 1278q-149 0 -270 -89t-193 -259t-73 -363q0 -383 326 -383q141 0 329 68v-205q-180 -67 -374 -67q-248 0 -388 148t-141 413q-1 264 105 487t282 339t398 116t393 -92l-94 -195q-151 82 -300 82zM574 1907h149q69 -58 162 -178q125 105 238 178h162v-27
q-80 -70 -169 -162t-122 -139h-248q-44 110 -172 301v27z" />
    <glyph glyph-name="ccaron" unicode="&#x10d;" horiz-adv-x="954" 
d="M550 170q106 0 261 76v-195q-141 -71 -321 -71t-288 106t-108 308t74 372t206 264q134 96 300 96t299 -61l-70 -184q-122 53 -221 53q-150 0 -250 -154t-100 -379q0 -111 56 -171t162 -60zM355 1569h149q69 -58 162 -178q125 105 238 178h162v-27q-80 -70 -169 -162
t-122 -139h-248q-44 110 -172 301v27z" />
    <glyph glyph-name="Dcaron" unicode="&#x10e;" horiz-adv-x="1374" 
d="M483 201q177 0 309 86t202 242t71 348q0 193 -88 289t-256 96h-146l-227 -1061h135zM1311 897q0 -275 -100 -477t-291 -311t-449 -109h-401l309 1462h369q271 0 417 -145t146 -420zM514 1907h149q69 -58 162 -178q125 105 238 178h162v-27q-80 -70 -169 -162t-122 -139
h-248q-44 110 -172 301v27z" />
    <glyph glyph-name="dcaron" unicode="&#x10f;" horiz-adv-x="1198" 
d="M489 170q83 0 163 82t128 214t49 245q0 223 -176 223q-85 0 -159 -77t-118 -211t-44 -273q0 -203 157 -203zM623 1126q179 0 268 -178h8q13 146 37 250l76 358h233l-330 -1556h-184l19 176h-7q-88 -106 -170 -151t-174 -45q-143 0 -224 102t-81 296q0 196 72 374t191 276
q120 98 266 98zM1630 1556v-20q-33 -70 -101 -162t-122 -145h-135v26q80 144 137 301h221z" />
    <glyph glyph-name="Dcroat" unicode="&#x110;" horiz-adv-x="1374" 
d="M483 201q177 0 309 86t202 242t71 348q0 193 -88 289t-256 96h-146l-94 -439h285l-45 -200h-283l-90 -422h135zM1311 897q0 -275 -100 -477t-291 -311t-449 -109h-401l129 623h-146l45 200h144l137 639h369q271 0 417 -145t146 -420z" />
    <glyph glyph-name="dcroat" unicode="&#x111;" horiz-adv-x="1198" 
d="M492 170q80 0 157.5 77t127.5 205t50 238t-41.5 163.5t-131.5 53.5t-163.5 -73.5t-116 -198.5t-42.5 -262q0 -203 160 -203zM94 374q0 186 67 358.5t185 270t268 97.5q183 0 273 -170h8q5 75 23 180l22 109h-334l33 163h336l37 174h233l-37 -174h152l-35 -163h-151
l-259 -1219h-184l19 176h-7q-156 -196 -340 -196q-146 0 -227.5 104t-81.5 290z" />
    <glyph glyph-name="Emacron" unicode="&#x112;" horiz-adv-x="1077" 
d="M846 0h-776l309 1462h776l-43 -205h-539l-84 -395h502l-41 -203h-504l-96 -456h539zM520 1755h582l-37 -176h-582z" />
    <glyph glyph-name="emacron" unicode="&#x113;" horiz-adv-x="1075" 
d="M332 401q0 -237 236 -237q123 0 300 84v-187q-177 -81 -365 -81q-189 0 -299 111t-110 309t78 370q78 170 210 263t294 93t252 -72t90 -206q0 -182 -166 -284t-475 -103h-43l-2 -31v-29zM664 946q-96 0 -180 -86t-122 -227h29q188 -1 294 53t106 152q0 52 -32 80t-95 28z
M436 1417h582l-37 -176h-582z" />
    <glyph glyph-name="Ebreve" unicode="&#x114;" horiz-adv-x="1077" 
d="M846 0h-776l309 1462h776l-43 -205h-539l-84 -395h502l-41 -203h-504l-96 -456h539zM1143 1882q-61 -303 -351 -303q-142 0 -218 66t-76 182q0 36 4 55h135q1 -63 37 -94t123 -31q168 0 198 125h148z" />
    <glyph glyph-name="ebreve" unicode="&#x115;" horiz-adv-x="1075" 
d="M332 401q0 -237 236 -237q123 0 300 84v-187q-177 -81 -365 -81q-189 0 -299 111t-110 309t78 370q78 170 210 263t294 93t252 -72t90 -206q0 -182 -166 -284t-475 -103h-43l-2 -31v-29zM664 946q-96 0 -180 -86t-122 -227h29q188 -1 294 53t106 152q0 52 -32 80t-95 28z
M1064 1544q-62 -303 -352 -303q-142 0 -218 66t-75 182q0 36 4 55h135q0 -63 36 -94t124 -31q168 0 198 125h148z" />
    <glyph glyph-name="Edotaccent" unicode="&#x116;" horiz-adv-x="1077" 
d="M846 0h-776l309 1462h776l-43 -205h-539l-84 -395h502l-41 -203h-504l-96 -456h539zM768 1579q-122 0 -122 114q0 62 39 104t101 42q128 0 128 -107q0 -71 -40 -112t-106 -41z" />
    <glyph glyph-name="edotaccent" unicode="&#x117;" horiz-adv-x="1075" 
d="M332 401q0 -237 236 -237q123 0 300 84v-187q-177 -81 -365 -81q-189 0 -299 111t-110 309t78 370q78 170 210 263t294 93t252 -72t90 -206q0 -182 -166 -284t-475 -103h-43l-2 -31v-29zM664 946q-96 0 -180 -86t-122 -227h29q188 -1 294 53t106 152q0 52 -32 80t-95 28z
M698 1270q-122 0 -122 114q0 62 39 104t101 42q128 0 128 -107q0 -71 -40 -112t-106 -41z" />
    <glyph glyph-name="Eogonek" unicode="&#x118;" horiz-adv-x="1077" 
d="M582 -254q0 -65 63 -65q38 0 92 14v-141q-65 -21 -147 -21t-136 47q-55 48 -55 130q-1 82 47 149t168 141h-544l309 1462h776l-43 -205h-539l-84 -395h502l-41 -203h-504l-96 -456h539l-43 -203h-74q-110 -88 -150 -146t-40 -108z" />
    <glyph glyph-name="eogonek" unicode="&#x119;" horiz-adv-x="1075" 
d="M664 946q-96 0 -180 -86t-122 -227h29q188 -1 294 53t106 152q0 52 -32 80t-95 28zM332 401q0 -237 236 -237q123 0 300 84v-187q-108 -49 -197 -67q-80 -68 -116 -120t-36 -103q0 -65 63 -65q38 0 92 14v-141q-64 -21 -146 -21t-137 47t-55 129t40 140q40 57 109 107
q-177 7 -284 114t-107 305t78 370q78 170 210 263t294 93t252 -72t90 -206q0 -182 -166 -284t-475 -103h-43l-2 -31v-29z" />
    <glyph glyph-name="Ecaron" unicode="&#x11a;" horiz-adv-x="1077" 
d="M846 0h-776l309 1462h776l-43 -205h-539l-84 -395h502l-41 -203h-504l-96 -456h539zM467 1907h149q69 -58 162 -178q125 105 238 178h162v-27q-80 -70 -169 -162t-122 -139h-248q-44 110 -172 301v27z" />
    <glyph glyph-name="ecaron" unicode="&#x11b;" horiz-adv-x="1075" 
d="M332 401q0 -237 236 -237q123 0 300 84v-187q-177 -81 -365 -81q-189 0 -299 111t-110 309t78 370q78 170 210 263t294 93t252 -72t90 -206q0 -182 -166 -284t-475 -103h-43l-2 -31v-29zM664 946q-96 0 -180 -86t-122 -227h29q188 -1 294 53t106 152q0 52 -32 80t-95 28z
M384 1569h149q69 -58 162 -178q125 105 238 178h162v-27q-80 -70 -169 -162t-122 -139h-248q-44 110 -172 301v27z" />
    <glyph glyph-name="Gcircumflex" unicode="&#x11c;" horiz-adv-x="1399" 
d="M135 538q1 266 103 484q102 219 290 340t421 121q234 0 423 -90l-90 -203q-174 86 -333 86t-288 -90t-203 -258t-75 -362q0 -194 89 -288t253 -94q109 0 215 33l80 371h-277l43 205h512l-157 -736q-216 -77 -467 -77t-395 146t-144 412zM1264 1579h-152q-76 63 -161 178
q-131 -110 -236 -178h-164v25q231 215 291 303h248q38 -99 174 -303v-25z" />
    <glyph glyph-name="gcircumflex" unicode="&#x11d;" horiz-adv-x="1067" 
d="M594 969q-65 -1 -114 -39q-103 -81 -103 -250q-1 -72 35 -110t102 -38t112 39q48 39 74 107t27 149q0 142 -133 142zM92 -178q0 -148 225 -148q163 0 255 54t92 155q0 51 -45 80t-158 41l-137 14q-112 -18 -172 -71t-60 -125zM948 799q0 -193 -119 -307t-319 -113
q-52 0 -92 8q-111 -40 -111 -104q-1 -38 31 -52t92 -22l127 -16q176 -21 252 -87t76 -188q0 -196 -151 -303t-429 -107q-203 0 -315 75t-111 206q-1 103 69 178t224 127q-76 44 -76 120t46 126t147 98q-135 80 -135 264t122 304t324 120q80 0 160 -20h383l-31 -137l-192 -33
q28 -58 28 -137zM1069 1241h-152q-76 63 -161 178q-131 -110 -236 -178h-164v25q231 215 291 303h248q38 -99 174 -303v-25z" />
    <glyph glyph-name="Gbreve" unicode="&#x11e;" horiz-adv-x="1399" 
d="M135 538q1 266 103 484q102 219 290 340t421 121q234 0 423 -90l-90 -203q-174 86 -333 86t-288 -90t-203 -258t-75 -362q0 -194 89 -288t253 -94q109 0 215 33l80 371h-277l43 205h512l-157 -736q-216 -77 -467 -77t-395 146t-144 412zM1268 1882q-62 -303 -352 -303
q-142 0 -218 66t-75 182q0 36 4 55h135q0 -63 36 -94t124 -31q168 0 198 125h148z" />
    <glyph glyph-name="gbreve" unicode="&#x11f;" horiz-adv-x="1067" 
d="M594 969q-65 -1 -114 -39q-103 -81 -103 -250q-1 -72 35 -110t102 -38t112 39q48 39 74 107t27 149q0 142 -133 142zM92 -178q0 -148 225 -148q163 0 255 54t92 155q0 51 -45 80t-158 41l-137 14q-112 -18 -172 -71t-60 -125zM948 799q0 -193 -119 -307t-319 -113
q-52 0 -92 8q-111 -40 -111 -104q-1 -38 31 -52t92 -22l127 -16q176 -21 252 -87t76 -188q0 -196 -151 -303t-429 -107q-203 0 -315 75t-111 206q-1 103 69 178t224 127q-76 44 -76 120t46 126t147 98q-135 80 -135 264t122 304t324 120q80 0 160 -20h383l-31 -137l-192 -33
q28 -58 28 -137zM1064 1544q-62 -303 -352 -303q-142 0 -218 66t-75 182q0 36 4 55h135q0 -63 36 -94t124 -31q168 0 198 125h148z" />
    <glyph glyph-name="Gdot" unicode="&#x120;" horiz-adv-x="1399" 
d="M135 538q1 266 103 484q102 219 290 340t421 121q234 0 423 -90l-90 -203q-174 86 -333 86t-288 -90t-203 -258t-75 -362q0 -194 89 -288t253 -94q109 0 215 33l80 371h-277l43 205h512l-157 -736q-216 -77 -467 -77t-395 146t-144 412zM927 1608q-122 0 -122 114
q0 62 39 104t101 42q128 0 128 -107q-1 -71 -41 -112t-105 -41z" />
    <glyph glyph-name="gdot" unicode="&#x121;" horiz-adv-x="1067" 
d="M594 969q-65 -1 -114 -39q-103 -81 -103 -250q-1 -72 35 -110t102 -38t112 39q48 39 74 107t27 149q0 142 -133 142zM92 -178q0 -148 225 -148q163 0 255 54t92 155q0 51 -45 80t-158 41l-137 14q-112 -18 -172 -71t-60 -125zM948 799q0 -193 -119 -307t-319 -113
q-52 0 -92 8q-111 -40 -111 -104q-1 -38 31 -52t92 -22l127 -16q176 -21 252 -87t76 -188q0 -196 -151 -303t-429 -107q-203 0 -315 75t-111 206q-1 103 69 178t224 127q-76 44 -76 120t46 126t147 98q-135 80 -135 264t122 304t324 120q80 0 160 -20h383l-31 -137l-192 -33
q28 -58 28 -137zM733 1270q-122 0 -122 114q0 62 39 104t101 42q128 0 128 -107q-1 -71 -41 -112t-105 -41z" />
    <glyph glyph-name="Gcommaaccent" unicode="&#x122;" horiz-adv-x="1399" 
d="M135 538q1 266 103 484q102 219 290 340t421 121q234 0 423 -90l-90 -203q-174 86 -333 86t-288 -90t-203 -258t-75 -362q0 -194 89 -288t253 -94q109 0 215 33l80 371h-277l43 205h512l-157 -736q-216 -77 -467 -77t-395 146t-144 412zM787 -125v-20q-29 -65 -93 -153
t-129 -155h-135v27q87 156 135 301h222z" />
    <glyph glyph-name="gcommaaccent" unicode="&#x123;" horiz-adv-x="1067" 
d="M594 969q-65 -1 -114 -39q-103 -81 -103 -250q-1 -72 35 -110t102 -38t112 39q48 39 74 107t27 149q0 142 -133 142zM92 -178q0 -148 225 -148q163 0 255 54t92 155q0 51 -45 80t-158 41l-137 14q-112 -18 -172 -71t-60 -125zM948 799q0 -193 -119 -307t-319 -113
q-52 0 -92 8q-111 -40 -111 -104q-1 -38 31 -52t92 -22l127 -16q176 -21 252 -87t76 -188q0 -196 -151 -303t-429 -107q-203 0 -315 75t-111 206q-1 103 69 178t224 127q-76 44 -76 120t46 126t147 98q-135 80 -135 264t122 304t324 120q80 0 160 -20h383l-31 -137l-192 -33
q28 -58 28 -137zM602 1241v21q30 62 94 150t128 157h137v-27q-97 -181 -137 -301h-222z" />
    <glyph glyph-name="Hcircumflex" unicode="&#x124;" horiz-adv-x="1411" 
d="M1110 0h-238l140 659h-566l-139 -659h-237l309 1462h237l-127 -598h566l127 598h237zM1251 1579h-152q-76 63 -161 178q-131 -110 -236 -178h-164v25q231 215 291 303h248q38 -99 174 -303v-25z" />
    <glyph glyph-name="hcircumflex" unicode="&#x125;" horiz-adv-x="1208" 
d="M817 1126q137 0 209 -78t72 -221q0 -76 -23 -174l-139 -653h-234l142 672q18 90 18 127q0 135 -129 135q-111 0 -209 -125t-143 -342l-98 -467h-236l330 1556h235l-57 -262q-27 -126 -73 -293l-19 -75h8q158 200 346 200zM1137 1634h-152q-76 63 -161 178
q-131 -110 -236 -178h-164v25q231 215 291 303h248q38 -99 174 -303v-25z" />
    <glyph glyph-name="Hbar" unicode="&#x126;" horiz-adv-x="1411" 
d="M1055 864l43 205h-566l-43 -205h566zM1374 1239h182l-34 -170h-185l-225 -1069h-240l140 659h-566l-139 -659h-237l225 1069h-182l37 170h182l47 223h237l-47 -223h566l47 223h239z" />
    <glyph glyph-name="hbar" unicode="&#x127;" horiz-adv-x="1208" 
d="M809 1090q278 0 278 -314q0 -56 -20 -160l-131 -616h-234l136 635q16 71 16 127q0 131 -121 131q-73 0 -146.5 -57.5t-130 -162t-83.5 -241.5l-90 -432h-236l260 1219h-157l36 163h154l37 174h235l-37 -174h324l-35 -163h-323l-84 -328h8q156 199 344 199z" />
    <glyph glyph-name="Itilde" unicode="&#x128;" horiz-adv-x="608" 
d="M70 0l311 1462h235l-311 -1462h-235zM388 1688q-70 0 -106 -111h-137q57 285 256 285q67 0 157 -56q34 -20 64 -38t64 -17t60 27q25 26 48 86h137q-66 -285 -260 -285q-64 1 -154 55q-33 20 -65 37t-64 17z" />
    <glyph glyph-name="itilde" unicode="&#x129;" horiz-adv-x="563" 
d="M283 0h-236l236 1106h235zM302 1350q-70 0 -106 -111h-137q57 285 256 285q67 0 157 -56q34 -20 64 -38t64 -17t60 27q25 26 48 86h137q-66 -285 -260 -285q-64 1 -154 55q-33 20 -65 37t-64 17z" />
    <glyph glyph-name="Imacron" unicode="&#x12a;" horiz-adv-x="608" 
d="M70 0l311 1462h235l-311 -1462h-235zM263 1755h582l-37 -176h-582z" />
    <glyph glyph-name="imacron" unicode="&#x12b;" horiz-adv-x="563" 
d="M283 0h-236l236 1106h235zM165 1417h582l-37 -176h-582z" />
    <glyph glyph-name="Ibreve" unicode="&#x12c;" horiz-adv-x="608" 
d="M70 0l311 1462h235l-311 -1462h-235zM888 1882q-62 -303 -352 -303q-142 0 -218 66t-75 182q0 36 4 55h135q0 -63 36 -94t124 -31q168 0 198 125h148z" />
    <glyph glyph-name="ibreve" unicode="&#x12d;" horiz-adv-x="563" 
d="M283 0h-236l236 1106h235zM790 1544q-62 -303 -352 -303q-142 0 -218 66t-75 182q0 36 4 55h135q0 -63 36 -94t124 -31q168 0 198 125h148z" />
    <glyph glyph-name="Iogonek" unicode="&#x12e;" horiz-adv-x="608" 
d="M107 -254q0 -65 63 -65q38 0 92 14v-141q-64 -21 -146 -21t-137 47q-55 48 -55 130t48 149t167 141h-69l311 1462h235l-311 -1462h-8q-111 -88 -151 -146t-39 -108z" />
    <glyph glyph-name="iogonek" unicode="&#x12f;" horiz-adv-x="563" 
d="M453 1270q-123 0 -123 114q0 62 39 104t101 42q128 0 128 -107q0 -71 -40 -112t-105 -41zM93 -254q0 -65 63 -65q38 0 92 14v-141q-64 -21 -146 -21t-137 47q-55 48 -55 130t48 149t167 141h-78l236 1106h235l-235 -1106q-111 -88 -151 -146t-39 -108z" />
    <glyph glyph-name="Idotaccent" unicode="&#x130;" horiz-adv-x="608" 
d="M70 0l311 1462h235l-311 -1462h-235zM538 1608q-122 0 -122 114q0 62 39 104t101 42q128 0 128 -107q0 -71 -40 -112t-106 -41z" />
    <glyph glyph-name="dotlessi" unicode="&#x131;" horiz-adv-x="563" 
d="M283 0h-236l236 1106h235z" />
    <glyph glyph-name="IJ" unicode="&#x132;" horiz-adv-x="1221" 
d="M456 -408q-104 0 -170 25l5 201q84 -21 153 -21q201 0 254 250l299 1415h238l-305 -1446q-46 -216 -162 -320t-312 -104zM70 0l311 1462h235l-311 -1462h-235z" />
    <glyph glyph-name="ij" unicode="&#x133;" 
d="M283 0h-236l236 1106h235zM453 1270q-123 0 -123 114q0 62 39 104t101 42q128 0 128 -107q0 -71 -40 -112t-105 -41zM1016 1270q-121 0 -121 108q0 68 38 110q39 42 101 42q128 0 127 -107q0 -71 -40 -112t-105 -41zM450 -492q-90 0 -149 23v190q64 -20 117 -20
q131 0 170 186l260 1219h233l-266 -1247q-37 -181 -127 -266t-238 -85z" />
    <glyph glyph-name="Jcircumflex" unicode="&#x134;" horiz-adv-x="612" 
d="M-152 -408q-104 0 -170 25l5 201q84 -21 153 -21q201 0 254 250l299 1415h238l-305 -1446q-46 -216 -162 -320t-312 -104zM873 1579h-152q-76 63 -161 178q-131 -110 -236 -178h-164v25q231 215 291 303h248q38 -99 174 -303v-25z" />
    <glyph glyph-name="jcircumflex" unicode="&#x135;" horiz-adv-x="563" 
d="M-113 -492q-93 0 -147 23v190q62 -20 117 -20q131 0 170 186l258 1219h233l-264 -1247q-38 -183 -128 -267t-239 -84zM769 1241h-152q-76 63 -161 178q-131 -110 -236 -178h-164v25q231 215 291 303h248q38 -99 174 -303v-25z" />
    <glyph glyph-name="Kcommaaccent" unicode="&#x136;" horiz-adv-x="1198" 
d="M1087 0h-262l-252 655l-149 -100l-117 -555h-237l309 1462h237l-151 -706l141 166l492 540h284l-616 -669zM658 -125v-20q-29 -65 -93 -153t-129 -155h-135v27q87 156 135 301h222z" />
    <glyph glyph-name="kcommaaccent" unicode="&#x137;" horiz-adv-x="1081" 
d="M887 1106h272l-483 -485l291 -621h-262l-209 471l-136 -96l-77 -375h-236l330 1556h235q-136 -628 -160 -730t-59 -226h4zM592 -125v-20q-29 -65 -93 -153t-129 -155h-135v27q87 156 135 301h222z" />
    <glyph glyph-name="kgreenlandic" unicode="&#x138;" horiz-adv-x="1081" 
d="M395 598l492 508h272l-483 -485l291 -621h-262l-209 471l-136 -96l-77 -375h-236l234 1106h235l-57 -262q-13 -53 -68 -246h4z" />
    <glyph glyph-name="Lacute" unicode="&#x139;" horiz-adv-x="1016" 
d="M70 0l309 1462h237l-266 -1257h539l-43 -205h-776zM910 1907v-19q-54 -66 -158 -162t-175 -147h-156v25q97 108 225 303h264z" />
    <glyph glyph-name="lacute" unicode="&#x13a;" horiz-adv-x="563" 
d="M281 0h-234l330 1556h235zM885 1964v-19q-54 -65 -158 -161t-175 -148h-156v25q97 108 225 303h264z" />
    <glyph glyph-name="Lcommaaccent" unicode="&#x13b;" horiz-adv-x="1016" 
d="M70 0l309 1462h237l-266 -1257h539l-43 -205h-776zM607 -125v-20q-29 -65 -93 -153t-129 -155h-135v27q87 156 135 301h222z" />
    <glyph glyph-name="lcommaaccent" unicode="&#x13c;" horiz-adv-x="563" 
d="M281 0h-234l330 1556h235zM259 -125v-20q-29 -65 -93 -153t-129 -155h-135v27q87 156 135 301h222z" />
    <glyph glyph-name="Lcaron" unicode="&#x13d;" horiz-adv-x="1016" 
d="M70 0l309 1462h237l-266 -1257h539l-43 -205h-776zM1124 1463v-20q-33 -69 -101 -161t-122 -146h-135v26q80 144 137 301h221z" />
    <glyph glyph-name="lcaron" unicode="&#x13e;" horiz-adv-x="563" 
d="M281 0h-234l330 1556h235zM995 1556v-20q-33 -70 -101 -162t-122 -145h-135v26q80 144 137 301h221z" />
    <glyph glyph-name="Ldot" unicode="&#x13f;" horiz-adv-x="1016" 
d="M70 0l309 1462h237l-266 -1257h539l-43 -205h-776zM811 609q-122 0 -122 114q0 62 39 104t101 42q128 0 128 -107q-1 -71 -41 -112t-105 -41z" />
    <glyph glyph-name="ldot" unicode="&#x140;" horiz-adv-x="733" 
d="M281 0h-234l330 1556h235zM673 595q-122 0 -122 114q0 62 39 104t101 42q128 0 128 -107q-1 -71 -41 -112t-105 -41z" />
    <glyph glyph-name="Lslash" unicode="&#x141;" horiz-adv-x="1016" 
d="M70 0l106 494l-84 -48l-82 156l213 117l156 743h237l-124 -594l188 107l84 -156l-322 -178l-92 -436h539l-43 -205h-776z" />
    <glyph glyph-name="lslash" unicode="&#x142;" horiz-adv-x="590" 
d="M483 903l95 55l79 -153l-223 -127l-143 -678h-234l113 530l-88 -51l-80 154l215 123l172 800h232z" />
    <glyph glyph-name="Nacute" unicode="&#x143;" horiz-adv-x="1491" 
d="M1192 0h-260l-410 1163h-6l-10 -69q-24 -148 -36 -212t-183 -882h-219l309 1462h268l399 -1149h7q6 55 31 193t40 203l160 753h219zM1333 1907v-19q-54 -66 -158 -162t-175 -147h-156v25q97 108 225 303h264z" />
    <glyph glyph-name="nacute" unicode="&#x144;" horiz-adv-x="1208" 
d="M817 1126q133 0 207 -76t74 -216q0 -69 -23 -181l-137 -653h-236l142 672q18 90 18 131q0 131 -129 131q-72 0 -142 -57t-126 -165t-84 -243l-98 -469h-236l236 1106h184l-21 -205h9q158 225 362 225zM1110 1569v-19q-54 -66 -158 -162t-175 -147h-156v25q97 108 225 303
h264z" />
    <glyph glyph-name="Ncommaaccent" unicode="&#x145;" horiz-adv-x="1491" 
d="M1192 0h-260l-410 1163h-6l-10 -69q-24 -148 -36 -212t-183 -882h-219l309 1462h268l399 -1149h7q6 55 31 193t40 203l160 753h219zM738 -125v-20q-29 -65 -93 -153t-129 -155h-135v27q87 156 135 301h222z" />
    <glyph glyph-name="ncommaaccent" unicode="&#x146;" horiz-adv-x="1208" 
d="M817 1126q133 0 207 -76t74 -216q0 -69 -23 -181l-137 -653h-236l142 672q18 90 18 131q0 131 -129 131q-72 0 -142 -57t-126 -165t-84 -243l-98 -469h-236l236 1106h184l-21 -205h9q158 225 362 225zM596 -125v-20q-29 -65 -93 -153t-129 -155h-135v27q87 156 135 301
h222z" />
    <glyph glyph-name="Ncaron" unicode="&#x147;" horiz-adv-x="1491" 
d="M1192 0h-260l-410 1163h-6l-10 -69q-24 -148 -36 -212t-183 -882h-219l309 1462h268l399 -1149h7q6 55 31 193t40 203l160 753h219zM635 1907h149q69 -58 162 -178q125 105 238 178h162v-27q-80 -70 -169 -162t-122 -139h-248q-44 110 -172 301v27z" />
    <glyph glyph-name="ncaron" unicode="&#x148;" horiz-adv-x="1208" 
d="M817 1126q133 0 207 -76t74 -216q0 -69 -23 -181l-137 -653h-236l142 672q18 90 18 131q0 131 -129 131q-72 0 -142 -57t-126 -165t-84 -243l-98 -469h-236l236 1106h184l-21 -205h9q158 225 362 225zM422 1569h149q69 -58 162 -178q125 105 238 178h162v-27
q-80 -70 -169 -162t-122 -139h-248q-44 110 -172 301v27z" />
    <glyph glyph-name="napostrophe" unicode="&#x149;" horiz-adv-x="1358" 
d="M964 1126q134 0 208 -76t73 -216q0 -69 -23 -181l-137 -653h-236l142 672q18 90 18 131q0 131 -129 131q-72 0 -142 -57t-126 -165t-84 -243l-98 -469h-236l236 1106h184l-21 -205h9q158 225 362 225zM46 961q114 252 198 501h238l8 -22q-97 -217 -266 -479h-178z" />
    <glyph glyph-name="Eng" unicode="&#x14a;" horiz-adv-x="1491" 
d="M707 -201q206 0 260 201l-445 1163h-6q-45 -293 -72 -418l-157 -745h-219l309 1462h256l418 -1100h6q26 169 76 394l149 706h219l-309 -1462q-87 -406 -471 -406q-108 0 -172 25l4 203q87 -23 154 -23z" />
    <glyph glyph-name="eng" unicode="&#x14b;" horiz-adv-x="1208" 
d="M817 1126q134 0 207.5 -76t73.5 -216q0 -58 -23 -181l-155 -741q-34 -159 -103.5 -281.5t-275.5 -122.5q-76 0 -148 23v193q61 -23 117 -23q129 0 168 188l166 783q18 90 18 131q0 131 -129 131q-72 0 -142 -57t-126 -164.5t-84 -243.5l-98 -469h-236l236 1106h184
l-21 -205h9q158 225 362 225z" />
    <glyph glyph-name="Omacron" unicode="&#x14c;" horiz-adv-x="1485" 
d="M875 1280q-141 0 -253 -96t-176 -266t-63 -358q-1 -188 81 -282t224 -94t252 96t172 264q62 170 62 358t-79 283t-220 95zM1421 915q0 -272 -95 -490q-96 -217 -262 -331t-406 -114t-381 150q-142 150 -142 414q1 266 99 486t269 338q171 117 405 117t374 -149t139 -421z
M665 1755h582l-37 -176h-582z" />
    <glyph glyph-name="omacron" unicode="&#x14d;" horiz-adv-x="1174" 
d="M1079 691q0 -201 -73 -367q-72 -166 -200 -254t-307 -88t-292 114t-113 313q0 198 72 364q72 167 200 259q129 92 311 92t292 -116t110 -317zM842 682q0 248 -189 248q-93 0 -167 -72t-114 -194t-40 -247q0 -243 196 -243q90 0 162 68t112 190t40 250zM440 1417h582
l-37 -176h-582z" />
    <glyph glyph-name="Obreve" unicode="&#x14e;" horiz-adv-x="1485" 
d="M875 1280q-141 0 -253 -96t-176 -266t-63 -358q-1 -188 81 -282t224 -94t252 96t172 264q62 170 62 358t-79 283t-220 95zM1421 915q0 -272 -95 -490q-96 -217 -262 -331t-406 -114t-381 150q-142 150 -142 414q1 266 99 486t269 338q171 117 405 117t374 -149t139 -421z
M1268 1882q-62 -303 -352 -303q-142 0 -218 66t-75 182q0 36 4 55h135q0 -63 36 -94t124 -31q168 0 198 125h148z" />
    <glyph glyph-name="obreve" unicode="&#x14f;" horiz-adv-x="1174" 
d="M1079 691q0 -201 -73 -367q-72 -166 -200 -254t-307 -88t-292 114t-113 313q0 198 72 364q72 167 200 259q129 92 311 92t292 -116t110 -317zM842 682q0 248 -189 248q-93 0 -167 -72t-114 -194t-40 -247q0 -243 196 -243q90 0 162 68t112 190t40 250zM1058 1544
q-62 -303 -352 -303q-142 0 -218 66t-75 182q0 36 4 55h135q0 -63 36 -94t124 -31q168 0 198 125h148z" />
    <glyph glyph-name="Ohungarumlaut" unicode="&#x150;" horiz-adv-x="1485" 
d="M875 1280q-141 0 -253 -96t-176 -266t-63 -358q-1 -188 81 -282t224 -94t252 96t172 264q62 170 62 358t-79 283t-220 95zM1421 915q0 -272 -95 -490q-96 -217 -262 -331t-406 -114t-381 150q-142 150 -142 414q1 266 99 486t269 338q171 117 405 117t374 -149t139 -421z
M1483 1907v-19q-53 -64 -159 -161t-177 -148h-133v25q119 133 231 303h238zM1114 1907v-19q-38 -52 -152 -156t-186 -153h-131v25q139 156 229 303h240z" />
    <glyph glyph-name="ohungarumlaut" unicode="&#x151;" horiz-adv-x="1174" 
d="M1079 691q0 -201 -73 -367q-72 -166 -200 -254t-307 -88t-292 114t-113 313q0 198 72 364q72 167 200 259q129 92 311 92t292 -116t110 -317zM842 682q0 248 -189 248q-93 0 -167 -72t-114 -194t-40 -247q0 -243 196 -243q90 0 162 68t112 190t40 250zM1235 1569v-19
q-53 -64 -159 -161t-177 -148h-133v25q119 133 231 303h238zM866 1569v-19q-38 -52 -152 -156t-186 -153h-131v25q139 156 229 303h240z" />
    <glyph glyph-name="OE" unicode="&#x152;" horiz-adv-x="1798" 
d="M692 184q74 0 139 27l222 1038q-67 31 -193 31t-238 -96t-175.5 -266t-63.5 -358t81.5 -282t227.5 -94zM678 -20q-259 0 -401 149t-142 415t98.5 486.5t269.5 337.5t388 117q145 0 223 -23h760l-43 -205h-539l-84 -395h504l-43 -200h-504l-96 -459h539l-43 -203h-717
q-84 -20 -170 -20z" />
    <glyph glyph-name="oe" unicode="&#x153;" horiz-adv-x="1788" 
d="M1386 946q-105 0 -192 -85.5t-121 -227.5h31q189 0 294 54t105 155q0 48 -30 76t-87 28zM648 930q-88 0 -158.5 -64t-114 -187t-43.5 -253q0 -252 188 -252q143 0 229.5 146.5t86.5 381.5q0 111 -50 169.5t-138 58.5zM498 -18q-186 0 -295 115t-109 317t73.5 368.5
t201 254t293.5 87.5q237 0 335 -192q156 194 400 194q159 0 246.5 -74.5t87.5 -203.5q0 -183 -165.5 -285t-471.5 -102h-47l-3 -60q0 -111 56.5 -174t169.5 -63q69 0 134.5 17.5t176.5 66.5v-189q-167 -79 -356 -79q-120 0 -212.5 46t-140.5 138q-137 -182 -374 -182z" />
    <glyph glyph-name="Racute" unicode="&#x154;" horiz-adv-x="1206" 
d="M596 782q170 0 254 75t84 193t-59 164t-183 46h-119l-100 -478h123zM717 1462q461 0 461 -385q0 -165 -86 -279t-258 -165l249 -633h-260l-207 584h-186l-123 -584h-237l309 1462h338zM1151 1907v-19q-54 -66 -158 -162t-175 -147h-156v25q97 108 225 303h264z" />
    <glyph glyph-name="racute" unicode="&#x155;" horiz-adv-x="836" 
d="M782 1126q78 0 123 -12l-51 -219q-54 14 -102 14q-126 0 -225 -113t-138 -296l-106 -500h-236l236 1106h184l-21 -205h9q156 225 327 225zM971 1569v-19q-54 -66 -158 -162t-175 -147h-156v25q97 108 225 303h264z" />
    <glyph glyph-name="Rcommaaccent" unicode="&#x156;" horiz-adv-x="1206" 
d="M596 782q170 0 254 75t84 193t-59 164t-183 46h-119l-100 -478h123zM717 1462q461 0 461 -385q0 -165 -86 -279t-258 -165l249 -633h-260l-207 584h-186l-123 -584h-237l309 1462h338zM662 -125v-20q-29 -65 -93 -153t-129 -155h-135v27q87 156 135 301h222z" />
    <glyph glyph-name="rcommaaccent" unicode="&#x157;" horiz-adv-x="836" 
d="M782 1126q78 0 123 -12l-51 -219q-54 14 -102 14q-126 0 -225 -113t-138 -296l-106 -500h-236l236 1106h184l-21 -205h9q156 225 327 225zM257 -125v-20q-29 -65 -93 -153t-129 -155h-135v27q87 156 135 301h222z" />
    <glyph glyph-name="Rcaron" unicode="&#x158;" horiz-adv-x="1206" 
d="M596 782q170 0 254 75t84 193t-59 164t-183 46h-119l-100 -478h123zM717 1462q461 0 461 -385q0 -165 -86 -279t-258 -165l249 -633h-260l-207 584h-186l-123 -584h-237l309 1462h338zM479 1907h149q69 -58 162 -178q125 105 238 178h162v-27q-80 -70 -169 -162
t-122 -139h-248q-44 110 -172 301v27z" />
    <glyph glyph-name="rcaron" unicode="&#x159;" horiz-adv-x="836" 
d="M782 1126q78 0 123 -12l-51 -219q-54 14 -102 14q-126 0 -225 -113t-138 -296l-106 -500h-236l236 1106h184l-21 -205h9q156 225 327 225zM296 1569h149q69 -58 162 -178q125 105 238 178h162v-27q-80 -70 -169 -162t-122 -139h-248q-44 110 -172 301v27z" />
    <glyph glyph-name="Sacute" unicode="&#x15a;" horiz-adv-x="1057" 
d="M930 428q0 -210 -144 -329t-377 -119q-232 0 -370 75v224q173 -97 330 -97t236 58t79 163q0 69 -41 123t-159 128q-118 75 -168 130q-103 113 -103 253q-1 140 61 239t174 153t254 54q205 0 381 -92l-86 -191q-161 78 -283 78t-187 -58q-66 -58 -66 -150q-1 -92 61 -152
q32 -30 161 -111t188 -171t59 -208zM1103 1907v-19q-54 -66 -158 -162t-175 -147h-156v25q97 108 225 303h264z" />
    <glyph glyph-name="sacute" unicode="&#x15b;" horiz-adv-x="922" 
d="M782 340q0 -172 -118 -266t-318 -94t-332 67v203q153 -90 312 -90q97 0 157 40t60 100q-1 60 -35 96t-150 101q-116 63 -168 133t-51 165q0 155 107 243t296 88t339 -84l-76 -176q-140 76 -266 76q-73 0 -119 -33t-45 -85q0 -52 33 -87q32 -35 136 -92t148 -99
q90 -86 90 -206zM955 1569v-19q-54 -66 -158 -162t-175 -147h-156v25q97 108 225 303h264z" />
    <glyph glyph-name="Scircumflex" unicode="&#x15c;" horiz-adv-x="1057" 
d="M930 428q0 -210 -144 -329t-377 -119q-232 0 -370 75v224q173 -97 330 -97t236 58t79 163q0 69 -41 123t-159 128q-118 75 -168 130q-103 113 -103 253q-1 140 61 239t174 153t254 54q205 0 381 -92l-86 -191q-161 78 -283 78t-187 -58q-66 -58 -66 -150q-1 -92 61 -152
q32 -30 161 -111t188 -171t59 -208zM1069 1579h-152q-76 63 -161 178q-131 -110 -236 -178h-164v25q231 215 291 303h248q38 -99 174 -303v-25z" />
    <glyph glyph-name="scircumflex" unicode="&#x15d;" horiz-adv-x="922" 
d="M782 340q0 -172 -118 -266t-318 -94t-332 67v203q153 -90 312 -90q97 0 157 40t60 100q-1 60 -35 96t-150 101q-116 63 -168 133t-51 165q0 155 107 243t296 88t339 -84l-76 -176q-140 76 -266 76q-73 0 -119 -33t-45 -85q0 -52 33 -87q32 -35 136 -92t148 -99
q90 -86 90 -206zM916 1241h-152q-76 63 -161 178q-131 -110 -236 -178h-164v25q231 215 291 303h248q38 -99 174 -303v-25z" />
    <glyph glyph-name="Scedilla" unicode="&#x15e;" horiz-adv-x="1057" 
d="M385 -260q0 74 -139 92l87 149q-174 9 -294 74v224q173 -97 330 -97t236 58t79 163q0 69 -41 123t-159 128q-118 75 -168 130q-103 113 -103 253q-1 140 61 239t174 153t254 54q205 0 381 -92l-86 -191q-161 78 -283 78t-187 -58q-66 -58 -66 -150q-1 -92 61 -152
q32 -30 161 -111t188 -171t59 -208q0 -210 -144 -329q-116 -96 -304 -114l-42 -81q136 -47 136 -161q0 -113 -82 -174t-224 -61q-64 0 -118 15v135q47 -14 96 -14q137 0 137 96z" />
    <glyph glyph-name="scedilla" unicode="&#x15f;" horiz-adv-x="922" 
d="M324 -260q0 74 -139 92l87 150q-149 10 -258 65v203q153 -90 312 -90q97 0 157 40t60 100q-1 60 -35 96t-150 101q-116 63 -168 133t-51 165q0 155 107 243t296 88t339 -84l-76 -176q-140 76 -266 76q-73 0 -119 -33t-45 -85q0 -52 33 -87q32 -35 136 -92t148 -99
q90 -86 90 -206q0 -172 -118 -266q-93 -74 -243 -90l-42 -80q136 -47 136 -161q0 -113 -82 -174t-224 -61q-64 0 -118 15v135q47 -14 96 -14q137 0 137 96z" />
    <glyph glyph-name="Scaron" unicode="&#x160;" horiz-adv-x="1057" 
d="M930 428q0 -210 -144 -329t-377 -119q-232 0 -370 75v224q173 -97 330 -97t236 58t79 163q0 69 -41 123t-159 128q-118 75 -168 130q-103 113 -103 253q-1 140 61 239t174 153t254 54q205 0 381 -92l-86 -191q-161 78 -283 78t-187 -58q-66 -58 -66 -150q-1 -92 61 -152
q32 -30 161 -111t188 -171t59 -208zM392 1907h149q69 -58 162 -178q125 105 238 178h162v-27q-80 -70 -169 -162t-122 -139h-248q-44 110 -172 301v27z" />
    <glyph glyph-name="scaron" unicode="&#x161;" horiz-adv-x="922" 
d="M782 340q0 -172 -118 -266t-318 -94t-332 67v203q153 -90 312 -90q97 0 157 40t60 100q-1 60 -35 96t-150 101q-116 63 -168 133t-51 165q0 155 107 243t296 88t339 -84l-76 -176q-140 76 -266 76q-73 0 -119 -33t-45 -85q0 -52 33 -87q32 -35 136 -92t148 -99
q90 -86 90 -206zM267 1569h149q69 -58 162 -178q125 105 238 178h162v-27q-80 -70 -169 -162t-122 -139h-248q-44 110 -172 301v27z" />
    <glyph glyph-name="Tcedilla" unicode="&#x162;" horiz-adv-x="1053" 
d="M570 -257q0 -113 -82 -174t-224 -61q-64 0 -118 15v135q47 -14 96 -14q137 0 137 96q0 74 -139 92l98 168h-47l264 1257h-379l45 205h998l-43 -205h-381l-267 -1257h-44l-50 -96q136 -48 136 -161z" />
    <glyph glyph-name="tcedilla" unicode="&#x163;" horiz-adv-x="752" 
d="M354 261q0 -91 110 -91q60 0 142 31v-178q-74 -36 -183 -42l-40 -77q136 -47 136 -161q0 -113 -82 -174t-224 -61q-64 0 -118 15v135q47 -14 96 -14q137 0 137 96q0 74 -139 92l93 160q-165 43 -165 235q0 57 16 131l121 570h-162l21 110l190 82l129 232h146l-52 -246
h279l-39 -178h-277l-122 -572q-13 -55 -13 -95z" />
    <glyph glyph-name="Tcaron" unicode="&#x164;" horiz-adv-x="1053" 
d="M528 0h-237l264 1257h-379l45 205h998l-43 -205h-381zM432 1907h149q69 -58 162 -178q125 105 238 178h162v-27q-80 -70 -169 -162t-122 -139h-248q-44 110 -172 301v27z" />
    <glyph glyph-name="tcaron" unicode="&#x165;" horiz-adv-x="752" 
d="M354 261q0 -91 110 -91q60 0 142 31v-178q-89 -43 -215 -43q-274 0 -274 247q0 57 16 131l121 570h-162l21 110l190 82l129 232h146l-52 -246h279l-39 -178h-277l-122 -572q-13 -55 -13 -95zM1059 1564v-20q-33 -70 -101 -162t-122 -145h-135v26q80 144 137 301h221z" />
    <glyph glyph-name="Tbar" unicode="&#x166;" horiz-adv-x="1053" 
d="M705 831h264l-41 -194h-264l-136 -637h-237l133 637h-256l43 194h254l90 426h-379l45 205h998l-43 -205h-381z" />
    <glyph glyph-name="tbar" unicode="&#x167;" horiz-adv-x="752" 
d="M354 261q0 -91 110 -91q60 0 142 31v-178q-89 -43 -215 -43q-274 0 -274 247q0 28 4 61t51 253h-135l33 164h135l49 223h-162l21 110l190 82l129 232h146l-52 -246h279l-39 -178h-277l-49 -223h240l-35 -164h-239l-39 -185q-13 -55 -13 -95z" />
    <glyph glyph-name="Utilde" unicode="&#x168;" horiz-adv-x="1399" 
d="M152 391q0 83 20 170l193 901h237l-192 -905q-21 -88 -21 -174q-1 -87 59 -143t193 -56t218 80t124 262l199 936h237l-202 -956q-110 -526 -594 -526q-235 0 -353 106t-118 305zM782 1688q-70 0 -106 -111h-137q57 285 256 285q67 0 157 -56q34 -20 64 -38t64 -17t60 27
q25 26 48 86h137q-66 -285 -260 -285q-64 1 -154 55q-33 20 -65 37t-64 17z" />
    <glyph glyph-name="utilde" unicode="&#x169;" horiz-adv-x="1208" 
d="M111 274q0 62 12 124l24 124l123 584h236l-129 -610q-31 -141 -31 -193q0 -133 127 -133q72 0 143 57q150 120 211 410l99 469h233l-233 -1106h-185l21 205h-8q-159 -225 -363 -225q-134 0 -207 76t-73 218zM618 1350q-70 0 -106 -111h-137q57 285 256 285q67 0 157 -56
q34 -20 64 -38t64 -17t60 27q25 26 48 86h137q-66 -285 -260 -285q-64 1 -154 55q-33 20 -65 37t-64 17z" />
    <glyph glyph-name="Umacron" unicode="&#x16a;" horiz-adv-x="1399" 
d="M152 391q0 83 20 170l193 901h237l-192 -905q-21 -88 -21 -174q-1 -87 59 -143t193 -56t218 80t124 262l199 936h237l-202 -956q-110 -526 -594 -526q-235 0 -353 106t-118 305zM651 1755h582l-37 -176h-582z" />
    <glyph glyph-name="umacron" unicode="&#x16b;" horiz-adv-x="1208" 
d="M111 274q0 62 12 124l24 124l123 584h236l-129 -610q-31 -141 -31 -193q0 -133 127 -133q72 0 143 57q150 120 211 410l99 469h233l-233 -1106h-185l21 205h-8q-159 -225 -363 -225q-134 0 -207 76t-73 218zM483 1417h582l-37 -176h-582z" />
    <glyph glyph-name="Ubreve" unicode="&#x16c;" horiz-adv-x="1399" 
d="M152 391q0 83 20 170l193 901h237l-192 -905q-21 -88 -21 -174q-1 -87 59 -143t193 -56t218 80t124 262l199 936h237l-202 -956q-110 -526 -594 -526q-235 0 -353 106t-118 305zM1264 1882q-62 -303 -352 -303q-142 0 -218 66t-75 182q0 36 4 55h135q0 -63 36 -94
t124 -31q168 0 198 125h148z" />
    <glyph glyph-name="ubreve" unicode="&#x16d;" horiz-adv-x="1208" 
d="M111 274q0 62 12 124l24 124l123 584h236l-129 -610q-31 -141 -31 -193q0 -133 127 -133q72 0 143 57q150 120 211 410l99 469h233l-233 -1106h-185l21 205h-8q-159 -225 -363 -225q-134 0 -207 76t-73 218zM1098 1544q-62 -303 -352 -303q-142 0 -218 66t-75 182
q0 36 4 55h135q0 -63 36 -94t124 -31q168 0 198 125h148z" />
    <glyph glyph-name="Uring" unicode="&#x16e;" horiz-adv-x="1399" 
d="M152 391q0 83 20 170l193 901h237l-192 -905q-21 -88 -21 -174q-1 -87 59 -143t193 -56t218 80t124 262l199 936h237l-202 -956q-110 -526 -594 -526q-235 0 -353 106t-118 305zM822 1802q0 -104 104 -104q47 0 77 28t30 76q0 50 -30 78t-76 29q-45 -1 -75 -29t-30 -78z
M1164 1804q0 -104 -66 -166t-172 -61q-106 0 -170 61t-63 164q0 102 65 164q64 62 168 62t171 -60t67 -164z" />
    <glyph glyph-name="uring" unicode="&#x16f;" horiz-adv-x="1208" 
d="M111 274q0 62 12 124l24 124l123 584h236l-129 -610q-31 -141 -31 -193q0 -133 127 -133q72 0 143 57q150 120 211 410l99 469h233l-233 -1106h-185l21 205h-8q-159 -225 -363 -225q-134 0 -207 76t-73 218zM653 1464q0 -104 104 -104q47 0 77 28t30 76q0 50 -30 78
t-76 29q-46 -1 -76 -29t-29 -78zM995 1466q0 -104 -66 -166t-172 -61q-105 0 -169 61t-64 164q0 102 65 164t169 62t170 -60q67 -60 67 -164z" />
    <glyph glyph-name="Uhungarumlaut" unicode="&#x170;" horiz-adv-x="1399" 
d="M152 391q0 83 20 170l193 901h237l-192 -905q-21 -88 -21 -174q-1 -87 59 -143t193 -56t218 80t124 262l199 936h237l-202 -956q-110 -526 -594 -526q-235 0 -353 106t-118 305zM1469 1907v-19q-53 -64 -159 -161t-177 -148h-133v25q119 133 231 303h238zM1100 1907v-19
q-38 -52 -152 -156t-186 -153h-131v25q139 156 229 303h240z" />
    <glyph glyph-name="uhungarumlaut" unicode="&#x171;" horiz-adv-x="1208" 
d="M111 274q0 62 12 124l24 124l123 584h236l-129 -610q-31 -141 -31 -193q0 -133 127 -133q72 0 143 57q150 120 211 410l99 469h233l-233 -1106h-185l21 205h-8q-159 -225 -363 -225q-134 0 -207 76t-73 218zM1280 1569v-19q-52 -64 -158 -161t-178 -148h-133v25
q119 133 231 303h238zM911 1569v-19q-39 -52 -153 -156t-185 -153h-131v25q139 156 229 303h240z" />
    <glyph glyph-name="Uogonek" unicode="&#x172;" horiz-adv-x="1399" 
d="M648 -254q0 -65 63 -65q38 0 92 14v-141q-65 -21 -147 -21t-136 47q-55 48 -55 130t44 145t141 126q-22 -1 -44 -1q-218 0 -336 106t-118 305q0 83 20 170l193 901h237l-192 -905q-21 -88 -21 -174q-1 -87 59 -143t193 -56t218 80t124 262l199 936h237l-202 -956
q-89 -424 -429 -506h50q-110 -88 -150 -146t-40 -108z" />
    <glyph glyph-name="uogonek" unicode="&#x173;" horiz-adv-x="1208" 
d="M111 274q0 62 12 124l24 124l123 584h236l-129 -610q-31 -141 -31 -193q0 -133 127 -133q72 0 143 57q150 120 211 410l99 469h233l-233 -1106h-27q-111 -88 -151 -146t-39 -108q0 -65 63 -65q38 0 92 14v-141q-64 -21 -146 -21t-137 47q-55 48 -55 130t48 149t167 141
l21 205h-8q-159 -225 -363 -225q-134 0 -207 76t-73 218z" />
    <glyph glyph-name="Wcircumflex" unicode="&#x174;" horiz-adv-x="1788" 
d="M1317 0h-258l-37 842l-6 185l4 106h-6q-47 -144 -117 -291l-385 -842h-256l-53 1462h229l19 -850q0 -136 -13 -346h6q83 221 142 355l387 841h225l31 -839l3 -169l-3 -188h8q61 191 131 350l358 846h246zM1448 1579h-152q-76 63 -161 178q-131 -110 -236 -178h-164v25
q231 215 291 303h248q38 -99 174 -303v-25z" />
    <glyph glyph-name="wcircumflex" unicode="&#x175;" horiz-adv-x="1540" 
d="M827 897q-57 -141 -397 -897h-262l-47 1106h221l13 -646q-2 -87 -11 -245h6q66 176 109 272l278 619h254l19 -604l1 -53l-3 -234h6q67 196 105 286q39 91 267 605h244l-518 -1106h-268l-19 627l-1 70zM1229 1241h-152q-76 63 -161 178q-131 -110 -236 -178h-164v25
q231 215 291 303h248q38 -99 174 -303v-25z" />
    <glyph glyph-name="Ycircumflex" unicode="&#x176;" horiz-adv-x="1092" 
d="M582 793l432 669h266l-623 -913l-114 -549h-238l119 553l-238 909h242zM1069 1579h-152q-76 63 -161 178q-131 -110 -236 -178h-164v25q231 215 291 303h248q38 -99 174 -303v-25z" />
    <glyph glyph-name="ycircumflex" unicode="&#x177;" horiz-adv-x="1004" 
d="M418 219h6q86 215 135 313l293 574h254l-688 -1280q-90 -166 -196 -242t-249 -76q-76 0 -143 19v188q75 -16 137 -16q62 -1 122 43t124 156l51 92l-164 1116h232l63 -531q23 -158 23 -356zM951 1241h-152q-76 63 -161 178q-131 -110 -236 -178h-164v25q231 215 291 303
h248q38 -99 174 -303v-25z" />
    <glyph glyph-name="Ydieresis" unicode="&#x178;" horiz-adv-x="1092" 
d="M582 793l432 669h266l-623 -913l-114 -549h-238l119 553l-238 909h242zM956 1854q105 0 105 -95q1 -65 -35 -102t-88 -37q-114 0 -115 98q0 60 35 98t98 38zM573 1854q105 0 105 -95q0 -65 -36 -102t-88 -37q-114 0 -114 98q0 60 35 98t98 38z" />
    <glyph glyph-name="Zacute" unicode="&#x179;" horiz-adv-x="1092" 
d="M901 0h-940l33 168l850 1087h-598l43 207h897l-35 -172l-852 -1085h645zM1124 1907v-19q-54 -66 -158 -162t-175 -147h-156v25q97 108 225 303h264z" />
    <glyph glyph-name="zacute" unicode="&#x17a;" horiz-adv-x="920" 
d="M719 0h-758l29 147l635 781h-439l39 178h705l-37 -170l-623 -758h486zM990 1569v-19q-54 -66 -158 -162t-175 -147h-156v25q97 108 225 303h264z" />
    <glyph glyph-name="Zdotaccent" unicode="&#x17b;" horiz-adv-x="1092" 
d="M901 0h-940l33 168l850 1087h-598l43 207h897l-35 -172l-852 -1085h645zM749 1608q-122 0 -122 114q0 62 39 104t101 42q128 0 128 -107q-1 -71 -41 -112t-105 -41z" />
    <glyph glyph-name="zdotaccent" unicode="&#x17c;" horiz-adv-x="920" 
d="M719 0h-758l29 147l635 781h-439l39 178h705l-37 -170l-623 -758h486zM598 1270q-122 0 -122 114q0 62 39 104t101 42q128 0 128 -107q0 -71 -40 -112t-106 -41z" />
    <glyph glyph-name="Zcaron" unicode="&#x17d;" horiz-adv-x="1092" 
d="M901 0h-940l33 168l850 1087h-598l43 207h897l-35 -172l-852 -1085h645zM445 1907h149q69 -58 162 -178q125 105 238 178h162v-27q-80 -70 -169 -162t-122 -139h-248q-44 110 -172 301v27z" />
    <glyph glyph-name="zcaron" unicode="&#x17e;" horiz-adv-x="920" 
d="M719 0h-758l29 147l635 781h-439l39 178h705l-37 -170l-623 -758h486zM298 1569h149q69 -58 162 -178q125 105 238 178h162v-27q-80 -70 -169 -162t-122 -139h-248q-44 110 -172 301v27z" />
    <glyph glyph-name="longs" unicode="&#x17f;" horiz-adv-x="647" 
d="M-104 -492q-91 0 -150 23v190q64 -20 120 -20t102.5 50t68.5 155l274 1296q41 192 131 278.5t258 86.5q117 0 213 -43l-61 -176q-74 28 -139 28t-107 -42.5t-63 -141.5l-279 -1317q-40 -191 -130.5 -279t-237.5 -88z" />
    <glyph glyph-name="florin" unicode="&#x192;" 
d="M135 -492q-90 0 -149 23v190q64 -20 120 -20t102.5 50t67.5 155l193 915h-178l20 109l197 71l22 117q37 190 129.5 277.5t262.5 87.5q115 0 213 -43l-62 -176q-74 28 -140 28t-107.5 -42.5t-61.5 -141.5l-23 -109h228l-37 -178h-227l-201 -946q-43 -192 -133.5 -279.5
t-235.5 -87.5z" />
    <glyph glyph-name="Ohorn" unicode="&#x1a0;" horiz-adv-x="1522" 
d="M875 1280q-141 0 -253 -96t-175.5 -266t-63.5 -358t81.5 -282t223.5 -94t252.5 95.5t172 265t61.5 357.5t-79 283t-220 95zM1421 922q0 -279 -95 -497t-261.5 -331.5t-406.5 -113.5t-381.5 149t-141.5 415t98.5 486.5t269.5 337.5t388 117q302 0 440 -213q134 69 164 284
h246l8 -24q-41 -152 -129.5 -245.5t-230.5 -149.5q32 -102 32 -215z" />
    <glyph glyph-name="ohorn" unicode="&#x1a1;" horiz-adv-x="1233" 
d="M842 682q0 248 -189 248q-93 0 -166.5 -71.5t-114 -194t-40.5 -247.5q0 -243 196 -243q90 0 162 68t112 190.5t40 249.5zM664 1124q219 0 329 -145q71 28 115 96t68 199h239l8 -23q-40 -157 -125.5 -249.5t-242.5 -149.5q24 -71 24 -160q0 -202 -73 -367.5t-200.5 -254
t-306.5 -88.5t-292 114.5t-113 312.5t71.5 364t200.5 258.5t298 92.5z" />
    <glyph glyph-name="Uhorn" unicode="&#x1af;" horiz-adv-x="1532" 
d="M152 393q0 72 20 168l193 901h237l-192 -907q-21 -90 -21 -147q0 -224 240 -224q147 0 232 83.5t122 258.5l199 936h237l-41 -192q84 23 130 93t65 193h244l10 -24q-47 -176 -171 -284.5t-310 -131.5l-129 -610q-111 -526 -593 -526q-234 0 -353 108t-119 305z" />
    <glyph glyph-name="uhorn" unicode="&#x1b0;" horiz-adv-x="1360" 
d="M109 276q0 66 26 191l135 639h236l-144 -674q-16 -76 -16 -125q0 -137 127 -137q112 0 210.5 127.5t143.5 339.5l99 469h233l-24 -119q80 19 127.5 87t68.5 200h244l8 -25q-44 -174 -168 -282t-313 -133l-176 -834h-185l21 205h-8q-159 -225 -363 -225q-134 0 -208 76.5
t-74 219.5z" />
    <glyph glyph-name="uni01F0" unicode="&#x1f0;" horiz-adv-x="563" 
d="M-113 -492q-93 0 -147 23v190q62 -20 117 -20q131 0 170 186l258 1219h233l-264 -1247q-38 -183 -128 -267t-239 -84zM126 1569h149q69 -58 162 -178q125 105 238 178h162v-27q-80 -70 -169 -162t-122 -139h-248q-44 110 -172 301v27z" />
    <glyph glyph-name="Aringacute" unicode="&#x1fa;" horiz-adv-x="1210" 
d="M809 604q-40 386 -51 574h-21q-45 -104 -286 -574h358zM686 1444q0 -105 107 -105q46 0 75 27.5t29 77.5t-29.5 78t-75.5 28t-76 -28.5t-30 -77.5zM725 1722v19q43 36 112 105t107 116h277v-14q-114 -106 -330 -226h-166zM1030 1440q0 -108 -84 -174l156 -1266h-234
l-43 397h-483l-209 -397h-252l713 1315q-35 48 -35 140t65.5 153t169.5 61t170 -60.5t66 -168.5z" />
    <glyph glyph-name="aringacute" unicode="&#x1fb;" horiz-adv-x="1182" 
d="M332 373q0 -203 158 -203q77 0 156 77.5t130 207.5t51 284q0 88 -47.5 141.5t-127.5 53.5t-155 -77t-120 -209.5t-45 -274.5zM623 1126q196 0 276 -178h10l62 158h180l-236 -1106h-182l21 176h-6q-158 -196 -349 -196q-141 0 -223 101.5t-82 294.5t69.5 369t191.5 278.5
t268 102.5zM627 1421q0 -104 104 -104q47 0 77 28t30 77t-30 77.5t-76 28.5t-75.5 -28.5t-29.5 -78.5zM969 1424q0 -102 -65 -164t-172 -62t-170.5 61t-63.5 163t65 163.5t169 61.5t170.5 -60.5t66.5 -162.5zM1165 1962v-14q-42 -41 -138 -107t-191 -119h-166v19
q118 101 219 221h276z" />
    <glyph glyph-name="AEacute" unicode="&#x1fc;" horiz-adv-x="1753" 
d="M872 614l138 643h-82l-400 -643h344zM1520 0h-777l86 406h-432l-256 -406h-262l930 1462h1020l-43 -205h-539l-84 -395h504l-43 -200h-502l-98 -459h539zM1618 1907v-19q-54 -66 -158 -162t-175 -147h-156v25q97 108 225 303h264z" />
    <glyph glyph-name="aeacute" unicode="&#x1fd;" horiz-adv-x="1726" 
d="M1333 946q-103 0 -189 -86t-122 -227h31q187 -1 293 53t106 150q0 58 -34 84t-85 26zM332 373q0 -203 146 -203q72 0 150 80t125 216q48 134 48 246q0 222 -152 222q-85 0 -159 -80t-116 -211t-42 -270zM989 401q0 -237 241 -237q120 0 300 84v-189q-175 -79 -344 -79
q-222 0 -305 137l-23 -117h-151l20 176h-8q-85 -106 -165 -151t-175 -45q-133 0 -209 103t-76 294t69 368t189 279t260 102q174 0 260 -178h9l63 158h148l-25 -117q111 137 311 137q140 0 220 -76t81 -202q-1 -182 -167 -284t-474 -103h-45zM1423 1569v-19
q-54 -66 -158 -162t-175 -147h-156v25q97 108 225 303h264z" />
    <glyph glyph-name="Oslashacute" unicode="&#x1fe;" horiz-adv-x="1485" 
d="M1180 920q0 88 -19 143l-661 -825q75 -56 204 -56q128 0 240 96t174 264q62 169 62 378zM860 1282q-129 0 -241 -93t-177 -265t-65 -379q0 -88 24 -164l668 836q-80 65 -209 65zM1421 922q0 -279 -95 -497q-96 -217 -262 -331t-372 -114t-332 83l-118 -149l-133 104
l129 160q-103 138 -103 385q1 247 99 467t269 338q171 117 374 117t331 -94l119 149l133 -104l-133 -166q94 -130 94 -348zM1271 1907v-19q-54 -66 -158 -162t-175 -147h-156v25q97 108 225 303h264z" />
    <glyph glyph-name="oslashacute" unicode="&#x1ff;" horiz-adv-x="1174" 
d="M533 168q84 0 158 66q75 66 117 184t42 258q0 45 -6 67l-436 -542q41 -33 125 -33zM653 936q-141 0 -235 -146t-94 -364q0 -39 8 -74l442 549q-45 35 -121 35zM1077 675q0 -183 -74 -351q-75 -168 -201 -255t-276 -87t-247 59l-105 -131l-123 96l115 141q-70 105 -70 283
t70 343t200 258t282 93t255 -61l86 108l125 -96l-100 -117q63 -100 63 -283zM1060 1569v-19q-54 -66 -158 -162t-175 -147h-156v25q97 108 225 303h264z" />
    <glyph glyph-name="Scommaaccent" unicode="&#x218;" horiz-adv-x="1057" 
d="M930 428q0 -210 -144 -329t-377 -119q-232 0 -370 75v224q173 -97 330 -97t236 58t79 163q0 69 -41 123t-159 128q-118 75 -168 130q-103 113 -103 253q-1 140 61 239t174 153t254 54q205 0 381 -92l-86 -191q-161 78 -283 78t-187 -58q-66 -58 -66 -150q-1 -92 61 -152
q32 -30 161 -111t188 -171t59 -208zM523 -125v-20q-29 -65 -93 -153t-129 -155h-135v27q87 156 135 301h222z" />
    <glyph glyph-name="scommaaccent" unicode="&#x219;" horiz-adv-x="922" 
d="M782 340q0 -172 -118 -266t-318 -94t-332 67v203q153 -90 312 -90q97 0 157 40t60 100q-1 60 -35 96t-150 101q-116 63 -168 133t-51 165q0 155 107 243t296 88t339 -84l-76 -176q-140 76 -266 76q-73 0 -119 -33t-45 -85q0 -52 33 -87q32 -35 136 -92t148 -99
q90 -86 90 -206zM458 -125v-20q-29 -65 -93 -153t-129 -155h-135v27q87 156 135 301h222z" />
    <glyph glyph-name="Tcommaaccent" unicode="&#x21a;" horiz-adv-x="1053" 
d="M528 0h-237l264 1257h-379l45 205h998l-43 -205h-381zM493 -125v-20q-29 -65 -93 -153t-129 -155h-135v27q87 156 135 301h222z" />
    <glyph glyph-name="tcommaaccent" unicode="&#x21b;" horiz-adv-x="752" 
d="M354 261q0 -91 110 -91q60 0 142 31v-178q-89 -43 -215 -43q-274 0 -274 247q0 57 16 131l121 570h-162l21 110l190 82l129 232h146l-52 -246h279l-39 -178h-277l-122 -572q-13 -55 -13 -95zM415 -125v-20q-29 -65 -93 -153t-129 -155h-135v27q87 156 135 301h222z" />
    <glyph glyph-name="dotlessj" unicode="&#x237;" horiz-adv-x="563" 
d="M-113 -492q-93 0 -147 23v190q62 -20 117 -20q131 0 170 186l258 1219h233l-264 -1247q-38 -182 -128.5 -266.5t-238.5 -84.5z" />
    <glyph glyph-name="uni02BC" unicode="&#x2bc;" horiz-adv-x="393" 
d="M115 961q114 252 198 501h238l8 -22q-97 -217 -266 -479h-178z" />
    <glyph glyph-name="circumflex" unicode="&#x2c6;" horiz-adv-x="1135" 
d="M1067 1241h-152q-76 63 -161 178q-131 -110 -236 -178h-164v25q231 215 291 303h248q38 -99 174 -303v-25z" />
    <glyph glyph-name="caron" unicode="&#x2c7;" horiz-adv-x="1135" 
d="M422 1569h149q69 -58 162 -178q125 105 238 178h162v-27q-80 -71 -169 -162.5t-122 -138.5h-248q-44 110 -172 301v27z" />
    <glyph glyph-name="macron" unicode="&#x2c9;" horiz-adv-x="1096" 
d="M432 1417h582l-37 -176h-582z" />
    <glyph glyph-name="breve" unicode="&#x2d8;" horiz-adv-x="1135" 
d="M1098 1544q-62 -303 -352 -303q-142 0 -217.5 66t-75.5 182q0 36 4 55h135q0 -63 36.5 -94t123.5 -31q168 0 198 125h148z" />
    <glyph glyph-name="dotaccent" unicode="&#x2d9;" horiz-adv-x="553" 
d="M444 1270q-122 0 -122 114q0 62 39 104t101 42q128 0 128 -107q0 -71 -40.5 -112t-105.5 -41z" />
    <glyph glyph-name="ring" unicode="&#x2da;" horiz-adv-x="1182" 
d="M670 1464q0 -104 104 -104q47 0 77 27t30 77t-30 78.5t-76 28.5t-75.5 -28.5t-29.5 -78.5zM1012 1466q0 -104 -66 -165.5t-172 -61.5t-169.5 61t-63.5 164t64.5 164.5t168.5 61.5t171 -60t67 -164z" />
    <glyph glyph-name="ogonek" unicode="&#x2db;" horiz-adv-x="397" 
d="M23 -254q0 -65 63 -65q38 0 92 14v-141q-64 -21 -146 -21t-137 47.5t-55 129.5t47.5 149t167.5 141h158q-111 -88 -150.5 -145.5t-39.5 -108.5z" />
    <glyph glyph-name="tilde" unicode="&#x2dc;" horiz-adv-x="1135" 
d="M569 1350q-70 0 -106 -111h-137q57 285 256 285q67 0 129 -38t92.5 -55.5t64.5 -17.5t59 26.5t48 86.5h137q-66 -285 -260 -285q-64 0 -126 37.5t-93.5 54.5t-63.5 17z" />
    <glyph glyph-name="hungarumlaut" unicode="&#x2dd;" horiz-adv-x="1135" 
d="M1176 1569v-19q-52 -64 -158.5 -161t-177.5 -148h-133v25q119 133 231 303h238zM807 1569v-19q-39 -51 -152.5 -155.5t-185.5 -153.5h-131v25q139 156 229 303h240z" />
    <glyph glyph-name="uni02F3" unicode="&#x2f3;" horiz-adv-x="682" 
d="M252 -350q0 50 -29 77t-75 27t-76.5 -27t-30.5 -77t26.5 -78.5t76.5 -28.5t79 28.5t29 78.5zM387 -348q0 -100 -64.5 -163.5t-174.5 -63.5t-172 61t-62 164t63.5 164t168.5 61t173 -61.5t68 -161.5z" />
    <glyph glyph-name="uni0300" unicode="&#x300;" horiz-adv-x="0" 
d="M-377 1241h-144q-65 63 -132 151t-101 156v21h245q47 -154 132 -303v-25z" />
    <glyph glyph-name="uni0301" unicode="&#x301;" horiz-adv-x="0" 
d="M-75 1569v-19q-54 -66 -158 -162t-175 -147h-156v25q97 108 225 303h264z" />
    <glyph glyph-name="uni0303" unicode="&#x303;" horiz-adv-x="0" 
d="M-626 1350q-70 0 -106 -111h-137q57 285 256 285q67 0 157 -56q34 -20 64 -38t64 -17t60 27q25 26 48 86h137q-66 -285 -260 -285q-64 1 -154 55q-33 20 -65 37t-64 17z" />
    <glyph glyph-name="hook" unicode="&#x309;" horiz-adv-x="0" 
d="M-205 1516q0 -160 -203 -213l-22 -91h-145l18 166q91 16 128.5 43t37.5 70q0 61 -90 61q-41 0 -111 -14v131q61 19 160 19t163 -44.5t64 -127.5z" />
    <glyph glyph-name="uni030F" unicode="&#x30f;" horiz-adv-x="0" 
d="M-244 1241h-133q-64 64 -131.5 153.5t-99.5 153.5v21h233q42 -150 131 -303v-25zM-608 1241h-133q-60 60 -129 149.5t-103 157.5v21h234q42 -150 131 -303v-25z" />
    <glyph glyph-name="dotbelow" unicode="&#x323;" horiz-adv-x="0" 
d="M-741 -131q118 0 118 -107q0 -71 -39.5 -112t-97.5 -41q-128 0 -129 108q0 68 39 110t109 42z" />
    <glyph glyph-name="tonos" unicode="&#x384;" horiz-adv-x="1143" 
d="M991 1640v-26q-35 -69 -109.5 -178t-146.5 -195h-141v29q94 182 164 370h233z" />
    <glyph glyph-name="dieresistonos" unicode="&#x385;" horiz-adv-x="1143" 
d="M1020 1716v-20q-47 -75 -183 -227l-71 -80h-111v26q107 214 136 301h229zM997 1516q99 0 99 -95q0 -65 -34 -102t-82 -37q-108 0 -108 98q0 60 33.5 98t91.5 38zM520 1516q98 0 98 -95q0 -65 -33 -102t-82 -37q-108 0 -108 98q0 60 33 98t92 38z" />
    <glyph glyph-name="Alphatonos" unicode="&#x386;" horiz-adv-x="1210" 
d="M811 614q-51 530 -51 643q-55 -139 -142 -307l-172 -336h365zM827 406h-485l-209 -406h-254l783 1464h274l166 -1464h-234zM505 1535v-26q-35 -69 -109 -178t-147 -195h-141v29q94 182 164 370h233z" />
    <glyph glyph-name="anoteleia" unicode="&#x387;" horiz-adv-x="551" 
d="M279 569q-129 1 -129 139q0 68 47 116q47 50 117 50q137 0 137 -124q1 -78 -47 -130t-125 -51z" />
    <glyph glyph-name="Epsilontonos" unicode="&#x388;" horiz-adv-x="1227" 
d="M979 0h-776l309 1462h776l-43 -205h-539l-84 -395h502l-41 -203h-504l-96 -456h539zM449 1535v-26q-35 -69 -109 -178t-147 -195h-141v29q94 182 164 370h233z" />
    <glyph glyph-name="Etatonos" unicode="&#x389;" horiz-adv-x="1563" 
d="M1260 0h-238l140 659h-566l-139 -659h-237l309 1462h237l-127 -598h566l127 598h237zM449 1535v-26q-35 -69 -109 -178t-147 -195h-141v29q94 182 164 370h233z" />
    <glyph glyph-name="Iotatonos" unicode="&#x38a;" horiz-adv-x="774" 
d="M234 0l311 1462h235l-311 -1462h-235zM462 1535v-26q-36 -69 -110 -178t-146 -195h-141v29q94 182 164 370h233z" />
    <glyph glyph-name="Omicrontonos" unicode="&#x38c;" horiz-adv-x="1581" 
d="M971 1280q-141 0 -253 -96t-176 -266t-63 -358q-1 -188 81 -282t224 -94t252 96t172 264q62 170 62 358t-79 283t-220 95zM1517 915q0 -272 -95 -490q-96 -217 -262 -331t-406 -114t-381 150q-142 150 -142 414q1 266 99 486t269 338q171 117 405 117t374 -149t139 -421z
M474 1535v-26q-36 -69 -110 -178t-146 -195h-141v29q94 182 164 370h233z" />
    <glyph glyph-name="Upsilontonos" unicode="&#x38e;" horiz-adv-x="1389" 
d="M877 793l432 669h266l-623 -913l-114 -549h-238l119 553l-238 909h242zM449 1535v-26q-35 -69 -109 -178t-147 -195h-141v29q94 182 164 370h233z" />
    <glyph glyph-name="Omegatonos" unicode="&#x38f;" horiz-adv-x="1618" 
d="M281 702q1 225 93 406t254 279t354 98t314 -66q122 -67 188 -191q64 -124 64 -288q0 -233 -106 -421t-320 -314h365l-43 -205h-627l43 203q443 260 443 723q0 170 -82 262t-224 92q-141 0 -245 -72t-165 -210t-61 -302q0 -163 43 -279t142 -214l-43 -203h-580l41 205h360
q-208 173 -208 497zM484 1535v-26q-36 -69 -110 -178t-146 -195h-141v29q94 182 164 370h233z" />
    <glyph glyph-name="iotadieresistonos" unicode="&#x390;" horiz-adv-x="688" 
d="M100 227q0 51 21 154l153 725h236l-156 -737q-14 -68 -14 -105q0 -94 96 -94q65 0 150 31v-178q-89 -43 -217 -43q-269 0 -269 247zM728 1716v-20q-47 -75 -183 -227l-71 -80h-111v26q107 214 136 301h229zM705 1516q99 0 99 -95q0 -65 -34 -102t-82 -37q-108 0 -108 98
q0 60 34 98t91 38zM228 1516q98 0 98 -95q0 -65 -33 -102t-82 -37q-108 0 -108 98q0 60 33 98t92 38z" />
    <glyph glyph-name="Alpha" unicode="&#x391;" horiz-adv-x="1210" 
d="M811 614q-51 530 -51 643q-55 -139 -142 -307l-172 -336h365zM827 406h-485l-209 -406h-254l783 1464h274l166 -1464h-234z" />
    <glyph glyph-name="Beta" unicode="&#x392;" horiz-adv-x="1247" 
d="M571 201q147 0 231 68t83 180q0 111 -60 163t-176 52h-200l-101 -463h223zM688 858q139 0 215 60t76 172q0 172 -223 172h-181l-86 -404h199zM778 1462q222 0 336 -84t113 -239t-87 -252t-239 -127v-8q107 -28 167 -104t60 -183q0 -217 -150 -341t-417 -124h-491
l309 1462h399z" />
    <glyph glyph-name="Gamma" unicode="&#x393;" horiz-adv-x="1001" 
d="M305 0h-235l309 1462h774l-43 -205h-539z" />
    <glyph glyph-name="uni0394" unicode="&#x394;" horiz-adv-x="1190" 
d="M743 1223q-36 -106 -110 -250l-389 -768h592l-78 758q-15 163 -15 260zM657 1464h263l145 -1327l-31 -137h-1089l28 141z" />
    <glyph glyph-name="Epsilon" unicode="&#x395;" horiz-adv-x="1077" 
d="M846 0h-776l309 1462h776l-43 -205h-539l-84 -395h502l-41 -203h-504l-96 -456h539z" />
    <glyph glyph-name="Zeta" unicode="&#x396;" horiz-adv-x="1092" 
d="M901 0h-940l33 168l850 1087h-598l43 207h897l-35 -172l-852 -1085h645z" />
    <glyph glyph-name="Eta" unicode="&#x397;" horiz-adv-x="1411" 
d="M1110 0h-238l140 659h-566l-139 -659h-237l309 1462h237l-127 -598h566l127 598h237z" />
    <glyph glyph-name="Theta" unicode="&#x398;" horiz-adv-x="1497" 
d="M878 1280q-144 0 -257.5 -94.5t-175.5 -262t-62 -355.5t84.5 -286t228.5 -98t254.5 90t173 261t62.5 361t-82 287t-226 97zM1434 910q0 -270 -88 -482t-257 -330t-415 -118t-392.5 152t-146.5 418t97.5 484t269 334.5t409.5 116.5t380.5 -152.5t142.5 -422.5zM1049 844
l-43 -201h-488l41 201h490z" />
    <glyph glyph-name="Iota" unicode="&#x399;" horiz-adv-x="608" 
d="M70 0l311 1462h235l-311 -1462h-235z" />
    <glyph glyph-name="Kappa" unicode="&#x39a;" horiz-adv-x="1198" 
d="M1087 0h-262l-252 655l-149 -100l-117 -555h-237l309 1462h237l-151 -706l141 166l492 540h284l-616 -669z" />
    <glyph glyph-name="Lambda" unicode="&#x39b;" horiz-adv-x="1186" 
d="M-121 0l774 1464h260l164 -1464h-231l-86 885q-15 136 -19 340q-63 -161 -116 -265.5t-492 -959.5h-254z" />
    <glyph glyph-name="Mu" unicode="&#x39c;" horiz-adv-x="1757" 
d="M647 0l-115 1214h-6q-9 -118 -55 -340l-184 -874h-219l309 1462h323l109 -1149h6l606 1149h344l-305 -1462h-227l182 872q39 186 86 342h-6l-643 -1214h-205z" />
    <glyph glyph-name="Nu" unicode="&#x39d;" horiz-adv-x="1491" 
d="M1192 0h-260l-410 1163h-6l-10 -69q-24 -148 -36 -212t-183 -882h-219l309 1462h268l399 -1149h7q6 55 31 193t40 203l160 753h219z" />
    <glyph glyph-name="Xi" unicode="&#x39e;" horiz-adv-x="1063" 
d="M903 203l-43 -203h-895l41 203h897zM313 1462h817l-43 -205h-817zM268 862h654l-41 -200h-656z" />
    <glyph glyph-name="Omicron" unicode="&#x39f;" horiz-adv-x="1485" 
d="M875 1280q-141 0 -253 -96t-176 -266t-63 -358q-1 -188 81 -282t224 -94t252 96t172 264q62 170 62 358t-79 283t-220 95zM1421 915q0 -272 -95 -490q-96 -217 -262 -331t-406 -114t-381 150q-142 150 -142 414q1 266 99 486t269 338q171 117 405 117t374 -149t139 -421z
" />
    <glyph glyph-name="Pi" unicode="&#x3a0;" horiz-adv-x="1407" 
d="M1108 0h-240l267 1257h-562l-266 -1257h-237l309 1462h1038z" />
    <glyph glyph-name="Rho" unicode="&#x3a1;" horiz-adv-x="1174" 
d="M713 1462q461 0 461 -401q0 -248 -170 -381t-472 -133h-110l-115 -547h-237l309 1462h334zM559 748q177 0 275 80t98 225q0 109 -58 159t-180 50h-119l-110 -514h94z" />
    <glyph glyph-name="Sigma" unicode="&#x3a3;" horiz-adv-x="1090" 
d="M-37 0l39 190l537 562l-295 524l39 186h882l-43 -205h-616l291 -522l-504 -532h663l-43 -203h-950z" />
    <glyph glyph-name="Tau" unicode="&#x3a4;" horiz-adv-x="1053" 
d="M528 0h-237l264 1257h-379l45 205h998l-43 -205h-381z" />
    <glyph glyph-name="Upsilon" unicode="&#x3a5;" horiz-adv-x="1092" 
d="M582 793l432 669h266l-623 -913l-114 -549h-238l119 553l-238 909h242z" />
    <glyph glyph-name="Phi" unicode="&#x3a6;" horiz-adv-x="1597" 
d="M375 680q0 -127 67.5 -202.5t200.5 -80.5l152 709q-196 -4 -308 -118t-112 -308zM1294 831q0 126 -70.5 199t-197.5 76l-152 -709q199 11 309.5 125.5t110.5 308.5zM135 676q0 287 184.5 451t518.5 176l36 180h230l-37 -180q226 -17 346.5 -138t120.5 -317t-82 -337
t-239.5 -221t-378.5 -85l-50 -225h-229l49 223q-225 17 -347 140t-122 333z" />
    <glyph glyph-name="Chi" unicode="&#x3a7;" horiz-adv-x="1151" 
d="M1040 0h-256l-192 592l-438 -592h-265l586 770l-250 692h246l178 -540l402 540h266l-551 -710z" />
    <glyph glyph-name="Psi" unicode="&#x3a8;" horiz-adv-x="1587" 
d="M915 440h-28l-94 -440h-230l94 440h-14q-217 0 -336 105.5t-119 292.5q0 83 23 202l90 422h236l-95 -450q-18 -96 -18 -150q0 -117 63.5 -170t194.5 -53h16l174 823h230l-174 -823h16q170 0 262 84t127 256l103 483h239l-108 -508q-55 -263 -217.5 -388.5t-434.5 -125.5z
" />
    <glyph glyph-name="uni03A9" unicode="&#x3a9;" horiz-adv-x="1491" 
d="M154 702q0 225 92.5 406t255 279t354.5 98t314 -66t186.5 -190.5t64.5 -288.5q0 -233 -106.5 -421t-319.5 -314h365l-43 -205h-627l43 203q443 260 443 723q0 170 -82 262t-224 92t-245.5 -72t-164.5 -210.5t-61 -301.5t43 -279t142 -214l-43 -203h-580l41 205h360
q-208 173 -208 497z" />
    <glyph glyph-name="Iotadieresis" unicode="&#x3aa;" horiz-adv-x="608" 
d="M70 0l311 1462h235l-311 -1462h-235zM755 1854q105 0 105 -95q0 -65 -36 -102t-88 -37q-114 0 -114 98q0 60 35 98t98 38zM372 1854q105 0 105 -95q1 -65 -35 -102t-88 -37q-114 0 -115 98q0 60 35 98t98 38z" />
    <glyph glyph-name="Upsilondieresis" unicode="&#x3ab;" horiz-adv-x="1092" 
d="M582 793l432 669h266l-623 -913l-114 -549h-238l119 553l-238 909h242zM977 1854q105 0 105 -95q0 -65 -36 -102t-88 -37q-114 0 -114 98q0 60 35 98t98 38zM594 1854q105 0 105 -95q1 -65 -35 -102t-88 -37q-114 0 -115 98q0 60 35 98t98 38z" />
    <glyph glyph-name="alphatonos" unicode="&#x3ac;" horiz-adv-x="1202" 
d="M819 714q1 220 -169 220q-82 0 -156 -75t-118 -204t-44 -276q0 -209 155 -209q85 0 161 84t124 217t47 243zM623 1126q189 0 274 -180h8l20 39q42 82 81 121h194q-93 -187 -141 -387l-80 -344q-16 -69 -16 -117q0 -84 63 -84q28 0 66 12v-178q-62 -28 -144 -28
q-192 0 -213 186h-6q-85 -102 -163 -144t-171 -42q-141 0 -221 102t-80 300q0 196 68 372t189 274t272 98zM1030 1640v-26q-36 -69 -110 -178t-146 -195h-141v29q94 182 164 370h233z" />
    <glyph glyph-name="epsilontonos" unicode="&#x3ad;" horiz-adv-x="981" 
d="M205 802q1 152 117 238t322 86t353 -79l-77 -177q-139 72 -262 72q-122 0 -180 -41t-58 -113q0 -124 196 -124h129l-36 -179h-131q-135 -1 -210 -45t-75 -120q0 -154 196 -154q167 0 342 90v-195q-159 -81 -363 -81t-310 76q-107 76 -107 210q0 259 314 314v6
q-160 63 -160 216zM955 1640v-26q-35 -69 -109 -178t-147 -195h-141v29q94 182 164 370h233z" />
    <glyph glyph-name="etatonos" unicode="&#x3ae;" horiz-adv-x="1208" 
d="M817 1126q133 0 207 -76t74 -216q0 -69 -23 -181l-244 -1145h-235l248 1164q18 90 18 131q0 131 -129 131q-72 0 -142 -57t-126 -165t-84 -243l-98 -469h-236l236 1106h184l-21 -205h9q158 225 362 225zM1028 1640v-26q-36 -69 -110 -178t-146 -195h-141v29
q94 182 164 370h233z" />
    <glyph glyph-name="iotatonos" unicode="&#x3af;" horiz-adv-x="688" 
d="M100 227q0 51 21 154l153 725h236l-156 -737q-14 -68 -14 -105q0 -94 96 -94q65 0 150 31v-178q-89 -43 -217 -43q-269 0 -269 247zM728 1640v-26q-36 -69 -110 -178t-146 -195h-141v29q94 182 164 370h233z" />
    <glyph glyph-name="upsilondieresistonos" unicode="&#x3b0;" horiz-adv-x="1221" 
d="M520 -20q-191 0 -293 96t-102 272q0 71 25 189l120 569h234l-121 -569q-23 -103 -23 -175q0 -192 178 -192t270 238t91 698h236q0 -586 -154 -856t-461 -270zM1015 1716v-20q-47 -75 -183 -227l-71 -80h-111v26q107 214 136 301h229zM992 1516q99 0 99 -95
q1 -65 -33 -102t-82 -37q-108 0 -109 98q-1 60 33 98t92 38zM515 1516q98 0 98 -95q0 -65 -33 -102t-82 -37q-108 0 -108 98q0 60 33 98t92 38z" />
    <glyph glyph-name="alpha" unicode="&#x3b1;" horiz-adv-x="1202" 
d="M819 714q1 220 -169 220q-82 0 -156 -75t-118 -204t-44 -276q0 -209 155 -209q84 0 160.5 83.5t124 217t47.5 243.5zM623 1126q189 0 274 -180h8l20 39q42 82 81 121h194q-93 -187 -141 -387l-80 -344q-16 -69 -16 -117q0 -84 63 -84q28 0 66 12v-178q-62 -28 -144 -28
q-192 0 -213 186h-6q-84 -102 -162.5 -144t-171.5 -42q-142 0 -221.5 103t-79.5 299t68 371.5t189 274t272 98.5z" />
    <glyph glyph-name="beta" unicode="&#x3b2;" horiz-adv-x="1225" 
d="M769 1378q-93 0 -154.5 -67t-96.5 -224l-182 -843q39 -32 102.5 -53t130.5 -21q133 0 212 85.5t79 223.5q0 236 -252 236h-57l41 190h65q142 0 217.5 76t75.5 217q0 80 -44 130t-137 50zM783 1567q196 0 301.5 -92t105.5 -256q0 -336 -350 -406q125 -27 192.5 -114
t67.5 -225t-59.5 -251.5t-170.5 -178t-266 -64.5q-81 0 -152 19.5t-153 74.5l-119 -566h-235l340 1608q50 236 176 343.5t322 107.5z" />
    <glyph glyph-name="gamma" unicode="&#x3b3;" horiz-adv-x="993" 
d="M410 225h4q55 152 153 334l283 547h252l-567 -1043q-157 -283 -216 -555h-247q43 236 182 504l-154 1094h232l59 -545q19 -165 19 -336z" />
    <glyph glyph-name="delta" unicode="&#x3b4;" horiz-adv-x="1167" 
d="M307 399q1 -227 219 -227q116 0 195.5 107t79.5 278t-123 270q-170 -46 -270.5 -159.5t-100.5 -268.5zM801 1384q-84 0 -129 -39t-45 -100t29.5 -105t149.5 -140q238 -192 238 -445q0 -170 -68 -301t-195.5 -202.5t-276.5 -71.5t-244 48.5t-146 138.5t-51 204
q0 209 128 355.5t372 209.5q-166 132 -166 290t110 249.5t301 91.5t372 -115l-93 -168q-158 100 -286 100z" />
    <glyph glyph-name="epsilon" unicode="&#x3b5;" horiz-adv-x="981" 
d="M205 802q0 153 116.5 238.5t322.5 85.5t353 -79l-77 -177q-139 72 -262 72t-180.5 -41t-57.5 -113q0 -124 196 -124h129l-36 -179h-131q-135 0 -210 -44.5t-75 -120.5q0 -154 196 -154q167 0 342 90v-195q-159 -81 -363 -81t-310.5 76t-106.5 210q0 259 314 314v6
q-160 63 -160 216z" />
    <glyph glyph-name="zeta" unicode="&#x3b6;" horiz-adv-x="938" 
d="M354 -399q191 174 191 266q0 46 -33 74.5t-131 70.5q-152 65 -219.5 158t-67.5 243t70 296t210.5 299t420.5 376q-100 -12 -224 -12h-221l41 184h721l-35 -157q-306 -253 -525.5 -484.5t-219.5 -470.5q0 -92 44 -148t151 -102t179 -103t72 -177q0 -75 -38.5 -147.5
t-139.5 -165.5h-246z" />
    <glyph glyph-name="eta" unicode="&#x3b7;" horiz-adv-x="1208" 
d="M817 1126q134 0 207.5 -76t73.5 -216q0 -69 -23 -181l-244 -1145h-235l248 1164q18 90 18 131q0 131 -129 131q-72 0 -142 -57t-126 -164.5t-84 -243.5l-98 -469h-236l236 1106h184l-21 -205h9q158 225 362 225z" />
    <glyph glyph-name="theta" unicode="&#x3b8;" horiz-adv-x="1155" 
d="M741 1397q-217 0 -340 -510h457q29 153 29 274q0 236 -146 236zM330 403q0 -241 151 -241q117 0 197 134.5t143 403.5h-461q-30 -166 -30 -297zM764 1579q354 0 354 -451q0 -190 -54.5 -434.5t-180 -479t-424.5 -234.5q-178 0 -269.5 111.5t-91.5 315.5t49 424
q93 399 240.5 573.5t376.5 174.5z" />
    <glyph glyph-name="iota" unicode="&#x3b9;" horiz-adv-x="688" 
d="M100 227q0 51 21 154l153 725h236l-156 -737q-14 -68 -14 -105q0 -94 96 -94q65 0 150 31v-178q-89 -43 -217 -43q-269 0 -269 247z" />
    <glyph glyph-name="kappa" unicode="&#x3ba;" horiz-adv-x="1081" 
d="M395 598l492 508h272l-483 -485l291 -621h-262l-209 471l-136 -96l-77 -375h-236l234 1106h235l-57 -262q-13 -53 -68 -246h4z" />
    <glyph glyph-name="lambda" unicode="&#x3bb;" horiz-adv-x="1079" 
d="M361 1370q-63 0 -107 -10l-29 188q73 21 164 21q154 0 230.5 -79t97.5 -257l110 -907q20 -152 89 -152q35 0 71 12v-180q-61 -26 -155 -26t-148 55.5t-68 181.5q-24 215 -37.5 332.5t-15.5 247.5q-26 -60 -52 -123t-60 -125l-304 -549h-251l616 1069l-14 119
q-11 93 -42.5 137.5t-94.5 44.5z" />
    <glyph glyph-name="uni03BC" unicode="&#x3bc;" horiz-adv-x="1221" 
d="M358 297q0 -55 33 -91t96 -36q113 0 209 126t142 337l102 473h231l-235 -1106h-184l22 190h-10q-142 -210 -318 -210q-108 0 -155 81h-8q-9 -73 -39 -235l-66 -318h-233l338 1598h235l-141 -670q-19 -84 -19 -139z" />
    <glyph glyph-name="nu" unicode="&#x3bd;" horiz-adv-x="1063" 
d="M100 1106h232l67 -621q10 -90 19 -276q153 155 254.5 364t173.5 533h237q-71 -365 -217.5 -627.5t-392.5 -478.5h-235z" />
    <glyph glyph-name="xi" unicode="&#x3be;" horiz-adv-x="930" 
d="M483 825q-211 57 -211 251q0 100 87.5 184.5t240.5 123.5q-140 -12 -223 -12h-55l38 184h680l-36 -172h-15q-134 0 -245 -36t-173.5 -103t-62.5 -158q0 -188 266 -188h98l-36 -172h-76q-198 0 -317 -82t-119 -225q0 -80 42 -129t172 -105t182 -120t52 -150
q0 -160 -178 -313h-248q115 107 152 163.5t37 102.5t-31.5 73.5t-155.5 79.5q-262 110 -262 363q0 164 101.5 276.5t295.5 157.5v6z" />
    <glyph glyph-name="omicron" unicode="&#x3bf;" horiz-adv-x="1174" 
d="M1079 691q0 -201 -73 -367q-72 -166 -200 -254t-307 -88t-292 114t-113 313q0 198 72 364q72 167 200 259q129 92 311 92t292 -116t110 -317zM842 682q0 248 -189 248q-93 0 -167 -72t-114 -194t-40 -247q0 -243 196 -243q90 0 162 68t112 190t40 250z" />
    <glyph glyph-name="pi" unicode="&#x3c0;" horiz-adv-x="1346" 
d="M1059 168q54 0 106 25v-177q-82 -36 -192 -36t-167.5 55t-57.5 155q0 57 16 132l123 598h-336l-197 -920h-237l198 920h-231l20 106l197 80h1083l-38 -186h-224l-125 -607q-10 -42 -10 -77q0 -68 72 -68z" />
    <glyph glyph-name="rho" unicode="&#x3c1;" horiz-adv-x="1194" 
d="M860 696q0 238 -178 238q-104 0 -168 -79.5t-102 -262.5l-70 -322q79 -100 203 -100q86 0 155.5 67t114.5 195.5t45 263.5zM687 1126q201 0 306 -113t105 -317t-68 -370t-187 -256t-277 -90t-273 124q-19 -138 -115 -596h-233l235 1113q56 268 181 386.5t326 118.5z" />
    <glyph glyph-name="sigma1" unicode="&#x3c2;" horiz-adv-x="938" 
d="M332 475q0 -114 44 -175.5t172 -115.5t180 -117.5t52 -148.5t-41.5 -160.5t-136.5 -163.5h-248q87 82 138 149t51 121t-32.5 82.5t-123.5 65.5q-157 65 -225 169t-68 274t79.5 335t212 250.5t292.5 85.5t295 -61l-70 -184q-122 53 -219 53t-175 -59.5t-127.5 -172.5
t-49.5 -227z" />
    <glyph glyph-name="sigma" unicode="&#x3c3;" horiz-adv-x="1227" 
d="M723 922q-185 0 -288 -130t-103 -358q0 -260 196 -260q139 0 220 133t81 355q0 151 -57 260h-49zM1059 594q0 -117 -41 -236.5t-151.5 -247.5t-354.5 -128q-201 0 -309.5 116.5t-108.5 327.5t75.5 363.5t221.5 234.5t348 82h539l-37 -184h-276q94 -136 94 -328z" />
    <glyph glyph-name="tau" unicode="&#x3c4;" horiz-adv-x="938" 
d="M485 265q-1 -95 109 -95q60 0 143 31v-178q-89 -43 -215 -43q-274 0 -274 247q0 61 20 154l113 539h-297l20 106l195 80h690l-39 -186h-334l-114 -543q-17 -68 -17 -112z" />
    <glyph glyph-name="upsilon" unicode="&#x3c5;" horiz-adv-x="1221" 
d="M520 -20q-191 0 -293 96t-102 272q0 71 25 189l120 569h234l-121 -569q-23 -103 -23 -175q0 -192 178 -192t269.5 237.5t91.5 698.5h236q0 -587 -154 -856.5t-461 -269.5z" />
    <glyph glyph-name="phi" unicode="&#x3c6;" horiz-adv-x="1468" 
d="M1137 739q0 203 -111 203q-59 0 -95 -48.5t-59 -156.5l-122 -565q121 15 207.5 92t133 201.5t46.5 273.5zM94 442q0 195 81 358.5t267 329.5l150 -137q-136 -134 -199 -264t-63 -278q0 -246 194 -279l105 498q37 177 112.5 316.5t294.5 139.5q160 0 249 -104t89 -304
t-80.5 -367.5t-230.5 -263t-354 -107.5l-99 -472h-227l102 478q-183 22 -287 141.5t-104 314.5z" />
    <glyph glyph-name="chi" unicode="&#x3c7;" horiz-adv-x="1079" 
d="M288 1118q100 0 159.5 -65t78.5 -213l35 -267l365 533h254l-562 -782l70 -480q11 -75 37.5 -108t76.5 -33t95 14v-182q-77 -27 -177 -27q-206 0 -243 289l-43 326l-420 -615h-260l625 863l-57 407q-20 142 -92 142q-34 0 -80 -15l-41 180q79 33 179 33z" />
    <glyph glyph-name="psi" unicode="&#x3c8;" horiz-adv-x="1559" 
d="M1237 1106h236q0 -400 -75.5 -635t-232 -353.5t-401.5 -137.5l-100 -472h-228l101 472q-200 17 -303 117t-103 270q0 61 10 125l129 614h234l-119 -563q-18 -93 -18 -175t54.5 -138.5t156.5 -63.5l292 1388h228l-293 -1384q224 28 328 247.5t104 688.5z" />
    <glyph glyph-name="omega" unicode="&#x3c9;" horiz-adv-x="1587" 
d="M324 369q0 -201 129 -201q79 0 125.5 67.5t74.5 192.5l64 301h225q-40 -188 -62 -291.5t-18 -128.5q0 -141 115 -141q81 0 146.5 80.5t104 231t38.5 316.5t-29 310h225q31 -142 31 -291q0 -246 -66.5 -441.5t-182.5 -294.5t-269 -99q-199 0 -254 188q-62 -100 -137 -144
t-176 -44q-147 0 -230.5 100t-83.5 282q0 361 254 744h240q-264 -394 -264 -737z" />
    <glyph glyph-name="iotadieresis" unicode="&#x3ca;" horiz-adv-x="688" 
d="M100 227q0 51 21 154l153 725h236l-156 -737q-14 -68 -14 -105q0 -94 96 -94q65 0 150 31v-178q-89 -43 -217 -43q-269 0 -269 247zM660 1516q105 0 105 -95q1 -65 -35 -102t-88 -37q-114 0 -115 98q0 60 35 98t98 38zM277 1516q105 0 105 -95q0 -65 -36 -102t-88 -37
q-114 0 -114 98q0 60 35 98t98 38z" />
    <glyph glyph-name="upsilondieresis" unicode="&#x3cb;" horiz-adv-x="1221" 
d="M520 -20q-191 0 -293 96t-102 272q0 71 25 189l120 569h234l-121 -569q-23 -103 -23 -175q0 -192 178 -192t270 238t91 698h236q0 -586 -154 -856t-461 -270zM941 1516q105 0 105 -95q0 -65 -36 -102t-88 -37q-114 0 -114 98q0 60 35 98t98 38zM558 1516q105 0 105 -95
q1 -65 -35 -102t-88 -37q-114 0 -115 98q0 60 35 98t98 38z" />
    <glyph glyph-name="omicrontonos" unicode="&#x3cc;" horiz-adv-x="1174" 
d="M1079 691q0 -201 -73 -367q-72 -166 -200 -254t-307 -88t-292 114t-113 313q0 198 72 364q72 167 200 259q129 92 311 92t292 -116t110 -317zM842 682q0 248 -189 248q-93 0 -167 -72t-114 -194t-40 -247q0 -243 196 -243q90 0 162 68t112 190t40 250zM1007 1640v-26
q-35 -69 -109 -178t-147 -195h-141v29q94 182 164 370h233z" />
    <glyph glyph-name="upsilontonos" unicode="&#x3cd;" horiz-adv-x="1221" 
d="M520 -20q-191 0 -293 96t-102 272q0 71 25 189l120 569h234l-121 -569q-23 -103 -23 -175q0 -192 178 -192t270 238t91 698h236q0 -586 -154 -856t-461 -270zM1007 1640v-26q-35 -69 -109 -178t-147 -195h-141v29q94 182 164 370h233z" />
    <glyph glyph-name="omegatonos" unicode="&#x3ce;" horiz-adv-x="1587" 
d="M324 369q0 -201 129 -201q79 0 125 68t75 192l64 301h225q-40 -187 -62 -291t-18 -129q0 -141 115 -141q81 0 147 80t104 232q38 150 38 316t-29 310h225q31 -142 31 -291q-1 -245 -67 -441t-182 -295t-269 -99q-199 0 -254 188q-62 -100 -137 -144t-176 -44
q-146 0 -230 100t-84 282q0 361 254 744h240q-264 -394 -264 -737zM1216 1640v-26q-36 -69 -110 -178t-146 -195h-141v29q94 182 164 370h233z" />
    <glyph glyph-name="uni03D1" unicode="&#x3d1;" horiz-adv-x="1292" 
d="M637 1193q0 -206 315 -210q6 40 6 107q0 151 -43 228t-119 77t-117.5 -51.5t-41.5 -150.5zM174 666q-48 0 -92 -27l4 174q96 39 186 39t139.5 -47t49.5 -115q0 -90 -43 -215t-43 -180q0 -129 143 -129t248 162.5t164 474.5q-249 7 -386.5 110t-137.5 279t110 280.5
t294 104.5t284 -131.5t100 -374.5q0 -54 -4 -88h147l-39 -178h-133q-42 -267 -181 -546t-486 -279q-165 0 -258 76t-93 208q0 66 28 147t41 121.5t13 75.5q0 58 -55 58z" />
    <glyph glyph-name="uni03D2" unicode="&#x3d2;" horiz-adv-x="1110" 
d="M1152 1475q85 0 146 -23l-45 -182q-40 10 -61 10q-49 0 -125.5 -80t-411.5 -661l-114 -539h-238l119 553l-236 909h240l154 -669q273 516 380 599t192 83z" />
    <glyph glyph-name="uni03D6" unicode="&#x3d6;" horiz-adv-x="1772" 
d="M410 360q0 -192 125 -192q146 0 202 260l35 160h223l-30 -146q-19 -76 -19 -133q0 -141 115 -141q120 0 196 164.5t76 402.5q0 94 -14 185h-727q-182 -308 -182 -560zM496 -20q-152 0 -235 97t-83 279q0 132 48.5 280t142.5 284h-269l21 106l196 80h1500l-39 -186h-240
q23 -100 23 -260t-65.5 -330.5t-177 -260t-255.5 -89.5q-206 0 -256 194q-54 -91 -128 -142.5t-183 -51.5z" />
    <glyph glyph-name="uni0400" unicode="&#x400;" horiz-adv-x="1077" 
d="M846 0h-776l309 1462h776l-43 -205h-539l-84 -395h502l-41 -203h-504l-96 -456h539zM903 1579h-144q-65 63 -132 151t-101 156v21h245q47 -154 132 -303v-25z" />
    <glyph glyph-name="afii10023" unicode="&#x401;" horiz-adv-x="1077" 
d="M846 0h-776l309 1462h776l-43 -205h-539l-84 -395h502l-41 -203h-504l-96 -456h539zM1003 1854q105 0 105 -95q0 -65 -36 -102t-88 -37q-114 0 -114 98q0 60 35 98t98 38zM620 1854q105 0 105 -95q1 -65 -35 -102t-88 -37q-114 0 -115 98q0 60 35 98t98 38z" />
    <glyph glyph-name="afii10051" unicode="&#x402;" horiz-adv-x="1442" 
d="M868 -20q-98 0 -166 28v203q63 -29 143 -29t125 46t69 161t24 180q0 138 -172 138h-256l-150 -707h-239l268 1257h-338l45 205h950l-43 -205h-376l-74 -346h250q187 0 281 -84t94 -233q0 -96 -38 -273t-131 -259t-266 -82z" />
    <glyph glyph-name="afii10052" unicode="&#x403;" horiz-adv-x="1001" 
d="M305 0h-235l309 1462h774l-43 -205h-539zM1122 1907v-19q-54 -66 -158 -162t-175 -147h-156v25q97 108 225 303h264z" />
    <glyph glyph-name="afii10053" unicode="&#x404;" horiz-adv-x="1225" 
d="M135 542q0 264 105.5 486.5t281.5 338.5t396 116t395 -92l-94 -195q-152 82 -310 82t-288 -111t-193 -313h578l-41 -203h-576q-6 -31 -6 -106q0 -175 81.5 -268t233.5 -93t340 68v-205q-177 -67 -374 -67q-254 0 -391.5 149t-137.5 413z" />
    <glyph glyph-name="afii10054" unicode="&#x405;" horiz-adv-x="1057" 
d="M930 428q0 -210 -144 -329t-377 -119q-232 0 -370 75v224q173 -97 330 -97t236 58t79 163q0 69 -41 123t-159 128q-118 75 -168 130q-103 113 -103 253q-1 140 61 239t174 153t254 54q205 0 381 -92l-86 -191q-161 78 -283 78t-187 -58q-66 -58 -66 -150q-1 -92 61 -152
q32 -30 161 -111t188 -171t59 -208z" />
    <glyph glyph-name="afii10055" unicode="&#x406;" horiz-adv-x="608" 
d="M70 0l311 1462h235l-311 -1462h-235z" />
    <glyph glyph-name="afii10056" unicode="&#x407;" horiz-adv-x="608" 
d="M70 0l311 1462h235l-311 -1462h-235zM755 1854q105 0 105 -95q0 -65 -36 -102t-88 -37q-114 0 -114 98q0 60 35 98t98 38zM372 1854q105 0 105 -95q1 -65 -35 -102t-88 -37q-114 0 -115 98q0 60 35 98t98 38z" />
    <glyph glyph-name="afii10057" unicode="&#x408;" horiz-adv-x="612" 
d="M-152 -408q-104 0 -170 25l5 201q84 -21 153 -21q201 0 254 250l299 1415h238l-305 -1446q-46 -216 -162 -320t-312 -104z" />
    <glyph glyph-name="afii10058" unicode="&#x409;" horiz-adv-x="1890" 
d="M1217 199q317 0 317 278q0 191 -227 191h-125l-101 -469h136zM70 -20q-74 0 -133 22v201q60 -21 114 -21t98 31.5t85.5 103.5t118 293.5t241.5 851.5h756l-125 -594h88q226 0 345.5 -95t119.5 -281q0 -237 -154 -364.5t-440 -127.5h-381l264 1255h-295l-60 -225
q-139 -513 -218 -704.5t-176 -268.5t-248 -77z" />
    <glyph glyph-name="afii10059" unicode="&#x40a;" horiz-adv-x="1884" 
d="M1212 199q156 0 236 70t80 206q0 193 -228 193h-124l-101 -469h137zM1315 870q224 0 339 -95t115 -281q0 -239 -152 -366.5t-435 -127.5h-387l141 668h-487l-142 -668h-237l309 1462h237l-124 -592h485l127 592h237l-124 -592h98z" />
    <glyph glyph-name="afii10060" unicode="&#x40b;" horiz-adv-x="1442" 
d="M1063 577q0 60 -43.5 95t-136.5 35h-248l-150 -707h-239l268 1257h-338l45 205h950l-43 -205h-376l-74 -346h250q372 0 372 -325q0 -68 -22 -172l-84 -414h-242l97 442q14 75 14 135z" />
    <glyph glyph-name="afii10061" unicode="&#x40c;" horiz-adv-x="1182" 
d="M1092 0h-267l-366 721l-152 -721h-237l309 1462h237l-149 -698l623 698h278l-659 -727zM1204 1907v-19q-54 -66 -158 -162t-175 -147h-156v25q97 108 225 303h264z" />
    <glyph glyph-name="uni040D" unicode="&#x40d;" horiz-adv-x="1487" 
d="M379 1462h221q-215 -1013 -248 -1128h8l852 1128h285l-309 -1462h-219q111 532 173 827t75 322h-7l-854 -1149h-286zM1043 1579h-144q-65 63 -132 151t-101 156v21h245q47 -154 132 -303v-25z" />
    <glyph glyph-name="afii10062" unicode="&#x40e;" horiz-adv-x="1198" 
d="M202 -20q-111 0 -190 30v217q82 -39 175 -39t159 49t148 183l-297 1042h239l166 -637q39 -160 49 -221q50 118 97 199l374 659h264l-643 -1067q-107 -178 -183 -260q-76 -83 -162 -119q-85 -36 -196 -36zM789 1579q-377 0 -377 277q0 28 8 57h205l-4 -53q0 -133 172 -133
q105 1 161 45t76 141h217q-39 -174 -153 -254t-305 -80z" />
    <glyph glyph-name="afii10145" unicode="&#x40f;" horiz-adv-x="1407" 
d="M379 1462h239l-266 -1257h561l267 1257h237l-309 -1462h-403l-87 -403h-231l86 403h-403z" />
    <glyph glyph-name="afii10017" unicode="&#x410;" horiz-adv-x="1210" 
d="M811 614q-51 530 -51 643q-55 -139 -142 -307l-172 -336h365zM827 406h-485l-209 -406h-254l783 1464h274l166 -1464h-234z" />
    <glyph glyph-name="afii10018" unicode="&#x411;" horiz-adv-x="1184" 
d="M496 199q163 0 245 69.5t82 202.5q0 197 -227 197h-147l-101 -469h148zM600 868q465 0 465 -383q0 -234 -154.5 -359.5t-439.5 -125.5h-399l309 1462h776l-43 -205h-541l-81 -389h108z" />
    <glyph glyph-name="afii10019" unicode="&#x412;" horiz-adv-x="1247" 
d="M571 201q147 0 231 68t83 180q0 111 -60 163t-176 52h-200l-101 -463h223zM688 858q139 0 215 60t76 172q0 172 -223 172h-181l-86 -404h199zM778 1462q222 0 336 -84t113 -239t-87 -252t-239 -127v-8q107 -28 167 -104t60 -183q0 -217 -150 -341t-417 -124h-491
l309 1462h399z" />
    <glyph glyph-name="afii10020" unicode="&#x413;" horiz-adv-x="1001" 
d="M305 0h-235l309 1462h774l-43 -205h-539z" />
    <glyph glyph-name="afii10021" unicode="&#x414;" horiz-adv-x="1372" 
d="M1049 1255h-226q-80 -244 -217 -540t-280 -510h497zM891 -401l86 401h-846l-86 -401h-227l127 606h114q183 257 344.5 594.5t258.5 662.5h671l-266 -1257h186l-129 -606h-233z" />
    <glyph glyph-name="afii10022" unicode="&#x415;" horiz-adv-x="1077" 
d="M846 0h-776l309 1462h776l-43 -205h-539l-84 -395h502l-41 -203h-504l-96 -456h539z" />
    <glyph glyph-name="afii10024" unicode="&#x416;" horiz-adv-x="1681" 
d="M539 774l-322 688h244l313 -692l148 692h229l-147 -692l587 692h267l-627 -729l334 -733h-252l-320 725l-151 -725h-230l152 723l-602 -723h-275z" />
    <glyph glyph-name="afii10025" unicode="&#x417;" horiz-adv-x="1155" 
d="M396 172q197 0 293.5 73t96.5 195t-83.5 172t-237.5 50h-178l41 190h164q190 0 291.5 68t101.5 188q0 90 -55 135t-154 45q-173 0 -357 -121l-90 166q125 82 243 116t278 34t270 -91t110 -246t-104 -258t-289 -128v-4q137 -18 216 -103t79 -217q0 -214 -162 -335
t-429 -121t-425 79v213q183 -100 380 -100z" />
    <glyph glyph-name="afii10026" unicode="&#x418;" horiz-adv-x="1487" 
d="M379 1462h221q-215 -1013 -248 -1128h8l852 1128h285l-309 -1462h-219q112 532 173.5 827t74.5 322h-7l-854 -1149h-286z" />
    <glyph glyph-name="afii10027" unicode="&#x419;" horiz-adv-x="1487" 
d="M379 1462h221q-215 -1013 -248 -1128h8l852 1128h285l-309 -1462h-219q111 532 173 827t75 322h-7l-854 -1149h-286zM942 1579q-377 0 -377 277q0 28 8 57h205l-4 -53q0 -133 172 -133q106 1 162 45t75 141h217q-40 -174 -154 -254t-304 -80z" />
    <glyph glyph-name="afii10028" unicode="&#x41a;" horiz-adv-x="1182" 
d="M1092 0h-267l-366 721l-152 -721h-237l309 1462h237l-149 -698l623 698h278l-659 -727z" />
    <glyph glyph-name="afii10029" unicode="&#x41b;" horiz-adv-x="1370" 
d="M70 -23q-81 0 -133 25v201q55 -21 111 -21t100.5 31.5t86 103.5t118 293.5t241.5 851.5h786l-311 -1462h-238l269 1255h-328q-135 -520 -227.5 -793.5t-195.5 -379t-279 -105.5z" />
    <glyph glyph-name="afii10030" unicode="&#x41c;" horiz-adv-x="1757" 
d="M647 0l-115 1214h-6q-9 -118 -55 -340l-184 -874h-219l309 1462h323l109 -1149h6l606 1149h344l-305 -1462h-227l182 872q39 186 86 342h-6l-643 -1214h-205z" />
    <glyph glyph-name="afii10031" unicode="&#x41d;" horiz-adv-x="1411" 
d="M1110 0h-238l140 659h-566l-139 -659h-237l309 1462h237l-127 -598h566l127 598h237z" />
    <glyph glyph-name="afii10032" unicode="&#x41e;" horiz-adv-x="1485" 
d="M875 1280q-141 0 -253 -96t-176 -266t-63 -358q-1 -188 81 -282t224 -94t252 96t172 264q62 170 62 358t-79 283t-220 95zM1421 915q0 -272 -95 -490q-96 -217 -262 -331t-406 -114t-381 150q-142 150 -142 414q1 266 99 486t269 338q171 117 405 117t374 -149t139 -421z
" />
    <glyph glyph-name="afii10033" unicode="&#x41f;" horiz-adv-x="1407" 
d="M1108 0h-240l267 1257h-562l-266 -1257h-237l309 1462h1038z" />
    <glyph glyph-name="afii10034" unicode="&#x420;" horiz-adv-x="1174" 
d="M713 1462q461 0 461 -401q0 -248 -170 -381t-472 -133h-110l-115 -547h-237l309 1462h334zM559 748q177 0 275 80t98 225q0 109 -58 159t-180 50h-119l-110 -514h94z" />
    <glyph glyph-name="afii10035" unicode="&#x421;" horiz-adv-x="1225" 
d="M919 1278q-149 0 -270 -89t-193 -259t-73 -363q0 -383 326 -383q141 0 329 68v-205q-180 -67 -374 -67q-248 0 -388 148t-141 413q-1 264 105 487t282 339t398 116t393 -92l-94 -195q-151 82 -300 82z" />
    <glyph glyph-name="afii10036" unicode="&#x422;" horiz-adv-x="1053" 
d="M528 0h-237l264 1257h-379l45 205h998l-43 -205h-381z" />
    <glyph glyph-name="afii10037" unicode="&#x423;" horiz-adv-x="1198" 
d="M202 -20q-111 0 -190 30v217q82 -39 175 -39t159.5 49t147.5 183l-297 1042h239l166 -637q39 -160 49 -221q50 118 97 199l374 659h264l-643 -1067q-107 -178 -183.5 -260t-161.5 -118.5t-196 -36.5z" />
    <glyph glyph-name="afii10038" unicode="&#x424;" horiz-adv-x="1597" 
d="M375 680q-1 -126 67 -202t201 -81l152 709q-196 -4 -308 -118t-112 -308zM1294 831q0 126 -70 199t-198 76l-152 -709q200 11 310 125t110 309zM135 676q1 287 185 451t518 176l36 180h230l-37 -180q227 -17 347 -139t120 -316q0 -196 -82 -337t-240 -221t-378 -85
l-50 -225h-229l49 223q-225 17 -347 140t-122 333z" />
    <glyph glyph-name="afii10039" unicode="&#x425;" horiz-adv-x="1151" 
d="M1040 0h-256l-192 592l-438 -592h-265l586 770l-250 692h246l178 -540l402 540h266l-551 -710z" />
    <glyph glyph-name="afii10040" unicode="&#x426;" horiz-adv-x="1432" 
d="M1321 201l-129 -604h-234l86 403h-976l309 1462h239l-266 -1257h547l266 1257h238l-268 -1261h188z" />
    <glyph glyph-name="afii10041" unicode="&#x427;" horiz-adv-x="1343" 
d="M566 494q-174 0 -261.5 78.5t-87.5 220.5q0 61 16 141l111 528h238l-107 -510q-16 -68 -16 -110q1 -144 161 -144t351 76l143 688h240l-310 -1462h-239l123 580q-188 -86 -362 -86z" />
    <glyph glyph-name="afii10042" unicode="&#x428;" horiz-adv-x="2005" 
d="M68 0l309 1462h244l-269 -1257h457l266 1257h244l-266 -1257h454l267 1257h241l-309 -1462h-1638z" />
    <glyph glyph-name="afii10043" unicode="&#x429;" horiz-adv-x="2046" 
d="M1935 201l-129 -604h-231l86 403h-1593l309 1462h244l-269 -1257h457l266 1257h244l-266 -1257h454l267 1257h241l-266 -1261h186z" />
    <glyph glyph-name="afii10044" unicode="&#x42a;" horiz-adv-x="1352" 
d="M668 199q163 0 245 69.5t82 188.5t-58 165t-169 46h-139l-101 -469h140zM774 868q228 0 346.5 -96.5t118.5 -286.5q0 -233 -153.5 -359t-440.5 -126h-397l266 1257h-338l45 205h576l-127 -594h104z" />
    <glyph glyph-name="afii10045" unicode="&#x42b;" horiz-adv-x="1679" 
d="M473 199q162 0 245 69t83 188t-58.5 165.5t-169.5 46.5h-124l-101 -469h125zM580 868q227 0 345.5 -96t118.5 -287q0 -233 -153.5 -359t-439.5 -126h-381l309 1462h237l-124 -594h88zM1380 0h-241l309 1462h242z" />
    <glyph glyph-name="afii10046" unicode="&#x42c;" horiz-adv-x="1174" 
d="M489 199q162 0 245 69t83 203q0 197 -227 197h-141l-101 -469h141zM594 868q465 0 465 -383q0 -234 -154.5 -359.5t-439.5 -125.5h-395l309 1462h237l-124 -594h102z" />
    <glyph glyph-name="afii10047" unicode="&#x42d;" horiz-adv-x="1225" 
d="M381 184q396 0 502 467h-580l41 203h569l2 72q0 170 -79 261t-220 91t-327 -70l-62 195q199 80 431 80t367.5 -144t135.5 -420t-96 -495.5t-268 -331.5t-401 -112t-373 81v218q182 -95 358 -95z" />
    <glyph glyph-name="afii10048" unicode="&#x42e;" horiz-adv-x="2032" 
d="M1444 1280q-130 0 -234 -95.5t-162.5 -266t-58.5 -359.5t75.5 -282t207.5 -93t232 91t159 260t59 363t-74 288t-204 94zM1968 915q0 -273 -89 -489.5t-247 -331t-388 -114.5t-366.5 149t-136.5 414q0 65 7 116h-302l-139 -659h-237l309 1462h237l-127 -598h291
q71 289 253.5 455t426.5 166t376 -148.5t132 -421.5z" />
    <glyph glyph-name="afii10049" unicode="&#x42f;" horiz-adv-x="1210" 
d="M782 1262q-156 0 -235.5 -68.5t-79.5 -183.5t64.5 -170.5t179.5 -55.5h129l102 478h-160zM219 991q0 223 148.5 347t418.5 124h435l-310 -1462h-237l123 586h-174l-439 -586h-284l514 664q-104 61 -149.5 141t-45.5 186z" />
    <glyph glyph-name="afii10065" unicode="&#x430;" horiz-adv-x="1186" 
d="M332 373q0 -203 158 -203q77 0 156 78t130 207q51 130 51 284q0 87 -47 141q-48 54 -128 54t-155 -77t-120 -209t-45 -275zM623 1126q196 0 276 -178h10l62 158h180l-236 -1106h-182l21 176h-6q-158 -196 -349 -196q-141 0 -223 102t-82 294q0 193 70 369q70 177 191 279
q122 102 268 102z" />
    <glyph glyph-name="afii10066" unicode="&#x431;" horiz-adv-x="1153" 
d="M526 172q166 0 228.5 174t62.5 299q0 201 -145 201q-75 0 -160.5 -55.5t-146.5 -143.5q-23 -113 -23 -205q0 -270 184 -270zM752 1030q143 0 223 -94t80 -283t-69.5 -348.5t-192.5 -242t-303 -82.5t-283 120.5t-103 346.5t67 445.5t180.5 362.5t258.5 195q67 27 240 61
t346 56l27 -199l-106 -16q-335 -49 -488.5 -122.5t-231.5 -377.5h2q150 178 353 178z" />
    <glyph glyph-name="afii10067" unicode="&#x432;" horiz-adv-x="1137" 
d="M688 946q-119 0 -204 -79t-124 -220h213q133 0 203 46t70 114q0 139 -158 139zM330 420q0 -264 225 -264q105 0 164 47.5t59 123.5t-56.5 112t-182.5 36h-207l-2 -27v-28zM694 1126q180 0 281.5 -75t101.5 -213q0 -220 -260 -279v-4q193 -52 193 -229q0 -100 -54.5 -178
t-158.5 -123t-250 -45q-220 0 -336.5 116.5t-116.5 325.5t74 368.5t210 247.5t316 88z" />
    <glyph glyph-name="afii10068" unicode="&#x433;" horiz-adv-x="958" 
d="M37 274q0 170 115.5 246t266.5 131t199 96t48 93q0 102 -132 102t-290 -74l-60 174q189 84 366 84t265 -71t88 -197t-71.5 -206.5t-247.5 -147.5q-178 -59 -240.5 -107.5t-62.5 -115.5q0 -119 168 -119q132 0 319 86v-189q-170 -79 -354 -79q-183 0 -280 77t-97 217z" />
    <glyph glyph-name="afii10069" unicode="&#x434;" horiz-adv-x="1192" 
d="M506 172q122 0 212.5 134t131.5 368q-26 90 -83 142t-137 52t-150 -62.5t-109 -172t-39 -227.5t46 -176t128 -58zM647 1577q473 0 473 -639q0 -270 -81.5 -496.5t-224 -344t-328.5 -117.5t-289 110t-103 298t63 339t177.5 237.5t257.5 86.5q191 0 285 -179h6l2 34v28
q0 232 -65.5 341t-205.5 109q-107 0 -208 -45l-54 181q133 57 295 57z" />
    <glyph glyph-name="afii10070" unicode="&#x435;" horiz-adv-x="1075" 
d="M332 401q0 -237 236 -237q123 0 300 84v-187q-177 -81 -365 -81q-189 0 -299 111t-110 309t78 370q78 170 210 263t294 93t252 -72t90 -206q0 -182 -166 -284t-475 -103h-43l-2 -31v-29zM664 946q-96 0 -180 -86t-122 -227h29q188 -1 294 53t106 152q0 52 -32 80t-95 28z
" />
    <glyph glyph-name="afii10072" unicode="&#x436;" horiz-adv-x="1837" 
d="M100 -20q-68 0 -129 14l37 188q48 -12 90 -12q95 0 170 71t117.5 194t42.5 251q0 248 -170 248q-56 0 -117 -21v191q76 22 158 22q173 0 269 -111t96 -315q0 -27 -5 -65h168l101 471h221l-102 -471h159q55 229 196.5 360t336.5 131q83 0 137 -14l-41 -188q-44 10 -94 10
q-90 0 -163.5 -65.5t-118 -190t-44.5 -254.5q0 -254 168 -254q50 0 117 23v-193q-70 -20 -156 -20q-172 0 -268 108.5t-96 314.5v33l2 33h-170l-101 -469h-219l101 469h-158q-54 -227 -196 -358t-339 -131z" />
    <glyph glyph-name="afii10073" unicode="&#x437;" horiz-adv-x="983" 
d="M370 -20q-221 0 -360 71v203q170 -88 321 -88t222.5 47t71.5 125t-46.5 112.5t-146.5 34.5h-162l39 179h111q146 0 210 40t64 121q0 117 -164 117q-124 0 -297 -74l-61 174q196 84 382 84t280 -70t94 -188q0 -231 -258 -288v-7q188 -48 188 -226q0 -177 -133.5 -272
t-354.5 -95z" />
    <glyph glyph-name="afii10074" unicode="&#x438;" horiz-adv-x="1208" 
d="M111 274q0 62 12 124l24 124l123 584h236l-129 -610q-31 -141 -31 -193q0 -133 127 -133q72 0 143 57q150 120 211 410l99 469h233l-233 -1106h-185l21 205h-8q-159 -225 -363 -225q-134 0 -207 76t-73 218z" />
    <glyph glyph-name="afii10075" unicode="&#x439;" horiz-adv-x="1208" 
d="M111 274q0 62 12 124l24 124l123 584h236l-129 -610q-31 -141 -31 -193q0 -133 127 -133q72 0 143 57q150 120 211 410l99 469h233l-233 -1106h-185l21 205h-8q-159 -225 -363 -225q-134 0 -207 76t-73 218zM740 1241q-377 0 -377 277q0 28 8 57h205l-4 -53
q0 -133 172 -133q106 1 162 45t75 141h217q-40 -174 -154 -254t-304 -80z" />
    <glyph glyph-name="afii10076" unicode="&#x43a;" horiz-adv-x="1079" 
d="M885 1106h278l-514 -551l326 -555h-270l-308 545l-114 -545h-236l236 1106h233l-110 -524z" />
    <glyph glyph-name="afii10077" unicode="&#x43b;" horiz-adv-x="1180" 
d="M766 928q-52 0 -99 -32t-88 -107t-121 -309t-159 -366t-262 -132q-64 0 -115 20v197q36 -15 80 -15t81.5 32.5t72 99t104.5 268.5t120 293t138.5 167t308.5 76q156 0 295 -43l-227 -1077h-236l197 920q-38 8 -90 8z" />
    <glyph glyph-name="afii10078" unicode="&#x43c;" horiz-adv-x="1516" 
d="M1194 844l-469 -844h-176l-98 672q-12 77 -17 172l-178 -844h-215l235 1106h297l95 -678l16 -176q61 142 115 231l356 623h313l-235 -1106h-219z" />
    <glyph glyph-name="afii10079" unicode="&#x43d;" horiz-adv-x="1243" 
d="M518 1106l-94 -444h442l95 444h233l-233 -1106h-236l100 477h-440l-102 -477h-236l238 1106h233z" />
    <glyph glyph-name="afii10080" unicode="&#x43e;" horiz-adv-x="1174" 
d="M1079 691q0 -201 -73 -367q-72 -166 -200 -254t-307 -88t-292 114t-113 313q0 198 72 364q72 167 200 259q129 92 311 92t292 -116t110 -317zM842 682q0 248 -189 248q-93 0 -167 -72t-114 -194t-40 -247q0 -243 196 -243q90 0 162 68t112 190t40 250z" />
    <glyph glyph-name="afii10081" unicode="&#x43f;" horiz-adv-x="1208" 
d="M817 1126q133 0 207 -76t74 -216q0 -69 -23 -181l-137 -653h-236l142 672q18 90 18 131q0 131 -129 131q-72 0 -142 -57t-126 -165t-84 -243l-98 -469h-236l236 1106h184l-21 -205h9q158 225 362 225z" />
    <glyph glyph-name="afii10082" unicode="&#x440;" horiz-adv-x="1200" 
d="M369 395q0 -225 178 -225q85 0 159 78t117 210t43 275q0 201 -155 201q-81 0 -161 -80t-130 -210q-50 -131 -51 -249zM578 -20q-181 0 -269 176h-10q-7 -97 -25 -185l-96 -463h-233l338 1598h184l-21 -188h9q157 208 344 208q143 0 224 -103t81 -297t-70 -370
q-70 -178 -190 -277t-266 -99z" />
    <glyph glyph-name="afii10083" unicode="&#x441;" horiz-adv-x="954" 
d="M550 170q106 0 261 76v-195q-141 -71 -321 -71t-288 106t-108 308t74 372t206 264q134 96 300 96t299 -61l-70 -184q-122 53 -221 53q-150 0 -250 -154t-100 -379q0 -111 56 -171t162 -60z" />
    <glyph glyph-name="afii10084" unicode="&#x442;" horiz-adv-x="1819" 
d="M1069 891q152 235 384 235q117 0 187 -76t70 -216q0 -64 -22 -181l-140 -653h-235l143 672q19 95 19 133q0 129 -121 129q-108 0 -202 -124t-136 -329l-101 -481h-235l143 672q17 82 17 127q0 135 -117 135q-109 0 -203 -127t-139 -338l-98 -469h-236l236 1106h184
l-21 -205h9q148 225 360 225t246 -235h8z" />
    <glyph glyph-name="afii10085" unicode="&#x443;" horiz-adv-x="1004" 
d="M418 219h6q86 215 135 313l293 574h254l-688 -1280q-90 -166 -196 -242t-249 -76q-76 0 -143 19v188q75 -16 137 -16q62 -1 122 43t124 156l51 92l-164 1116h232l63 -531q23 -158 23 -356z" />
    <glyph glyph-name="afii10086" unicode="&#x444;" horiz-adv-x="1460" 
d="M1128 647q0 126 -55 197t-151 84l-160 -754q225 21 295.5 184t70.5 289zM334 463q0 -127 55 -202.5t152 -86.5l161 758q-228 -14 -298 -178t-70 -291zM1368 657q0 -192 -82 -344t-228 -236t-337 -95l-100 -474h-222l103 478q-194 23 -301 145.5t-107 314.5t82 344.5
t227.5 236t337.5 91.5l93 438h221l-94 -438q196 -26 301.5 -147.5t105.5 -313.5z" />
    <glyph glyph-name="afii10087" unicode="&#x445;" horiz-adv-x="1032" 
d="M489 387l-305 -387h-270l475 569l-231 537h245l144 -373l287 373h274l-461 -549l248 -557h-246z" />
    <glyph glyph-name="afii10088" unicode="&#x446;" horiz-adv-x="1243" 
d="M391 -20q-134 0 -208 76t-74 218q0 68 26 193l135 639h236l-144 -674q-16 -76 -16 -129q0 -133 127 -133q112 0 210.5 127.5t143.5 339.5l99 469h233l-162 -768q-12 -58 -12 -111t70 -53q33 0 84 14l-125 -579h-226l89 383q-111 40 -123 198h-6q-147 -210 -357 -210z" />
    <glyph glyph-name="afii10089" unicode="&#x447;" horiz-adv-x="1178" 
d="M397 681q0 -62 37 -95t98 -33q122 0 204 106.5t132 327.5l27 119h233l-235 -1106h-236l64 305q12 60 28.5 117.5t28.5 105.5h-8q-135 -166 -326 -166q-139 0 -211.5 78t-72.5 222q0 79 26 196l54 248h235l-59 -277q-19 -86 -19 -148z" />
    <glyph glyph-name="afii10090" unicode="&#x448;" horiz-adv-x="1819" 
d="M750 215q-152 -235 -384 -235q-118 0 -187.5 76.5t-69.5 215.5q0 64 22 181l139 653h236l-144 -672q-18 -90 -18 -133q0 -129 121 -129q108 0 201 124.5t137 328.5l100 481h236l-144 -672q-16 -80 -16 -127q0 -135 117 -135q110 0 202.5 126t139.5 339l98 469h236
l-236 -1106h-184l20 205h-8q-148 -225 -352 -225q-114 0 -176.5 62.5t-77.5 172.5h-8z" />
    <glyph glyph-name="afii10091" unicode="&#x449;" horiz-adv-x="1853" 
d="M1597 227.5q0 -53.5 72 -53.5q34 0 82 14l-125 -579h-225l88 383q-115 40 -127 201h-4q-147 -213 -346 -213q-114 0 -176.5 62.5t-77.5 172.5h-8q-152 -235 -369 -235q-133 0 -202.5 76.5t-69.5 215.5q0 59 22 181l139 653h236l-144 -674q-18 -85 -18 -131
q0 -129 121 -129q107 0 201 124t137 329l100 481h236l-144 -674q-16 -76 -16 -134q0 -126 117 -126q110 0 202.5 126t139.5 339l98 469h236l-164 -768q-11 -57 -11 -110.5z" />
    <glyph glyph-name="afii10092" unicode="&#x44a;" horiz-adv-x="1296" 
d="M940 344q0 143 -174 143q-86 0 -191 -20q-22 -104 -22 -154q0 -157 170 -157q99 0 158 50.5t59 137.5zM829 664q164 0 254.5 -78.5t90.5 -206.5t-87.5 -263.5t-390.5 -135.5q-189 0 -283 84t-94 235q0 77 25 188l92 433h-348l39 186h584l-101 -467q107 25 219 25z" />
    <glyph glyph-name="afii10093" unicode="&#x44b;" horiz-adv-x="1561" 
d="M1276 0h-234l234 1106h235zM545 487q-78 0 -174 -20q-6 -29 -13.5 -65t-7.5 -91q0 -155 156 -155q93 0 148 51.5t55 133.5t-43 114t-121 32zM618 664q152 0 238 -78t86 -215q0 -179 -121.5 -285t-321.5 -106t-291 84t-91 235q0 86 22 190l133 617h236l-100 -467
q125 25 210 25z" />
    <glyph glyph-name="afii10094" unicode="&#x44c;" horiz-adv-x="1108" 
d="M752 344q0 143 -183 143q-91 0 -198 -20q-23 -110 -23 -154q0 -157 178 -157q106 0 166 50.5t60 137.5zM637 664q169 0 258.5 -78t89.5 -206t-58 -215.5t-167.5 -136t-282.5 -48.5t-266.5 84.5t-93.5 236.5q0 88 22 186l133 619h236l-102 -467q111 25 231 25z" />
    <glyph glyph-name="afii10095" unicode="&#x44d;" horiz-adv-x="961" 
d="M420 934q-94 0 -225 -57l-66 174q159 75 342 75t289 -114.5t106 -327.5t-69 -372t-201 -245.5t-303 -86.5t-268 51v202q134 -61 256 -61t207.5 74.5t117.5 228.5h-426l35 176h414v33q0 250 -209 250z" />
    <glyph glyph-name="afii10096" unicode="&#x44e;" horiz-adv-x="1655" 
d="M1321 684q1 246 -175 246q-82 0 -149.5 -67.5t-108 -194.5t-40.5 -249q0 -245 184 -245q80 0 146.5 68.5t104.5 191t38 250.5zM1559 692q0 -202 -68 -366.5t-190.5 -254t-298.5 -89.5t-282 113.5t-106 310.5l2 71h-231l-102 -477h-236l238 1106h233l-94 -444h221
q61 221 194 341.5t321 120.5t293.5 -115t105.5 -317z" />
    <glyph glyph-name="afii10097" unicode="&#x44f;" horiz-adv-x="1135" 
d="M424 745q0 -145 180 -145h141l68 326h-186q-94 0 -148.5 -48t-54.5 -133zM608 424q-63 0 -107.5 -33t-100.5 -142t-118 -187t-200 -78q-71 0 -115 18v191q36 -13 72 -13t66.5 27t74.5 111t87 124.5t95 57.5q-174 59 -174 235t121.5 273.5t333.5 97.5h440l-233 -1106h-234
l93 424h-101z" />
    <glyph glyph-name="uni0450" unicode="&#x450;" horiz-adv-x="1075" 
d="M332 401q0 -237 236 -237q123 0 300 84v-187q-177 -81 -365 -81q-189 0 -299 111t-110 309t78 370q78 170 210 263t294 93t252 -72t90 -206q0 -182 -166 -284t-475 -103h-43l-2 -31v-29zM664 946q-96 0 -180 -86t-122 -227h29q188 -1 294 53t106 152q0 52 -32 80t-95 28z
M772 1241h-144q-65 63 -132 151t-101 156v21h245q47 -154 132 -303v-25z" />
    <glyph glyph-name="afii10071" unicode="&#x451;" horiz-adv-x="1075" 
d="M332 401q0 -237 236 -237q123 0 300 84v-187q-177 -81 -365 -81q-189 0 -299 111t-110 309t78 370q78 170 210 263t294 93t252 -72t90 -206q0 -182 -166 -284t-475 -103h-43l-2 -31v-29zM664 946q-96 0 -180 -86t-122 -227h29q188 -1 294 53t106 152q0 52 -32 80t-95 28z
M900 1516q105 0 105 -95q1 -65 -35 -102t-88 -37q-114 0 -115 98q0 60 35 98t98 38zM517 1516q105 0 105 -95q0 -65 -36 -102t-88 -37q-114 0 -114 98q0 60 35 98t98 38z" />
    <glyph glyph-name="afii10099" unicode="&#x452;" horiz-adv-x="1208" 
d="M807 1077q136 0 208 -78.5t72 -222.5q0 -76 -22 -172l-158 -743q-38 -183 -128.5 -268t-237.5 -85q-94 0 -148 23v193q59 -23 117 -23q129 0 168 188l156 734q18 79 18 127q0 135 -127 135q-112 0 -209.5 -125t-142.5 -342l-90 -418h-236l258 1219h-155l36 163h154
l37 174h235l-37 -174h324l-35 -163h-321l-17 -74q-21 -112 -71 -266h8q149 198 344 198z" />
    <glyph glyph-name="afii10100" unicode="&#x453;" horiz-adv-x="958" 
d="M37 274q0 170 155 272q76 50 227 105t199 96t48 93q0 102 -132 102t-290 -74l-60 174q189 84 366 84t265 -71t88 -197q1 -126 -71 -206q-72 -81 -248 -148q-178 -60 -240 -108t-63 -115q0 -119 168 -119q132 0 319 86v-189q-170 -79 -354 -79q-183 0 -280 77t-97 217z
M1003 1569v-19q-54 -66 -158 -162t-175 -147h-156v25q97 108 225 303h264z" />
    <glyph glyph-name="afii10101" unicode="&#x454;" horiz-adv-x="954" 
d="M548 170q110 0 263 76v-195q-140 -71 -321 -71t-288.5 107t-107.5 309t75 375t205 264t298 91t301 -61l-70 -184q-121 53 -227 53t-188 -75.5t-121 -207.5h419l-38 -176h-414l-2 -36v-38q0 -106 53 -168.5t163 -62.5z" />
    <glyph glyph-name="afii10102" unicode="&#x455;" horiz-adv-x="922" 
d="M782 340q0 -172 -118 -266t-318 -94t-332 67v203q153 -90 312 -90q97 0 157 40t60 100q-1 60 -35 96t-150 101q-116 63 -168 133t-51 165q0 155 107 243t296 88t339 -84l-76 -176q-140 76 -266 76q-73 0 -119 -33t-45 -85q0 -52 33 -87q32 -35 136 -92t148 -99
q90 -86 90 -206z" />
    <glyph glyph-name="afii10103" unicode="&#x456;" horiz-adv-x="563" 
d="M283 0h-236l236 1106h235zM453 1270q-123 0 -123 114q0 62 39 104t101 42q128 0 128 -107q0 -71 -40 -112t-105 -41z" />
    <glyph glyph-name="afii10104" unicode="&#x457;" horiz-adv-x="563" 
d="M283 0h-236l236 1106h235zM658 1516q105 0 105 -95q1 -65 -35 -102t-88 -37q-114 0 -115 98q0 60 35 98t98 38zM275 1516q105 0 105 -95q0 -65 -36 -102t-88 -37q-114 0 -114 98q0 60 35 98t98 38z" />
    <glyph glyph-name="afii10105" unicode="&#x458;" horiz-adv-x="563" 
d="M453 1270q-121 0 -121 108q0 68 38 110t100 42q128 0 128 -107q0 -71 -40 -112t-105 -41zM-113 -492q-90 0 -149 23v190q64 -20 117 -20q131 0 170 186l260 1219h233l-266 -1247q-38 -181 -128 -266t-237 -85z" />
    <glyph glyph-name="afii10106" unicode="&#x459;" horiz-adv-x="1663" 
d="M1311 344q0 143 -175 143q-86 0 -190 -20q-22 -104 -22 -154q0 -157 170 -157q99 0 158 50.5t59 137.5zM1200 664q163 0 253.5 -78t90.5 -206t-56.5 -216t-164 -136t-276.5 -48t-263 84t-94 235q0 77 25 188l92 435q-33 6 -73 6t-81.5 -30t-77 -99t-115.5 -309
t-159.5 -374t-265.5 -134q-62 0 -113 20v197q34 -15 79 -15t81.5 30.5t69 93t105.5 278.5t119 302t128.5 159t261.5 73t307 -45l-92 -436q128 25 219 25z" />
    <glyph glyph-name="afii10107" unicode="&#x45a;" horiz-adv-x="1714" 
d="M1362 344q0 143 -174 143q-86 0 -191 -20q-22 -104 -22 -154q0 -157 170 -157q99 0 158 50.5t59 137.5zM1251 664q163 0 253.5 -78t90.5 -206t-56.5 -216t-164 -136t-276.5 -48t-263 84t-94 235q0 63 23 178h-373l-102 -477h-236l238 1106h233l-94 -444h375l94 444h234
l-101 -467q131 25 219 25z" />
    <glyph glyph-name="afii10108" unicode="&#x45b;" horiz-adv-x="1208" 
d="M809 1090q278 0 278 -314q0 -56 -20 -160l-131 -616h-234l136 635q16 71 16 127q0 131 -121 131q-73 1 -147 -57t-130 -162t-83 -242l-90 -432h-236l260 1219h-157l36 163h154l37 174h235l-37 -174h324l-35 -163h-323l-84 -328h8q156 199 344 199z" />
    <glyph glyph-name="afii10109" unicode="&#x45c;" horiz-adv-x="1079" 
d="M885 1106h278l-514 -551l326 -555h-270l-308 545l-114 -545h-236l236 1106h233l-110 -524zM1097 1569v-19q-54 -66 -158 -162t-175 -147h-156v25q97 108 225 303h264z" />
    <glyph glyph-name="uni045D" unicode="&#x45d;" horiz-adv-x="1208" 
d="M111 274q0 62 12 124l24 124l123 584h236l-129 -610q-31 -141 -31 -193q0 -133 127 -133q72 0 143 57q150 120 211 410l99 469h233l-233 -1106h-185l21 205h-8q-159 -225 -363 -225q-134 0 -207 76t-73 218zM817 1241h-144q-65 63 -132 151t-101 156v21h245
q47 -154 132 -303v-25z" />
    <glyph glyph-name="afii10110" unicode="&#x45e;" horiz-adv-x="1004" 
d="M418 219h6q86 215 135 313l293 574h254l-688 -1280q-90 -166 -196 -242t-249 -76q-76 0 -143 19v188q75 -16 137 -16q62 -1 122 43t124 156l51 92l-164 1116h232l63 -531q23 -158 23 -356zM626 1241q-377 0 -377 277q0 28 8 57h205l-4 -53q0 -133 172 -133q106 1 162 45
t75 141h217q-40 -174 -154 -254t-304 -80z" />
    <glyph glyph-name="afii10193" unicode="&#x45f;" horiz-adv-x="1208" 
d="M109 274q0 68 26 193l135 639h236l-144 -674q-16 -76 -16 -129q0 -133 127 -133q112 0 210.5 127.5t143.5 339.5l99 469h233l-233 -1106h-185l21 205h-8q-159 -225 -363 -225q-134 0 -208 76t-74 218zM563 -57h45l-94 -435h-225l80 359z" />
    <glyph glyph-name="uni0460" unicode="&#x460;" horiz-adv-x="2023" 
d="M1714 999q0 281 -188 281q-53 0 -98.5 -21t-98.5 -53l-88 178q147 97 329 97t286 -122.5t104 -336.5t-54.5 -410.5t-196.5 -414t-452 -217.5q-236 0 -325 180q-62 -96 -147 -138t-205 -42q-210 0 -325.5 137t-115.5 397t136 613.5t524 353.5q176 0 293 -97l-109 -176
q-102 72 -184 72q-112 0 -204 -102t-151 -287t-59 -379q0 -328 227 -328q103 0 161.5 65.5t86.5 188.5l53 246h238l-41 -203q-18 -85 -18 -149t40.5 -106t120.5 -42q261 0 361 303.5t100 511.5z" />
    <glyph glyph-name="uni0461" unicode="&#x461;" horiz-adv-x="1585" 
d="M238 0l-136 1106h234l63 -625q12 -104 16 -204l3 -74l297 495l-45 408h229l54 -666l16 -227q144 160 236.5 358.5t166.5 534.5h238q-70 -361 -211.5 -626t-374.5 -480h-231l-45 422h-5l-243 -422h-262z" />
    <glyph glyph-name="uni0462" unicode="&#x462;" horiz-adv-x="1276" 
d="M561 201q177 0 268 71.5t91 186.5t-58.5 161t-179.5 46h-129l-100 -465h108zM1163 485q0 -235 -161.5 -360t-464.5 -125h-363l238 1122h-277l43 193h275l51 241h239l-53 -241h332l-41 -193h-332l-53 -254h104q226 0 344.5 -97t118.5 -286z" />
    <glyph glyph-name="uni0463" unicode="&#x463;" horiz-adv-x="1182" 
d="M827 344q0 143 -184 143q-90 0 -197 -20q-22 -104 -22 -154q0 -157 176 -157q106 0 166.5 51t60.5 137zM734 664q144 0 235.5 -78t91.5 -206t-59 -216.5t-170.5 -136t-283.5 -47.5t-265 85t-93 236q0 77 25 188l92 431h-231l39 186h233l45 213h234l-45 -213h286l-39 -186
h-286l-62 -281q109 25 253 25z" />
    <glyph glyph-name="uni0464" unicode="&#x464;" horiz-adv-x="1790" 
d="M700 541q0 64 7 118h-261l-139 -659h-237l309 1462h237l-127 -598h256q83 293 278 456t464 163q215 0 391 -92l-96 -195q-150 82 -308 82t-288 -111.5t-189 -302.5h576l-41 -202h-578q-8 -46 -8 -117q0 -172 83 -266.5t226 -94.5t349 68v-205q-175 -67 -379 -67
q-247 0 -386 146t-139 415z" />
    <glyph glyph-name="uni0465" unicode="&#x465;" horiz-adv-x="1470" 
d="M1068 170q109 0 259 76v-195q-139 -71 -321 -71t-289 106t-107 305l4 86h-229l-102 -477h-236l238 1106h233l-94 -444h223q64 220 206.5 342t320.5 122t315 -61l-70 -184q-127 53 -226 53q-98 0 -179 -71.5t-125 -200.5h414l-39 -187h-414q-4 -31 -4 -74
q0 -109 56.5 -170t165.5 -61z" />
    <glyph glyph-name="uni0466" unicode="&#x466;" horiz-adv-x="1300" 
d="M850 854l-16 123q-24 148 -27 270q-53 -121 -203 -393h246zM657 0h-219l142 659h-86l-365 -659h-250l834 1464h258l221 -1464h-227l-88 659h-84z" />
    <glyph glyph-name="uni0467" unicode="&#x467;" horiz-adv-x="1135" 
d="M702 631q-31 193 -45 311q-55 -108 -168 -311h213zM827 1106l189 -1106h-223l-68 459h-66l-90 -459h-215l105 459h-68l-260 -459h-240l650 1106h286z" />
    <glyph glyph-name="uni0468" unicode="&#x468;" horiz-adv-x="1806" 
d="M1356 854q-35 263 -43 395q-61 -139 -203 -395h246zM1163 0h-219l141 659h-86l-362 -659h-252l377 659h-320l-139 -659h-233l309 1462h233l-127 -598h392l342 600h260l219 -1464h-228l-88 659h-84z" />
    <glyph glyph-name="uni0469" unicode="&#x469;" horiz-adv-x="1593" 
d="M1157 659l-39 283l-153 -283h192zM1286 1106l189 -1106h-224l-69 477h-60l-94 -477h-215l107 477h-60l-270 -477h-242l281 477h-258l-103 -477h-221l236 1106h221l-94 -444h327l262 444h287z" />
    <glyph glyph-name="uni046A" unicode="&#x46a;" horiz-adv-x="1423" 
d="M776 870l340 387h-526zM874 670h-14l-137 -670h-240l140 670h-11q-85 0 -137.5 -46.5t-107.5 -168.5l-205 -455h-246l229 492q61 129 144 229t274 121l-239 481l28 139h1116l-28 -141l-455 -485q175 -27 218.5 -138.5t51.5 -246.5l29 -451h-235l-25 455q-7 121 -41 168
t-109 47z" />
    <glyph glyph-name="uni046B" unicode="&#x46b;" horiz-adv-x="1210" 
d="M621 662l247 268h-397zM-106 0l188 367q73 143 152 202t200 76l-211 356l21 105h958l-22 -105l-363 -358q132 -32 167.5 -117t49.5 -196l43 -330h-211l-35 324q-9 87 -39 125.5t-96 42.5l-102 -492h-211l106 492q-69 0 -113 -32.5t-89 -119.5l-170 -340h-223z" />
    <glyph glyph-name="uni046C" unicode="&#x46c;" horiz-adv-x="1946" 
d="M1292 870l340 387h-526zM1391 670h-13l-139 -670h-240l142 670h-13q-81 0 -132 -43t-109 -168l-207 -459h-248l213 455q65 138 127 204h-326l-139 -659h-237l309 1462h237l-127 -598h582l-229 459l28 139h1117l-29 -141l-457 -485q94 -19 150 -61.5t84 -117t37 -213.5
t28 -444h-233l-23 455q-9 215 -153 215z" />
    <glyph glyph-name="uni046D" unicode="&#x46d;" horiz-adv-x="1667" 
d="M1083 662l250 268h-397zM356 0l181 348q47 90 96 129h-262l-103 -477h-221l236 1106h221l-94 -444h479l-203 339l21 105h958l-20 -105l-365 -358q134 -35 170 -120.5t49 -192.5l43 -330h-211l-35 324q-9 87 -39.5 125.5t-97.5 42.5l-102 -492h-211l106 492
q-69 0 -112 -31.5t-88 -122.5l-170 -338h-226z" />
    <glyph glyph-name="uni046E" unicode="&#x46e;" horiz-adv-x="1155" 
d="M-76 -164q0 154 103 230t347 108t328 95t84 179t-83.5 165t-237.5 49h-178l41 190h164q190 0 291.5 67t101.5 189q0 90 -55 135t-154 45q-173 0 -357 -121l-90 166q184 118 369 142q-38 74 -149 241v25h143q106 -116 151 -178q78 89 141 141.5t152 52.5q50 0 90 -14v-131
q-40 8 -70 8t-68 -29t-120 -125q125 -30 193.5 -114.5t68.5 -200.5q0 -160 -104 -263t-289 -128v-4q136 -18 215.5 -101.5t79.5 -218.5q0 -203 -143 -316.5t-457 -144.5q-162 -17 -216 -41.5t-54 -76.5q0 -78 125 -78l325 10q107 0 174 -35v-198q-65 38 -180 38l-366 -8
q-149 0 -232.5 68.5t-83.5 181.5z" />
    <glyph glyph-name="uni046F" unicode="&#x46f;" horiz-adv-x="993" 
d="M680 573q188 -49 188 -239q0 -196 -158.5 -263t-333.5 -91t-218 -48t-43 -67q0 -76 125 -76l297 10q111 0 168 -39v-186q-67 39 -168 39l-332 -8q-141 0 -220 64.5t-79 186.5t93 196t318 106q139 20 229.5 53.5t90.5 142.5q0 131 -193 131h-161l36 179h115q149 0 210 40
t61 121q0 117 -164 117q-126 0 -295 -74l-64 174q143 59 256 74q-40 77 -133 209v27h144q77 -82 149 -176q100 118 161 156t119 38t103 -16v-131q-30 10 -67 10t-75 -28t-96 -99q197 -56 197 -246q0 -108 -67.5 -180.5t-192.5 -99.5v-7z" />
    <glyph glyph-name="uni0470" unicode="&#x470;" horiz-adv-x="1587" 
d="M915 440h-28l-94 -440h-230l94 440h-14q-217 0 -336 106t-119 292q0 83 23 202l90 422h236l-95 -450q-18 -96 -18 -150q0 -117 64 -170t194 -53h16l174 823h230l-174 -823h16q170 0 262 84t127 256l103 483h239l-108 -508q-55 -262 -217 -388t-435 -126z" />
    <glyph glyph-name="uni0471" unicode="&#x471;" horiz-adv-x="1559" 
d="M1237 1106h236q1 -400 -75 -635t-232 -353t-402 -138l-100 -472h-228l101 472q-200 17 -303 117t-103 270q0 61 10 125l129 614h234l-119 -563q-18 -93 -18 -175q1 -82 55 -139q54 -56 156 -63l292 1388h228l-293 -1384q224 28 328 248t104 688z" />
    <glyph glyph-name="uni0472" unicode="&#x472;" horiz-adv-x="1485" 
d="M868 1280q-148 0 -268 -114.5t-176 -317.5h747q5 35 5 72q0 169 -80 264.5t-228 95.5zM696 184q151 0 272.5 121.5t174.5 339.5h-756q-6 -44 -6 -100q0 -171 82 -266t233 -95zM1421 915q0 -272 -95 -490t-261.5 -331.5t-406.5 -113.5t-381.5 149t-141.5 415t98.5 486.5
t269.5 337.5t405 117t373.5 -149t139.5 -421z" />
    <glyph glyph-name="uni0473" unicode="&#x473;" horiz-adv-x="1174" 
d="M844 702q0 232 -193 232q-96 0 -172 -76.5t-114 -206.5h479v51zM528 170q98 0 176 81.5t113 221.5h-485q-4 -27 -4 -72q0 -111 51 -171t149 -60zM1079 696q0 -200 -74 -369t-200.5 -257t-304.5 -88t-292 115t-114 313t71.5 363.5t200.5 258t310 92.5t292 -114t111 -314z
" />
    <glyph glyph-name="uni0474" unicode="&#x474;" horiz-adv-x="1237" 
d="M1280 1475q76 0 145 -23v-192q-47 18 -103 18t-102 -51t-110 -178l-520 -1049h-260l-144 1462h232l74 -893q11 -154 11 -249l-1 -70h6q51 150 125 307l244 516q98 203 150.5 271t114.5 99.5t138 31.5z" />
    <glyph glyph-name="uni0475" unicode="&#x475;" horiz-adv-x="1010" 
d="M1012 1114q68 0 110 -18v-178q-36 12 -78 12t-72 -34t-59 -93l-405 -803h-277l-133 1106h234l55 -586q9 -110 14 -305h7q49 139 122 291l148 309q63 131 109 188t101.5 84t123.5 27z" />
    <glyph glyph-name="uni0476" unicode="&#x476;" horiz-adv-x="1237" 
d="M1280 1475q76 0 145 -23v-192q-47 18 -103 18t-102 -51t-110 -178l-520 -1049h-260l-144 1462h232l74 -893q11 -154 11 -249l-1 -70h6q51 150 125 307l244 516q99 203 151 271t114 100t138 31zM1050 1579h-133q-63 63 -131 153t-100 154v21h233q42 -150 131 -303v-25z
M686 1579h-133q-60 59 -129 149t-103 158v21h234q42 -150 131 -303v-25z" />
    <glyph glyph-name="uni0477" unicode="&#x477;" horiz-adv-x="1010" 
d="M1012 1114q68 0 110 -18v-178q-36 12 -78 12t-72 -34t-59 -93l-405 -803h-277l-133 1106h234l55 -586q9 -110 14 -305h7q49 139 122 291l148 309q63 131 109 188q45 57 101 84t124 27zM880 1241h-133q-63 63 -131 153t-100 154v21h233q42 -150 131 -303v-25zM516 1241
h-133q-60 59 -129 149t-103 158v21h234q42 -150 131 -303v-25z" />
    <glyph glyph-name="uni0478" unicode="&#x478;" horiz-adv-x="2482" 
d="M875 1280q-141 0 -253 -96t-176 -266t-63 -358q-1 -188 81 -282t224 -94t252 96t172 264q62 170 62 358t-79 283t-220 95zM1421 915q0 -272 -95 -490q-96 -217 -262 -331t-406 -114t-381 150q-142 150 -142 414q1 266 99 486t269 338q171 117 405 117t374 -149t139 -421z
M1897 219h6q86 215 135 313l293 574h254l-688 -1280q-90 -166 -196 -242t-249 -76q-76 0 -143 19v188q75 -16 137 -16q62 -1 122 43t124 156l51 92l-164 1116h232l63 -531q23 -158 23 -356z" />
    <glyph glyph-name="uni0479" unicode="&#x479;" horiz-adv-x="2114" 
d="M1079 691q0 -201 -73 -367q-72 -166 -200 -254t-307 -88t-292 114t-113 313q0 198 72 364q72 167 200 259q129 92 311 92t292 -116t110 -317zM842 682q0 248 -189 248q-93 0 -167 -72t-114 -194t-40 -247q0 -243 196 -243q90 0 162 68t112 190t40 250zM1528 219h6
q86 215 135 313l293 574h254l-688 -1280q-90 -166 -196 -242t-249 -76q-76 0 -143 19v188q75 -16 137 -16q62 -1 122 43t124 156l51 92l-164 1116h232l63 -531q23 -158 23 -356z" />
    <glyph glyph-name="uni047A" unicode="&#x47a;" horiz-adv-x="1532" 
d="M724 281q91 0 114 -78q172 47 277.5 235.5t105.5 459.5t-197 355q-49 -75 -142 -75t-116 82q-170 -51 -276.5 -238t-106.5 -438q0 -300 201 -375q49 72 140 72zM1468 886q0 -239 -78.5 -434.5t-226.5 -316.5t-348 -147q-17 -59 -51 -86t-94 -27t-91.5 33.5t-33.5 89.5
q-196 42 -303 194t-107 386t82.5 430.5t231 318t342.5 148.5q33 110 147 110q59 0 91 -31.5t34 -87.5q191 -41 298 -191t107 -389z" />
    <glyph glyph-name="uni047B" unicode="&#x47b;" horiz-adv-x="1239" 
d="M395.5 729q-63.5 -130 -63.5 -312t125 -224q47 65 119 65t106 -61q102 42 162.5 171t60.5 310t-112 231q-42 -73 -125 -73t-105 69q-104 -46 -167.5 -176zM1145 672q0 -269 -126 -452.5t-345 -227.5q-31 -103 -137 -103q-51 0 -80.5 28.5t-32.5 76.5
q-155 30 -242.5 146.5t-87.5 291.5t58 320t168 240.5t255 121.5q30 90 131 90t113 -92q155 -34 240.5 -150t85.5 -290z" />
    <glyph glyph-name="uni047C" unicode="&#x47c;" horiz-adv-x="2023" 
d="M1714 999q0 281 -188 281q-53 0 -98.5 -21t-98.5 -53l-88 178q147 97 329 97t286 -122.5t104 -376.5t-144.5 -628t-568.5 -374q-200 0 -329 120q-158 -120 -356 -120q-197 0 -310 138t-113 396t86 490.5t232.5 354.5t332.5 122t302 -97l-109 -176q-102 72 -184 72
q-115 0 -206.5 -103t-149.5 -287t-58 -378q0 -328 229 -328q86 0 175 46.5t161 129.5q116 -176 293 -176q141 0 244 112.5t165 310.5t62 392zM1354 1763q0 -94 -70.5 -157t-216.5 -84l8 84q125 35 125 96q0 17 -10 25.5t-38 20.5q-48 22 -48 67q0 81 108 81
q63 0 102.5 -35.5t39.5 -97.5zM1593 1868q-110 0 -203.5 38.5t-139 56t-93.5 17.5q-92 0 -119 -112h-161q20 139 95.5 207.5t175.5 68.5t246.5 -59.5t235.5 -59.5h29l-33 -157h-33z" />
    <glyph glyph-name="uni047D" unicode="&#x47d;" horiz-adv-x="1632" 
d="M854 1503q0 84 109 84q63 0 102 -36.5t39 -114.5t-70 -141t-217 -85l8 84q125 36 125 99q0 17 -10 25t-30 17t-38 22.5t-18 45.5zM1339 1559q-112 0 -204.5 38t-138 55t-93.5 17q-92 0 -119 -113h-161q20 140 95.5 208.5t192.5 68.5q62 0 118.5 -18.5t112 -40t112.5 -40
t122 -18.5h29l-33 -157h-33zM998 -20q-158 0 -263 83q-121 -83 -264 -83q-181 0 -279 109.5t-98 315.5t102.5 463.5t419.5 257.5q122 0 224 -61l-76 -172q-69 45 -139 45q-125 0 -209 -152t-84 -385t182 -233q113 0 244 111q94 -111 230 -111t224 156.5t88 404.5
q0 209 -133 209q-66 0 -155 -43l-51 170q120 61 265 61t228.5 -101t83.5 -311t-69 -384.5t-191 -262t-280 -87.5z" />
    <glyph glyph-name="uni047E" unicode="&#x47e;" horiz-adv-x="2023" 
d="M1714 999q0 281 -188 281q-53 0 -98.5 -21t-98.5 -53l-88 178q147 97 329 97t286 -122.5t104 -336.5t-54.5 -410.5t-196.5 -414t-452 -217.5q-236 0 -325 180q-62 -96 -147 -138t-205 -42q-210 0 -325.5 137t-115.5 397t136 613.5t524 353.5q176 0 293 -97l-109 -176
q-102 72 -184 72q-112 0 -204 -102t-151 -287t-59 -379q0 -328 227 -328q103 0 161.5 65.5t86.5 188.5l53 246h238l-41 -203q-18 -85 -18 -149t40.5 -106t120.5 -42q261 0 361 303.5t100 511.5zM1651 1823l-13 -54l-116 -172h-49l-27 103h-162l-70 -103h-49l-26 103h-162
l-70 -103h-49l-43 172l12 54h824z" />
    <glyph glyph-name="uni047F" unicode="&#x47f;" horiz-adv-x="1585" 
d="M238 0l-136 1106h234l63 -625q12 -104 16 -204l3 -74l297 495l-45 408h229l54 -666l16 -227q144 160 236.5 358.5t166.5 534.5h238q-70 -361 -211.5 -626t-374.5 -480h-231l-45 422h-5l-243 -422h-262zM1325 1477l-10 -54l-117 -172h-51l-25 103h-161l-70 -103h-51
l-25 103h-162l-71 -103h-50l-40 172l10 54h823z" />
    <glyph glyph-name="uni0480" unicode="&#x480;" horiz-adv-x="1225" 
d="M918 1278q-150 0 -271.5 -91t-192.5 -264t-71 -363t84 -282t240 -92q93 0 198 33l-149 -711h-240l102 474q-229 12 -356 160t-127 404t105.5 481t282 340.5t396.5 115.5t394 -92l-94 -195q-151 82 -301 82z" />
    <glyph glyph-name="uni0481" unicode="&#x481;" horiz-adv-x="954" 
d="M94 400q0 198 76.5 371t207 264t296.5 91t299 -61l-70 -184q-122 53 -221 53t-179.5 -71t-125.5 -195t-45 -250t56.5 -184t157.5 -58t197 45l-151 -713h-236l105 474q-172 8 -269.5 114t-97.5 304z" />
    <glyph glyph-name="uni0482" unicode="&#x482;" horiz-adv-x="1247" 
d="M594 432l285 -166l-72 -123l-285 164l-180 -313l-129 74l180 315l-282 164l69 123l287 -164l199 346l-285 164l72 125l284 -164l183 313l127 -73l-183 -316l287 -164l-74 -123l-282 164z" />
    <glyph glyph-name="uni0483" unicode="&#x483;" horiz-adv-x="1120" 
d="M893 1378q23 95 114 95t91 -95q0 -49 -33 -87t-102 -40h-437q-27 -94 -114 -94q-45 0 -69 27.5t-24 75.5t34.5 83t103.5 35h436z" />
    <glyph glyph-name="uni0484" unicode="&#x484;" horiz-adv-x="1161" 
d="M395 1405q120 1 268 59t243 58q94 0 152 -52.5t58 -150.5q0 -35 -6 -72h-154l2 20v17q0 76 -86 76q-42 0 -92 -17.5t-160.5 -56.5t-244.5 -39h-29l33 158h16z" />
    <glyph glyph-name="uni0485" unicode="&#x485;" horiz-adv-x="1161" 
d="M618 1444q0 77 44 118.5t104 41.5q110 0 111 -84q1 -48 -55 -70q-56 -23 -56 -55q0 -53 106 -86v-80q-121 21 -187.5 79.5t-66.5 135.5z" />
    <glyph glyph-name="uni0486" unicode="&#x486;" horiz-adv-x="1161" 
d="M651 1520q0 84 109 84q63 0 102 -37t39 -99q0 -198 -285 -239v82q132 36 132 98q0 17 -11 25t-31 17t-37.5 23t-17.5 46z" />
    <glyph glyph-name="uni0488" unicode="&#x488;" horiz-adv-x="2025" 
d="M244 653q98 0 155.5 -51t63.5 -143h-80q-5 45 -35 66.5t-103 21.5t-98 -19.5t-30 -68.5h-76q5 90 55 142t148 52zM1772 653q92 0 149.5 -52t63.5 -142h-80q-5 44 -35 66t-103 22t-98.5 -20t-30.5 -68h-75q11 194 209 194zM422 1141q98 0 155.5 -51t63.5 -144h-80
q-5 45 -35 66.5t-103 21.5t-98 -19.5t-30 -68.5h-76q5 90 55 142.5t148 52.5zM1576 1141q98 0 155 -51t63 -144h-80q-5 45 -35 66.5t-103 21.5t-98 -19.5t-30 -68.5h-76q5 90 55.5 142.5t148.5 52.5zM422 154q98 0 155.5 -51t63.5 -144h-80q-5 45 -35 66.5t-103 21.5
t-98 -19.5t-30 -68.5h-76q5 90 55 142.5t148 52.5zM1576 154q98 0 155 -51t63 -144h-80q-5 45 -35 66.5t-103 21.5t-98 -19.5t-30 -68.5h-76q5 90 55.5 142.5t148.5 52.5zM996 -125q98 0 155 -51t63 -143h-79q-5 44 -35 66t-104 22t-98.5 -20.5t-29.5 -67.5h-75
q5 89 55 141.5t148 52.5zM1001 1425q93 0 149.5 -50.5t63.5 -143.5h-79q-5 44 -35 66t-104 22t-98.5 -20.5t-29.5 -67.5h-75q11 194 208 194z" />
    <glyph glyph-name="uni0489" unicode="&#x489;" horiz-adv-x="1958" 
d="M377 442q-152 39 -336 123v97q221 -53 350 -70v-139zM1651 1186l69 -68q-177 -110 -297 -198l-98 98l2 16q124 74 324 152zM492 877l-17 2q-37 61 -86 169t-65 154l67 70q123 -198 199 -297zM633 45l-2 -16q-116 -72 -324 -152l-69 68q177 110 297 198zM1565 -211
q-101 163 -199 297l98 98l17 -2q66 -104 151 -323zM870 1155q48 178 123 336h97q-52 -220 -70 -350h-139zM1581 662q178 -48 336 -123v-97q-221 53 -350 70v139zM1090 -49q-39 -152 -123 -336h-97q53 221 70 350h139z" />
    <glyph glyph-name="uni048A" unicode="&#x48a;" horiz-adv-x="1561" 
d="M954 1575q-379 0 -379 276q0 27 9 60h204l-4 -53q0 -134 172 -134q104 0 159.5 43t78.5 144h217q-38 -173 -152 -254.5t-305 -81.5zM379 1462h221q-215 -1013 -248 -1128h8l852 1128h285l-266 -1253h239l-280 -612h-275l252 403h-198l159 756q47 232 89 391l-7 2
l-854 -1149h-286z" />
    <glyph glyph-name="uni048B" unicode="&#x48b;" horiz-adv-x="1237" 
d="M742 1241q-377 0 -377 277q0 28 8 57h205l-5 -53q0 -133 172 -133q104 0 160 43.5t78 142.5h217q-39 -174 -153.5 -254t-304.5 -80zM346 303q0 -133 127 -133q72 0 182.5 88.5t171.5 378.5l99 469h233l-194 -922h206l-249 -573h-236l209 389h-164l23 190h-9
q-154 -210 -354 -210q-133 0 -207.5 75.5t-74.5 218.5q0 77 38 248l123 584h236l-144 -674q-16 -76 -16 -129z" />
    <glyph glyph-name="uni048C" unicode="&#x48c;" horiz-adv-x="1171" 
d="M457 201q176 0 267 71.5t91 186.5t-58.5 161t-178.5 46h-129l-101 -465h109zM1057 485q0 -235 -161.5 -360t-463.5 -125h-362l231 1092h-151l43 202h149l37 168h237l-36 -168h276l-45 -202h-274l-45 -224h104q229 0 345 -98t116 -285z" />
    <glyph glyph-name="uni048D" unicode="&#x48d;" horiz-adv-x="1110" 
d="M756 344q0 143 -183 143q-89 0 -198 -20q-23 -101 -23 -154q0 -157 178 -157q107 0 166.5 52t59.5 136zM662 664q144 0 235.5 -78t91.5 -206t-89.5 -264t-397.5 -136q-186 0 -283.5 80.5t-97.5 240.5q0 88 22 186l144 670h-154l35 164h154l51 235h233l-51 -235h285
l-35 -164h-285l-110 -518q108 25 252 25z" />
    <glyph glyph-name="uni048E" unicode="&#x48e;" horiz-adv-x="1174" 
d="M559 748q76 0 123 10l-59 129l149 71l62 -131q98 78 98 226q0 109 -59 159t-181 50h-119l-108 -514h94zM713 1462q461 0 461 -401q0 -298 -246 -432l67 -142l-151 -73l-76 157q-105 -24 -236 -24h-110l-115 -547h-237l309 1462h334z" />
    <glyph glyph-name="uni048F" unicode="&#x48f;" horiz-adv-x="1200" 
d="M711 934q-84 0 -165 -83t-129 -213t-48 -246q0 -222 168 -222l34 4l-65 141l149 72l60 -129q70 80 110.5 208.5t40.5 266.5q0 201 -155 201zM799 1126q143 0 224 -103t81 -301t-79.5 -387t-211.5 -280l66 -141l-152 -72l-70 146q-45 -8 -79 -8q-183 0 -271 176h-8
q-11 -133 -35 -236l-86 -412h-233l338 1598h184l-21 -188h9q157 208 344 208z" />
    <glyph glyph-name="afii10050" unicode="&#x490;" horiz-adv-x="1001" 
d="M930 1462l65 303h217l-106 -508h-535l-266 -1257h-235l309 1462h551z" />
    <glyph glyph-name="afii10098" unicode="&#x491;" horiz-adv-x="866" 
d="M897 920h-420l-194 -920h-236l236 1106h428l67 313h226z" />
    <glyph glyph-name="uni0492" unicode="&#x492;" horiz-adv-x="997" 
d="M1149 1462l-43 -205h-535l-92 -434h318l-43 -200h-318l-131 -623h-235l131 623h-148l43 200h148l135 639h770z" />
    <glyph glyph-name="uni0493" unicode="&#x493;" horiz-adv-x="866" 
d="M47 0l98 453h-145l37 180h145l101 473h655l-43 -195h-420l-59 -278h266l-39 -180h-264l-96 -453h-236z" />
    <glyph glyph-name="uni0494" unicode="&#x494;" horiz-adv-x="1298" 
d="M559 606q-87 0 -127 -10l-127 -596h-235l309 1462h774l-43 -205h-539l-98 -464q64 16 152 16q233 0 367 -148.5t134 -386.5t-80.5 -414.5t-230 -274t-327.5 -97.5t-293 47v209q127 -53 255 -53t226 69.5t151.5 198t53.5 294.5t-83 259.5t-239 93.5z" />
    <glyph glyph-name="uni0495" unicode="&#x495;" horiz-adv-x="1090" 
d="M924 186q0 -208 -70.5 -367.5t-197.5 -240t-277 -80.5t-236 47v213q98 -57 207 -57q155 0 244.5 128.5t89.5 344.5q0 131 -55 199.5t-154 68.5q-61 0 -104 -16l-88 -426h-236l236 1106h659l-41 -195h-426l-61 -290q78 18 133 18q174 0 275.5 -122.5t101.5 -330.5z" />
    <glyph glyph-name="uni0496" unicode="&#x496;" horiz-adv-x="1782" 
d="M539 774l-322 688h244l313 -692l148 692h229l-147 -692l587 692h267l-627 -729l244 -532h196l-129 -604h-231l86 403h-84l-320 725l-151 -725h-230l152 723l-602 -723h-275z" />
    <glyph glyph-name="uni0497" unicode="&#x497;" horiz-adv-x="1841" 
d="M299 1126q173 0 269 -111t96 -315q0 -27 -5 -65h168l101 471h221l-102 -471h159q55 229 196.5 360t336.5 131q83 0 137 -14l-41 -188q-44 10 -94 10q-90 0 -163.5 -65.5t-118 -190t-44.5 -254.5q0 -254 172 -254q78 0 154 29l-125 -588h-221l84 375q-144 18 -221.5 124.5
t-77.5 292.5v33l2 33h-170l-101 -469h-219l101 469h-158q-54 -227 -196 -358t-339 -131q-68 0 -129 14l37 188q48 -12 90 -12q95 0 170 71t117.5 194t42.5 251q0 248 -170 248q-56 0 -117 -21v191q76 22 158 22z" />
    <glyph glyph-name="uni0498" unicode="&#x498;" horiz-adv-x="1155" 
d="M332 -319q106 0 106 123q0 69 -76 177q-205 8 -346 78v213q183 -100 380 -100q198 0 294 73t96 195t-84 172t-237 50h-178l41 190h164q190 0 292 68t101 188q0 90 -55 135t-154 45q-173 0 -357 -121l-90 166q125 82 243 116t278 34t270 -91t110 -246t-104 -258t-289 -128
v-4q137 -18 216 -103t79 -217q0 -214 -162 -335q-135 -101 -355 -118q99 -108 99 -220t-66 -171t-161 -59t-148 21v143q43 -16 93 -16z" />
    <glyph glyph-name="uni0499" unicode="&#x499;" horiz-adv-x="983" 
d="M272 -319q106 0 105 123q0 69 -76 177q-172 10 -291 70v203q170 -88 321 -88t223 48t71 124q-1 78 -47 112t-146 35h-162l39 179h111q146 0 210 40t64 121q0 117 -164 117q-124 0 -297 -74l-61 174q196 84 382 84t280 -70t94 -188q0 -231 -258 -288v-7q188 -48 188 -226
q0 -177 -134 -272q-104 -74 -271 -90q100 -108 100 -221t-66 -172t-161 -59t-148 21v143q44 -16 94 -16z" />
    <glyph glyph-name="uni049A" unicode="&#x49a;" horiz-adv-x="1317" 
d="M991 201h226l-127 -604h-234l88 403h-119l-366 721l-152 -721h-239l309 1462h239l-149 -698l623 698h276l-657 -727z" />
    <glyph glyph-name="uni049B" unicode="&#x49b;" horiz-adv-x="1159" 
d="M885 1106h270l-514 -549l217 -362h211l-125 -586h-219l88 391h-108l-308 545l-114 -545h-236l236 1106h233l-110 -520z" />
    <glyph glyph-name="uni049C" unicode="&#x49c;" horiz-adv-x="1182" 
d="M1077 0h-256l-182 422l-35 -172h-139l82 395l-123 -90l-117 -555h-239l309 1462h239l-149 -698l141 160l72 338h139l-31 -142l314 342h278l-639 -698z" />
    <glyph glyph-name="uni049D" unicode="&#x49d;" horiz-adv-x="1087" 
d="M305 0h-233l233 1106h236l-111 -520l105 108l67 320h131l-31 -144l228 236h266l-504 -518l-12 -62l313 -526h-260l-158 276l-36 -186h-133l75 350l-61 107z" />
    <glyph glyph-name="uni049E" unicode="&#x49e;" horiz-adv-x="1198" 
d="M1087 0h-262l-252 655l-149 -98l-117 -557h-237l231 1100h-139l43 203h139l35 159h237l-34 -159h161l-43 -203h-161l-74 -344l641 706h283l-623 -674z" />
    <glyph glyph-name="uni049F" unicode="&#x49f;" horiz-adv-x="1071" 
d="M186 1382h154l37 174h235l-39 -174h283l-37 -163h-280l-66 -316q-40 -177 -80 -301h6l488 504h272l-483 -485l291 -621h-262l-209 471l-136 -96l-77 -375h-236l258 1219h-155z" />
    <glyph glyph-name="uni04A0" unicode="&#x4a0;" horiz-adv-x="1348" 
d="M1260 0h-269l-366 721l-152 -721h-237l266 1257h-326l43 205h563l-147 -698l622 698h277l-660 -727z" />
    <glyph glyph-name="uni04A1" unicode="&#x4a1;" horiz-adv-x="1237" 
d="M1057 1106h270l-516 -549l330 -557h-264l-308 545l-116 -545h-234l195 920h-338l39 186h573l-110 -520z" />
    <glyph glyph-name="uni04A2" unicode="&#x4a2;" horiz-adv-x="1477" 
d="M1151 201h223l-129 -604h-231l86 403h-228l140 659h-566l-139 -659h-237l309 1462h237l-127 -598h566l127 598h237z" />
    <glyph glyph-name="uni04A3" unicode="&#x4a3;" horiz-adv-x="1288" 
d="M518 1106l-94 -444h442l95 444h233l-193 -911h185l-125 -586h-225l88 391h-199l100 477h-440l-102 -477h-236l238 1106h233z" />
    <glyph glyph-name="uni04A4" unicode="&#x4a4;" horiz-adv-x="1561" 
d="M1376 1257l-266 -1257h-238l140 659h-566l-139 -659h-237l309 1462h237l-127 -598h566l127 598h557l-41 -205h-322z" />
    <glyph glyph-name="uni04A5" unicode="&#x4a5;" horiz-adv-x="1432" 
d="M518 1106l-94 -444h442l95 444h579l-41 -186h-344l-194 -920h-236l100 477h-440l-102 -477h-236l238 1106h233z" />
    <glyph glyph-name="uni04A6" unicode="&#x4a6;" horiz-adv-x="2077" 
d="M1403 809q229 0 365.5 -147t136.5 -387t-82 -417t-231 -273.5t-327 -96.5t-294 49v207q127 -51 255 -51t226.5 71.5t152.5 198.5t54 291t-83.5 258t-238.5 94q-83 0 -129 -10l-125 -596h-239l266 1257h-537l-266 -1257h-237l309 1462h1014l-144 -669q64 16 154 16z" />
    <glyph glyph-name="uni04A7" unicode="&#x4a7;" horiz-adv-x="1722" 
d="M1196 639q174 0 275.5 -122.5t101.5 -330.5t-106 -448t-457 -240q-129 0 -217 47v215q103 -57 206 -57q154 0 244 127.5t90 343.5q0 130 -53.5 199t-153.5 69q-62 0 -108 -16l-88 -426h-236l195 920h-412l-194 -920h-236l238 1106h878l-104 -485q78 18 137 18z" />
    <glyph glyph-name="uni04A8" unicode="&#x4a8;" horiz-adv-x="1485" 
d="M1178 812q0 162 -91 163q-81 0 -142.5 -138.5t-61.5 -311.5t49 -265q110 81 178 235.5t68 316.5zM1407 790q0 -188 -85.5 -366.5t-236.5 -288.5q37 -18 97 -18t135 26v-200q-62 -27 -164 -27q-168 0 -270 94q-90 -30 -209 -30q-254 0 -396.5 149t-142.5 415t97.5 484.5
t270 337.5t390.5 119q132 0 248 -47l-70 -193q-83 35 -178 35q-145 0 -262 -92.5t-182.5 -260t-65.5 -357.5t80 -289t225 -99h23l18 2q-76 136 -76 324t57 338t160.5 233.5t241.5 83.5t216.5 -92.5t78.5 -280.5z" />
    <glyph glyph-name="uni04A9" unicode="&#x4a9;" horiz-adv-x="1241" 
d="M938 580q0 100 -68 100q-62 0 -100.5 -81t-38.5 -192t39 -178q74 53 121 152t47 199zM518 406q0 204 100.5 327t264.5 123q125 0 194.5 -73t69.5 -205t-66.5 -260t-175.5 -195q31 -12 79 -12t110 20v-174q-66 -23 -148 -23q-130 0 -237 80q-93 -34 -205 -34
q-193 0 -301.5 120t-108.5 326t73.5 368t203 247t299.5 85q113 0 196 -30l-53 -181q-65 23 -153 23t-164 -61t-120 -184t-44 -257t52.5 -203t147.5 -69h27l21 2q-62 99 -62 240z" />
    <glyph glyph-name="uni04AA" unicode="&#x4aa;" horiz-adv-x="1225" 
d="M919 1278q-149 0 -270 -89t-193 -259t-73 -363q0 -383 326 -383q141 0 329 68v-205q-167 -62 -346 -67q96 -106 96 -217q0 -112 -66 -171t-161 -59t-148 21v143q43 -16 93 -16t78 27t28 81q0 89 -85 204q-153 31 -251 135q-140 148 -141 413q-1 264 105 487t282 339
t398 116t393 -92l-94 -195q-151 82 -300 82z" />
    <glyph glyph-name="uni04AB" unicode="&#x4ab;" horiz-adv-x="954" 
d="M550 170q106 0 261 76v-195q-128 -65 -276 -70q96 -106 96 -218t-66 -171t-161 -59t-148 21v143q44 -16 94 -16t77 27q28 27 28 81q0 90 -87 207q-100 25 -166 90q-108 106 -108 308t74 372t206 264q134 96 300 96t299 -61l-70 -184q-122 53 -221 53q-150 0 -250 -154
t-100 -379q0 -111 56 -171t162 -60z" />
    <glyph glyph-name="uni04AC" unicode="&#x4ac;" horiz-adv-x="1053" 
d="M571 201h220l-129 -604h-232l86 403h-225l264 1257h-379l45 205h998l-43 -205h-381z" />
    <glyph glyph-name="uni04AD" unicode="&#x4ad;" horiz-adv-x="1853" 
d="M1606 244q0 -70 70 -70q36 0 85 19l-123 -584h-225l88 383q-137 39 -137 198q0 61 56 314t53 297q0 133 -119 133q-108 0 -201.5 -124t-136.5 -329l-101 -481h-235l143 672q17 82 17 127q0 135 -117 135q-110 0 -203.5 -127t-138.5 -338l-98 -469h-236l236 1106h184
l-21 -205h9q148 225 360 225t246 -235h8q152 235 384 235q118 0 187.5 -77.5t69.5 -221.5q0 -55 -22 -172l-74 -344q-8 -33 -8 -67z" />
    <glyph glyph-name="uni04AE" unicode="&#x4ae;" horiz-adv-x="1092" 
d="M582 793l432 669h266l-623 -913l-114 -549h-238l119 553l-238 909h242z" />
    <glyph glyph-name="uni04AF" unicode="&#x4af;" horiz-adv-x="997" 
d="M414 254q51 128 137 285l303 567h250l-619 -1108l-104 -490h-240l105 490l-146 1108h232l55 -559q8 -78 21 -293h6z" />
    <glyph glyph-name="uni04B0" unicode="&#x4b0;" horiz-adv-x="1092" 
d="M582 793l432 669h266l-623 -913l-8 -33h293l-43 -205h-291l-65 -311h-238l66 311h-279l43 205h281l8 37l-238 909h242z" />
    <glyph glyph-name="uni04B1" unicode="&#x4b1;" horiz-adv-x="997" 
d="M412 252q40 101 139 287l303 567h250l-619 -1106h267l-39 -178h-267l-65 -314h-240l66 314h-252l39 178h250l-144 1106h232l55 -559q5 -46 19 -295h6z" />
    <glyph glyph-name="uni04B2" unicode="&#x4b2;" horiz-adv-x="1290" 
d="M965 201h215l-129 -604h-232l86 403h-121l-192 592l-438 -592h-265l586 770l-250 692h246l178 -540l402 540h266l-551 -710z" />
    <glyph glyph-name="uni04B3" unicode="&#x4b3;" horiz-adv-x="1135" 
d="M520 387l-307 -387h-270l475 569l-232 537h246l143 -373l287 373h275l-461 -549l162 -362h206l-124 -584h-220l88 389h-110z" />
    <glyph glyph-name="uni04B4" unicode="&#x4b4;" horiz-adv-x="1653" 
d="M1542 209l-129 -612h-233l86 403h-977l266 1255h-379l43 207h985l-43 -207h-366l-222 -1050h545l266 1257h238l-266 -1253h186z" />
    <glyph glyph-name="uni04B5" unicode="&#x4b5;" horiz-adv-x="1370" 
d="M1122 244q0 -70 70 -70q34 0 86 19l-123 -584h-227l90 383q-113 40 -129 198h-4q-154 -210 -355 -210q-134 0 -207 75.5t-73 214.5q0 86 24 195l97 455h-281l39 186h795l-39 -186h-279l-104 -488q-17 -81 -17 -129q0 -133 125 -133q74 0 183.5 87.5t173.5 379.5l98 469
h235l-170 -795q-8 -35 -8 -67z" />
    <glyph glyph-name="uni04B6" unicode="&#x4b6;" horiz-adv-x="1417" 
d="M555 494q-161 0 -250.5 77.5t-89.5 219.5q0 63 14 127l115 544h238l-111 -528q-12 -48 -12 -98q0 -138 158 -138t354 76l143 688h240l-269 -1261h222l-129 -602h-234l86 401h-225l123 580q-212 -86 -373 -86z" />
    <glyph glyph-name="uni04B7" unicode="&#x4b7;" horiz-adv-x="1210" 
d="M395 682q0 -58 35 -93.5t98 -35.5q242 0 340 434l27 119h233l-192 -911h184l-125 -584h-225l88 389h-201l123 532h-8q-147 -170 -330 -170q-134 0 -208 79t-74 221q0 77 24 188l56 256h235l-61 -289q-19 -77 -19 -135z" />
    <glyph glyph-name="uni04B8" unicode="&#x4b8;" horiz-adv-x="1343" 
d="M215 793q0 50 12 112l117 557h238l-113 -540q-10 -46 -10 -99t37.5 -87.5t117.5 -37.5l72 336h141l-69 -323q91 15 213 63l143 688h240l-310 -1462h-239l123 580q-124 -52 -211 -70l-68 -315h-141l65 299q-171 0 -264.5 77t-93.5 222z" />
    <glyph glyph-name="uni04B9" unicode="&#x4b9;" horiz-adv-x="1186" 
d="M160 659q0 75 24 191l56 256h235q-40 -191 -61.5 -293t-18.5 -123q0 -119 105 -135l55 260h133l-55 -246q166 72 244 416l26 121h234l-236 -1106h-235l63 305q4 21 28 115t31 112h-8q-82 -107 -186 -145l-55 -258h-131l49 233q-144 0 -220.5 77t-76.5 220z" />
    <glyph glyph-name="uni04BA" unicode="&#x4ba;" horiz-adv-x="1343" 
d="M869 969q160 0 248.5 -78.5t88.5 -222.5q0 -52 -12 -113l-117 -555h-237l114 539q11 47 11 86q0 137 -160 137t-352 -76l-146 -686h-239l309 1462h239l-122 -581q215 88 375 88z" />
    <glyph glyph-name="uni04BB" unicode="&#x4bb;" horiz-adv-x="1208" 
d="M647 555q-247 0 -340 -438l-24 -117h-236l236 1106h237q-85 -404 -121 -531h9q145 168 327 168q135 0 209 -79.5t74 -217.5q0 -88 -55 -328l-25 -118h-236l62 291q10 49 16 127q0 65 -34 101t-99 36z" />
    <glyph glyph-name="uni04BC" unicode="&#x4bc;" horiz-adv-x="1581" 
d="M1141 1278q-162 0 -292 -117t-187 -319h73q302 0 447 67t145 211q0 78 -50 118t-136 40zM618 561q0 -377 333 -377q164 0 382 86v-209q-201 -81 -440 -81q-240 0 -380 148.5t-140 414.5q0 31 8 106q-133 2 -210 60.5t-77 164.5t62 187h200q-47 -77 -47 -137q0 -82 84 -82
h17q81 298 277.5 470.5t465.5 172.5q199 0 309.5 -94.5t110.5 -264.5q0 -245 -209 -364t-637 -119h-104q-5 -27 -5 -82z" />
    <glyph glyph-name="uni04BD" unicode="&#x4bd;" horiz-adv-x="1284" 
d="M872 946q-97 0 -180.5 -87.5t-120.5 -225.5h31q185 0 292 53t107 152q0 54 -35 81t-94 27zM774 164q121 0 305 84v-187q-171 -81 -363 -81t-302.5 112t-110.5 309v33l2 31q-256 18 -256 217q0 95 53 164h183q-43 -62 -43 -112t17 -74.5t58 -24.5h17q58 226 208 358.5
t330 132.5t268.5 -72.5t88.5 -205.5q0 -181 -167 -284t-474 -103h-43l-4 -60q0 -237 233 -237z" />
    <glyph glyph-name="uni04BE" unicode="&#x4be;" horiz-adv-x="1581" 
d="M618 561q0 -377 333 -377q164 0 382 86v-209q-165 -69 -348 -79l-80 -385h-237l86 399q-180 39 -280.5 181t-100.5 366q0 31 8 106q-133 2 -210 60.5t-77 164.5t62 187h200q-47 -77 -47 -137q0 -82 84 -82h17q84 300 279.5 471.5t463.5 171.5q199 0 309.5 -94.5
t110.5 -264.5q0 -249 -212 -366t-652 -117h-86q-5 -27 -5 -82zM1141 1278q-162 0 -292 -117t-187 -319h73q302 0 447 67t145 211q0 78 -50 118t-136 40z" />
    <glyph glyph-name="uni04BF" unicode="&#x4bf;" horiz-adv-x="1284" 
d="M541 401q0 -237 233 -237q121 0 305 84v-187q-142 -68 -286 -79l-76 -373h-225l83 389q-130 35 -201 138t-71 265v33l2 31q-256 18 -256 217q0 95 53 164h183q-43 -62 -43 -112t17 -74.5t58 -24.5h17q58 226 208 358.5t330 132.5t268.5 -72.5t88.5 -205.5
q0 -181 -167 -284t-474 -103h-43zM872 946q-97 0 -180.5 -87.5t-120.5 -225.5h31q185 0 292 53t107 152q0 54 -35 81t-94 27z" />
    <glyph glyph-name="uni04C0" unicode="&#x4c0;" horiz-adv-x="608" 
d="M70 0l311 1462h235l-311 -1462h-235z" />
    <glyph glyph-name="uni04C1" unicode="&#x4c1;" horiz-adv-x="1681" 
d="M539 774l-322 688h244l313 -692l148 692h229l-147 -692l587 692h267l-627 -729l334 -733h-252l-320 725l-151 -725h-230l152 723l-602 -723h-275zM1063 1579q-377 0 -377 277q0 28 8 57h205l-4 -53q0 -133 172 -133q105 1 161 45t76 141h217q-39 -174 -153 -254t-305 -80
z" />
    <glyph glyph-name="uni04C2" unicode="&#x4c2;" horiz-adv-x="1837" 
d="M100 -20q-68 0 -129 14l37 188q48 -12 90 -12q95 0 170 71q76 71 118 194t42 251q0 248 -170 248q-56 0 -117 -21v191q76 22 158 22q173 0 269 -111t96 -315q0 -27 -5 -65h168l101 471h221l-102 -471h159q54 229 196 360t337 131q83 0 137 -14l-41 -188q-44 10 -94 10
q-89 0 -163 -66t-118 -190t-45 -254q0 -254 168 -254q50 0 117 23v-193q-70 -20 -156 -20q-172 0 -268 108t-96 315v33l2 33h-170l-101 -469h-219l101 469h-158q-54 -227 -196 -358t-339 -131zM1063 1241q-377 0 -377 277q0 28 8 57h205l-4 -53q0 -133 172 -133
q105 1 161 45t76 141h217q-39 -174 -153 -254t-305 -80z" />
    <glyph glyph-name="uni04C3" unicode="&#x4c3;" horiz-adv-x="1352" 
d="M600 588q-89 0 -176 -27l-117 -561h-237l309 1462h237l-149 -698l623 698h278l-625 -684q207 -23 322 -160.5t115 -362.5t-80.5 -400t-229 -271t-326.5 -96t-296 47v209q124 -53 254 -53t227.5 68.5t151 195.5t53.5 291t-85 253t-249 89z" />
    <glyph glyph-name="uni04C4" unicode="&#x4c4;" horiz-adv-x="1159" 
d="M997 156q0 -187 -66.5 -338.5t-193.5 -235.5t-281 -84t-243 47v213q98 -57 207 -57q156 0 248 121.5t92 337.5q0 129 -66.5 203.5t-181.5 74.5q-73 0 -143 -24l-86 -414h-236l236 1106h233l-110 -520l479 520h270l-479 -510q157 -28 239 -140.5t82 -299.5z" />
    <glyph glyph-name="uni04C5" unicode="&#x4c5;" horiz-adv-x="1444" 
d="M70 -23q-81 0 -133 25v201q55 -21 111 -21t100.5 31.5t86 103.5t118 293.5t241.5 851.5h786l-266 -1253h238l-279 -612h-274l252 403h-220l269 1255h-328q-135 -520 -227.5 -793.5t-195.5 -379t-279 -105.5z" />
    <glyph glyph-name="uni04C6" unicode="&#x4c6;" horiz-adv-x="1223" 
d="M766 928q-52 0 -99 -32t-88 -107t-121 -309t-159 -366t-262 -132q-64 0 -115 20v197q36 -15 80 -15t81.5 32.5t72 99t104.5 268.5t120 293t138.5 167t308.5 76q156 0 295 -43l-188 -893h209l-252 -575h-234l207 391h-205l197 920q-38 8 -90 8z" />
    <glyph glyph-name="uni04C7" unicode="&#x4c7;" horiz-adv-x="1411" 
d="M500 -512q-163 0 -279 49v217q138 -51 266 -51q171 0 267.5 98t146.5 330l111 528h-566l-139 -659h-237l309 1462h237l-127 -598h566l127 598h237l-291 -1380q-65 -307 -218 -450.5t-410 -143.5z" />
    <glyph glyph-name="uni04C8" unicode="&#x4c8;" horiz-adv-x="1243" 
d="M465 -502q-138 0 -238 53v211q109 -61 223 -61t180 81.5t105 266.5l90 428h-440l-102 -477h-236l238 1106h233l-94 -444h442l95 444h233l-231 -1090q-60 -275 -177.5 -396.5t-320.5 -121.5z" />
    <glyph glyph-name="uni04C9" unicode="&#x4c9;" horiz-adv-x="1485" 
d="M1153 209h242l-281 -612h-272l250 403h-220l140 659h-566l-139 -659h-237l309 1462h237l-127 -598h566l127 598h237z" />
    <glyph glyph-name="uni04CA" unicode="&#x4ca;" horiz-adv-x="1288" 
d="M518 1106l-94 -444h442l95 444h233l-195 -922h209l-250 -573h-235l207 389h-205l100 477h-440l-102 -477h-236l238 1106h233z" />
    <glyph glyph-name="uni04CB" unicode="&#x4cb;" horiz-adv-x="1343" 
d="M555 494q-162 0 -251 78.5t-89 220.5q0 50 12 112l117 557h238l-113 -540q-10 -46 -10 -84q0 -140 159 -140t351 76l145 688h240l-310 -1462h-225l-86 -403h-231l129 604h217l80 379q-211 -86 -373 -86z" />
    <glyph glyph-name="uni04CC" unicode="&#x4cc;" horiz-adv-x="1200" 
d="M420 690q0 -137 131 -137q122 0 209.5 110t132.5 326l25 117h233l-233 -1106h-211l-82 -391h-226l131 586h191q54 252 82 329h-8q-139 -162 -328 -162q-138 0 -211.5 81t-73.5 219q0 36 7 81.5t73 362.5h236l-62 -289q-16 -80 -16 -127z" />
    <glyph glyph-name="uni04CD" unicode="&#x4cd;" horiz-adv-x="1831" 
d="M647 0l-115 1214h-6q-16 -158 -73 -426l-166 -788h-219l309 1462h323l109 -1149h6l606 1149h344l-262 -1253h238l-279 -612h-272l250 403h-207l166 788q65 300 102 426h-6l-643 -1214h-205z" />
    <glyph glyph-name="uni04CE" unicode="&#x4ce;" horiz-adv-x="1563" 
d="M1194 844l-469 -844h-176l-99 671q-13 83 -16 173l-178 -844h-215l235 1106h297l95 -678l16 -176q29 79 94 194l377 660h313l-196 -924h209l-248 -571h-238l209 389h-190z" />
    <glyph glyph-name="uni04CF" unicode="&#x4cf;" horiz-adv-x="608" 
d="M70 0l311 1462h235l-311 -1462h-235z" />
    <glyph glyph-name="uni04D0" unicode="&#x4d0;" horiz-adv-x="1210" 
d="M811 614q-51 530 -51 643q-55 -139 -142 -307l-172 -336h365zM827 406h-485l-209 -406h-254l783 1464h274l166 -1464h-234zM830 1579q-377 0 -377 277q0 28 8 57h205l-4 -53q0 -133 172 -133q106 1 162 45t75 141h217q-40 -174 -154 -254t-304 -80z" />
    <glyph glyph-name="uni04D1" unicode="&#x4d1;" horiz-adv-x="1186" 
d="M332 373q0 -203 158 -203q77 0 156 78t130 207q51 130 51 284q0 87 -47 141q-48 54 -128 54t-155 -77t-120 -209t-45 -275zM623 1126q196 0 276 -178h10l62 158h180l-236 -1106h-182l21 176h-6q-158 -196 -349 -196q-141 0 -223 102t-82 294q0 193 70 369q70 177 191 279
q122 102 268 102zM758 1241q-377 0 -377 277q0 28 8 57h205l-4 -53q0 -133 172 -133q106 1 162 45t75 141h217q-40 -174 -154 -254t-304 -80z" />
    <glyph glyph-name="uni04D2" unicode="&#x4d2;" horiz-adv-x="1210" 
d="M811 614q-51 530 -51 643q-55 -139 -142 -307l-172 -336h365zM827 406h-485l-209 -406h-254l783 1464h274l166 -1464h-234zM1030 1854q105 0 105 -95q1 -65 -35 -102t-88 -37q-114 0 -115 98q0 60 35 98t98 38zM647 1854q105 0 105 -95q0 -65 -36 -102t-88 -37
q-114 0 -114 98q0 60 35 98t98 38z" />
    <glyph glyph-name="uni04D3" unicode="&#x4d3;" horiz-adv-x="1186" 
d="M332 373q0 -203 158 -203q77 0 156 78t130 207q51 130 51 284q0 87 -47 141q-48 54 -128 54t-155 -77t-120 -209t-45 -275zM623 1126q196 0 276 -178h10l62 158h180l-236 -1106h-182l21 176h-6q-158 -196 -349 -196q-141 0 -223 102t-82 294q0 193 70 369q70 177 191 279
q122 102 268 102zM942 1516q105 0 105 -95q1 -65 -35 -102t-88 -37q-114 0 -115 98q0 60 35 98t98 38zM559 1516q105 0 105 -95q0 -65 -36 -102t-88 -37q-114 0 -114 98q0 60 35 98t98 38z" />
    <glyph glyph-name="uni04D4" unicode="&#x4d4;" horiz-adv-x="1753" 
d="M872 614l138 643h-82l-400 -643h344zM1520 0h-777l86 406h-432l-256 -406h-262l930 1462h1020l-43 -205h-539l-84 -395h504l-43 -200h-502l-98 -459h539z" />
    <glyph glyph-name="uni04D5" unicode="&#x4d5;" horiz-adv-x="1726" 
d="M1333 946q-103 0 -189 -86t-122 -227h31q187 -1 293 53t106 150q0 58 -34 84t-85 26zM332 373q0 -203 146 -203q72 0 150 80t125 216q48 134 48 246q0 222 -152 222q-85 0 -159 -80t-116 -211t-42 -270zM989 401q0 -237 241 -237q120 0 300 84v-189q-175 -79 -344 -79
q-222 0 -305 137l-23 -117h-151l20 176h-8q-85 -106 -165 -151t-175 -45q-133 0 -209 103t-76 294t69 368t189 279t260 102q174 0 260 -178h9l63 158h148l-25 -117q111 137 311 137q140 0 220 -76t81 -202q-1 -182 -167 -284t-474 -103h-45z" />
    <glyph glyph-name="uni04D6" unicode="&#x4d6;" horiz-adv-x="1077" 
d="M846 0h-776l309 1462h776l-43 -205h-539l-84 -395h502l-41 -203h-504l-96 -456h539zM785 1579q-377 0 -377 277q0 28 8 57h205l-4 -53q0 -133 172 -133q105 1 161 45t76 141h217q-39 -174 -153 -254t-305 -80z" />
    <glyph glyph-name="uni04D7" unicode="&#x4d7;" horiz-adv-x="1075" 
d="M332 401q0 -237 236 -237q123 0 300 84v-187q-177 -81 -365 -81q-189 0 -299 111t-110 309t78 370q78 170 210 263t294 93t252 -72t90 -206q0 -182 -166 -284t-475 -103h-43l-2 -31v-29zM664 946q-96 0 -180 -86t-122 -227h29q188 -1 294 53t106 152q0 52 -32 80t-95 28z
M702 1241q-377 0 -377 277q0 28 8 57h205l-4 -53q0 -133 172 -133q106 1 162 45t75 141h217q-40 -174 -154 -254t-304 -80z" />
    <glyph glyph-name="uni04D8" unicode="&#x4d8;" horiz-adv-x="1352" 
d="M868 621q-546 0 -546 -277q0 -72 48.5 -116t139.5 -44q166 0 293 111.5t194 325.5h-129zM762 1485q244 0 384 -150.5t140 -410.5t-102 -480.5t-279.5 -342t-390.5 -121.5t-325.5 94t-112.5 262q0 247 212 365t644 118h104q6 52 6 90q0 177 -85 273t-236 96
q-198 0 -402 -86v209q199 84 443 84z" />
    <glyph glyph-name="uni04D9" unicode="&#x4d9;" horiz-adv-x="1075" 
d="M741 705q0 237 -235 237q-123 0 -301 -84v186q173 82 363 82t300.5 -111t110.5 -309t-77.5 -369t-210.5 -264t-295 -93t-251.5 72.5t-89.5 205.5q0 182 166.5 284.5t474.5 102.5h43l2 31v29zM410 160q97 0 182 88t119 225h-29q-189 0 -294 -54t-105 -151q0 -51 32 -79.5
t95 -28.5z" />
    <glyph glyph-name="uni04DA" unicode="&#x4da;" horiz-adv-x="1352" 
d="M868 621q-546 0 -546 -277q0 -72 48 -116t140 -44q166 0 293 112t194 325h-129zM762 1485q244 -1 384 -151t140 -410t-102 -480t-280 -342t-390 -122q-214 0 -326 94t-112 262q0 247 212 365t644 118h104q6 52 6 90q0 177 -85 273t-236 96q-198 0 -402 -86v209
q199 84 443 84zM1069 1854q105 0 105 -95q0 -65 -36 -102t-88 -37q-114 0 -114 98q0 60 35 98t98 38zM686 1854q105 0 105 -95q1 -65 -35 -102t-88 -37q-114 0 -115 98q0 60 35 98t98 38z" />
    <glyph glyph-name="uni04DB" unicode="&#x4db;" horiz-adv-x="1075" 
d="M741 705q0 237 -235 237q-123 0 -301 -84v186q173 82 363 82t300 -111t111 -309t-77 -370q-78 -170 -210 -263t-296 -93q-162 0 -252 72t-89 206q1 182 167 284t474 103h43l2 31v29zM410 160q97 0 182 88t119 225h-29q-189 0 -294 -54t-105 -151q0 -52 32 -80t95 -28z
M865 1516q105 0 105 -95q0 -65 -36 -102t-88 -37q-114 0 -114 98q0 60 35 98t98 38zM482 1516q105 0 105 -95q1 -65 -35 -102t-88 -37q-114 0 -115 98q0 60 35 98t98 38z" />
    <glyph glyph-name="uni04DC" unicode="&#x4dc;" horiz-adv-x="1681" 
d="M539 774l-322 688h244l313 -692l148 692h229l-147 -692l587 692h267l-627 -729l334 -733h-252l-320 725l-151 -725h-230l152 723l-602 -723h-275zM1282 1854q105 0 105 -95q1 -65 -35 -102t-88 -37q-114 0 -115 98q0 60 35 98t98 38zM899 1854q105 0 105 -95
q0 -65 -36 -102t-88 -37q-114 0 -114 98q0 60 35 98t98 38z" />
    <glyph glyph-name="uni04DD" unicode="&#x4dd;" horiz-adv-x="1837" 
d="M100 -20q-68 0 -129 14l37 188q48 -12 90 -12q95 0 170 71q76 71 118 194t42 251q0 248 -170 248q-56 0 -117 -21v191q76 22 158 22q173 0 269 -111t96 -315q0 -27 -5 -65h168l101 471h221l-102 -471h159q54 229 196 360t337 131q83 0 137 -14l-41 -188q-44 10 -94 10
q-89 0 -163 -66t-118 -190t-45 -254q0 -254 168 -254q50 0 117 23v-193q-70 -20 -156 -20q-172 0 -268 108t-96 315v33l2 33h-170l-101 -469h-219l101 469h-158q-54 -227 -196 -358t-339 -131zM1286 1516q105 0 105 -95q1 -65 -35 -102t-88 -37q-114 0 -115 98q0 60 35 98
t98 38zM903 1516q105 0 105 -95q0 -65 -36 -102t-88 -37q-114 0 -114 98q0 60 35 98t98 38z" />
    <glyph glyph-name="uni04DE" unicode="&#x4de;" horiz-adv-x="1155" 
d="M396 172q198 0 294 73t96 195t-84 172t-237 50h-178l41 190h164q190 0 292 68t101 188q0 90 -55 135t-154 45q-173 0 -357 -121l-90 166q125 82 243 116t278 34t270 -91t110 -246t-104 -258t-289 -128v-4q137 -18 216 -103t79 -217q0 -214 -162 -335t-429 -121t-425 79
v213q183 -100 380 -100zM967 1854q105 0 105 -95q0 -65 -36 -102t-88 -37q-114 0 -114 98q0 60 35 98t98 38zM584 1854q105 0 105 -95q1 -65 -35 -102t-88 -37q-114 0 -115 98q0 60 35 98t98 38z" />
    </font>
</defs>
</svg>
